Onest-Black.ufo
<glyph name="exclam" format="2">
  <advance width="325"/>
  <unicode hex="0021"/>
  <outline>
    <contour>
      <point x="164" y="197" type="curve" smooth="yes"/>
      <point x="216" y="197"/>
      <point x="268" y="165"/>
      <point x="268" y="94" type="curve" smooth="yes"/>
      <point x="268" y="22"/>
      <point x="213" y="-9"/>
      <point x="163" y="-9" type="curve" smooth="yes"/>
      <point x="114" y="-9"/>
      <point x="57" y="22"/>
      <point x="57" y="94" type="curve" smooth="yes"/>
      <point x="57" y="165"/>
      <point x="112" y="197"/>
    </contour>
    <contour>
      <point x="248" y="254" type="line"/>
      <point x="79" y="254" type="line"/>
      <point x="68" y="708" type="line"/>
      <point x="260" y="708" type="line"/>
    </contour>
  </outline>
</glyph>
<glyph name="quotedbl" format="2">
  <advance width="447"/>
  <unicode hex="0022"/>
  <outline>
    <contour>
      <point x="375" y="411" type="line"/>
      <point x="271" y="411" type="line"/>
      <point x="245" y="708" type="line"/>
      <point x="408" y="708" type="line"/>
    </contour>
    <contour>
      <point x="168" y="411" type="line"/>
      <point x="65" y="411" type="line"/>
      <point x="39" y="708" type="line"/>
      <point x="202" y="708" type="line"/>
    </contour>
  </outline>
</glyph>
<glyph name="numbersign" format="2">
  <advance width="700"/>
  <unicode hex="0023"/>
  <outline>
    <contour>
      <point x="572" y="549" type="line"/>
      <point x="661" y="549" type="line"/>
      <point x="661" y="393" type="line"/>
      <point x="553" y="393" type="line"/>
      <point x="543" y="314" type="line"/>
      <point x="633" y="314" type="line"/>
      <point x="633" y="158" type="line"/>
      <point x="525" y="158" type="line"/>
      <point x="503" y="0" type="line"/>
      <point x="362" y="0" type="line"/>
      <point x="381" y="158" type="line"/>
      <point x="273" y="158" type="line"/>
      <point x="253" y="0" type="line"/>
      <point x="107" y="0" type="line"/>
      <point x="129" y="158" type="line"/>
      <point x="39" y="158" type="line"/>
      <point x="39" y="314" type="line"/>
      <point x="150" y="314" type="line"/>
      <point x="147" y="314" type="line"/>
      <point x="157" y="393" type="line"/>
      <point x="67" y="393" type="line"/>
      <point x="67" y="549" type="line"/>
      <point x="176" y="549" type="line"/>
      <point x="197" y="708" type="line"/>
      <point x="339" y="708" type="line"/>
      <point x="320" y="549" type="line"/>
      <point x="429" y="549" type="line"/>
      <point x="450" y="708" type="line"/>
      <point x="593" y="708" type="line"/>
    </contour>
    <contour>
      <point x="290" y="314" type="line"/>
      <point x="400" y="314" type="line"/>
      <point x="410" y="393" type="line"/>
      <point x="300" y="393" type="line"/>
    </contour>
  </outline>
</glyph>
<glyph name="dollar" format="2">
  <advance width="668"/>
  <unicode hex="0024"/>
  <outline>
    <contour>
      <point x="437" y="483" type="line"/>
      <point x="433" y="524"/>
      <point x="393" y="552"/>
      <point x="327" y="553" type="curve" smooth="yes"/>
      <point x="281" y="554"/>
      <point x="240" y="541"/>
      <point x="240" y="506" type="curve" smooth="yes"/>
      <point x="240" y="475"/>
      <point x="274" y="460"/>
      <point x="322" y="448" type="curve" smooth="yes"/>
      <point x="349" y="441"/>
      <point x="386" y="432"/>
      <point x="412" y="426" type="curve" smooth="yes"/>
      <point x="542" y="396"/>
      <point x="628" y="365"/>
      <point x="628" y="228" type="curve" smooth="yes"/>
      <point x="628" y="86"/>
      <point x="535" y="16"/>
      <point x="415" y="0" type="curve"/>
      <point x="415" y="-144" type="line"/>
      <point x="254" y="-144" type="line"/>
      <point x="254" y="4" type="line"/>
      <point x="141" y="28"/>
      <point x="50" y="100"/>
      <point x="39" y="239" type="curve"/>
      <point x="220" y="239" type="line"/>
      <point x="235" y="182"/>
      <point x="289" y="159"/>
      <point x="354" y="159" type="curve" smooth="yes"/>
      <point x="408" y="159"/>
      <point x="447" y="175"/>
      <point x="447" y="208" type="curve" smooth="yes"/>
      <point x="447" y="242"/>
      <point x="407" y="252"/>
      <point x="366" y="262" type="curve" smooth="yes"/>
      <point x="276" y="284"/>
      <point x="233" y="293"/>
      <point x="191" y="311" type="curve" smooth="yes"/>
      <point x="111" y="344"/>
      <point x="61" y="393"/>
      <point x="61" y="506" type="curve" smooth="yes"/>
      <point x="61" y="629"/>
      <point x="157" y="698"/>
      <point x="258" y="709" type="curve"/>
      <point x="258" y="856" type="line"/>
      <point x="419" y="856" type="line"/>
      <point x="419" y="707" type="line"/>
      <point x="528" y="693"/>
      <point x="613" y="608"/>
      <point x="613" y="483" type="curve"/>
    </contour>
  </outline>
</glyph>
<glyph name="percent" format="2">
  <advance width="941"/>
  <unicode hex="0025"/>
  <outline>
    <contour>
      <point x="140" y="0" type="line"/>
      <point x="618" y="708" type="line"/>
      <point x="799" y="708" type="line"/>
      <point x="325" y="0" type="line"/>
    </contour>
    <contour>
      <point x="229" y="717" type="curve" smooth="yes"/>
      <point x="334" y="717"/>
      <point x="413" y="650"/>
      <point x="413" y="533" type="curve" smooth="yes"/>
      <point x="413" y="414"/>
      <point x="332" y="345"/>
      <point x="226" y="345" type="curve" smooth="yes"/>
      <point x="118" y="345"/>
      <point x="39" y="414"/>
      <point x="39" y="529" type="curve" smooth="yes"/>
      <point x="39" y="646"/>
      <point x="121" y="717"/>
    </contour>
    <contour>
      <point x="718" y="364" type="curve" smooth="yes"/>
      <point x="823" y="364"/>
      <point x="902" y="297"/>
      <point x="902" y="180" type="curve" smooth="yes"/>
      <point x="902" y="60"/>
      <point x="819" y="-8"/>
      <point x="715" y="-8" type="curve" smooth="yes"/>
      <point x="609" y="-8"/>
      <point x="527" y="60"/>
      <point x="527" y="177" type="curve" smooth="yes"/>
      <point x="527" y="293"/>
      <point x="610" y="364"/>
    </contour>
    <contour>
      <point x="715" y="233" type="curve" smooth="yes"/>
      <point x="674" y="233"/>
      <point x="655" y="203"/>
      <point x="656" y="174" type="curve" smooth="yes"/>
      <point x="657" y="147"/>
      <point x="675" y="120"/>
      <point x="715" y="120" type="curve" smooth="yes"/>
      <point x="755" y="120"/>
      <point x="773" y="148"/>
      <point x="773" y="176" type="curve" smooth="yes"/>
      <point x="773" y="204"/>
      <point x="754" y="233"/>
    </contour>
    <contour>
      <point x="226" y="587" type="curve" smooth="yes"/>
      <point x="185" y="587"/>
      <point x="166" y="557"/>
      <point x="167" y="528" type="curve" smooth="yes"/>
      <point x="168" y="501"/>
      <point x="186" y="474"/>
      <point x="226" y="474" type="curve" smooth="yes"/>
      <point x="266" y="474"/>
      <point x="284" y="502"/>
      <point x="284" y="530" type="curve" smooth="yes"/>
      <point x="284" y="558"/>
      <point x="265" y="587"/>
    </contour>
  </outline>
</glyph>
<glyph name="ampersand" format="2">
  <advance width="744"/>
  <unicode hex="0026"/>
  <outline>
    <contour>
      <point x="524" y="0" type="line"/>
      <point x="475" y="48" type="line"/>
      <point x="422" y="5"/>
      <point x="346" y="-8"/>
      <point x="288" y="-8" type="curve" smooth="yes"/>
      <point x="170" y="-8"/>
      <point x="47" y="46"/>
      <point x="47" y="193" type="curve" smooth="yes"/>
      <point x="47" y="284"/>
      <point x="94" y="343"/>
      <point x="154" y="383" type="curve"/>
      <point x="156" y="383" type="line"/>
      <point x="123" y="416"/>
      <point x="101" y="462"/>
      <point x="101" y="521" type="curve" smooth="yes"/>
      <point x="101" y="650"/>
      <point x="204" y="717"/>
      <point x="318" y="717" type="curve" smooth="yes"/>
      <point x="424" y="717"/>
      <point x="526" y="659"/>
      <point x="526" y="537" type="curve" smooth="yes"/>
      <point x="526" y="445"/>
      <point x="467" y="392"/>
      <point x="405" y="351" type="curve"/>
      <point x="478" y="275" type="line"/>
      <point x="491" y="296"/>
      <point x="499" y="337"/>
      <point x="499" y="356" type="curve"/>
      <point x="644" y="356" type="line"/>
      <point x="635" y="277"/>
      <point x="619" y="219"/>
      <point x="587" y="168" type="curve"/>
      <point x="740" y="0" type="line"/>
    </contour>
    <contour>
      <point x="261" y="283" type="line"/>
      <point x="210" y="248"/>
      <point x="209" y="222"/>
      <point x="209" y="205" type="curve" smooth="yes"/>
      <point x="209" y="160"/>
      <point x="251" y="141"/>
      <point x="289" y="141" type="curve" smooth="yes"/>
      <point x="315" y="141"/>
      <point x="356" y="147"/>
      <point x="375" y="163" type="curve"/>
    </contour>
    <contour>
      <point x="369" y="527" type="curve" smooth="yes"/>
      <point x="369" y="543"/>
      <point x="358" y="576"/>
      <point x="315" y="576" type="curve" smooth="yes"/>
      <point x="270" y="576"/>
      <point x="257" y="543"/>
      <point x="257" y="522" type="curve" smooth="yes"/>
      <point x="257" y="495"/>
      <point x="271" y="473"/>
      <point x="299" y="450" type="curve"/>
      <point x="348" y="473"/>
      <point x="369" y="496"/>
    </contour>
  </outline>
</glyph>
<glyph name="quotesingle" format="2">
  <advance width="263"/>
  <unicode hex="0027"/>
  <outline>
    <contour>
      <point x="182" y="411" type="line"/>
      <point x="79" y="411" type="line"/>
      <point x="47" y="708" type="line"/>
      <point x="216" y="708" type="line"/>
    </contour>
  </outline>
</glyph>
<glyph name="parenleft" format="2">
  <advance width="384"/>
  <unicode hex="0028"/>
  <outline>
    <contour>
      <point x="45" y="310" type="curve" smooth="yes"/>
      <point x="45" y="486"/>
      <point x="100" y="656"/>
      <point x="213" y="803" type="curve"/>
      <point x="434" y="803" type="line"/>
      <point x="296" y="665"/>
      <point x="224" y="478"/>
      <point x="224" y="310" type="curve" smooth="yes"/>
      <point x="224" y="143"/>
      <point x="296" y="-44"/>
      <point x="434" y="-182" type="curve"/>
      <point x="213" y="-182" type="line"/>
      <point x="100" y="-37"/>
      <point x="45" y="135"/>
    </contour>
  </outline>
</glyph>
<glyph name="parenright" format="2">
  <advance width="384"/>
  <unicode hex="0029"/>
  <outline>
    <contour>
      <point x="339" y="310" type="curve" smooth="yes"/>
      <point x="339" y="135"/>
      <point x="284" y="-37"/>
      <point x="171" y="-182" type="curve"/>
      <point x="-50" y="-182" type="line"/>
      <point x="88" y="-44"/>
      <point x="160" y="143"/>
      <point x="160" y="310" type="curve" smooth="yes"/>
      <point x="160" y="478"/>
      <point x="88" y="665"/>
      <point x="-50" y="803" type="curve"/>
      <point x="171" y="803" type="line"/>
      <point x="284" y="656"/>
      <point x="339" y="486"/>
    </contour>
  </outline>
</glyph>
<glyph name="asterisk" format="2">
  <advance width="495"/>
  <unicode hex="002A"/>
  <outline>
    <contour>
      <point x="327" y="727" type="line"/>
      <point x="307" y="626" type="line"/>
      <point x="397" y="676" type="line"/>
      <point x="446" y="525" type="line"/>
      <point x="344" y="512" type="line"/>
      <point x="419" y="443" type="line"/>
      <point x="291" y="349" type="line"/>
      <point x="248" y="442" type="line"/>
      <point x="204" y="349" type="line"/>
      <point x="76" y="443" type="line"/>
      <point x="151" y="512" type="line"/>
      <point x="49" y="525" type="line"/>
      <point x="98" y="676" type="line"/>
      <point x="188" y="626" type="line"/>
      <point x="168" y="727" type="line"/>
    </contour>
  </outline>
</glyph>
<glyph name="plus" format="2">
  <advance width="593"/>
  <unicode hex="002B"/>
  <outline>
    <contour>
      <point x="375" y="282" type="line"/>
      <point x="375" y="113" type="line"/>
      <point x="218" y="113" type="line"/>
      <point x="218" y="282" type="line"/>
      <point x="54" y="282" type="line"/>
      <point x="54" y="440" type="line"/>
      <point x="218" y="440" type="line"/>
      <point x="218" y="607" type="line"/>
      <point x="375" y="607" type="line"/>
      <point x="375" y="440" type="line"/>
      <point x="539" y="440" type="line"/>
      <point x="539" y="282" type="line"/>
    </contour>
  </outline>
</glyph>
<glyph name="comma" format="2">
  <advance width="328"/>
  <unicode hex="002C"/>
  <outline>
    <contour>
      <point x="47" y="-94" type="line"/>
      <point x="79" y="-83"/>
      <point x="140" y="-33"/>
      <point x="152" y="-6" type="curve"/>
      <point x="108" y="-2"/>
      <point x="64" y="31"/>
      <point x="64" y="92" type="curve" smooth="yes"/>
      <point x="64" y="159"/>
      <point x="116" y="194"/>
      <point x="171" y="194" type="curve" smooth="yes"/>
      <point x="242" y="194"/>
      <point x="281" y="135"/>
      <point x="281" y="57" type="curve" smooth="yes"/>
      <point x="281" y="-59"/>
      <point x="189" y="-146"/>
      <point x="98" y="-175" type="curve"/>
    </contour>
  </outline>
</glyph>
<glyph name="hyphen" format="2">
  <advance width="469"/>
  <unicode hex="002D"/>
  <outline>
    <contour>
      <point x="415" y="216" type="line"/>
      <point x="54" y="216" type="line"/>
      <point x="54" y="374" type="line"/>
      <point x="415" y="374" type="line"/>
    </contour>
  </outline>
</glyph>
<glyph name="period" format="2">
  <advance width="299"/>
  <unicode hex="002E"/>
  <outline>
    <contour>
      <point x="151" y="195" type="curve" smooth="yes"/>
      <point x="206" y="195"/>
      <point x="252" y="156"/>
      <point x="252" y="87" type="curve" smooth="yes"/>
      <point x="252" y="18"/>
      <point x="206" y="-17"/>
      <point x="150" y="-17" type="curve" smooth="yes"/>
      <point x="94" y="-17"/>
      <point x="47" y="18"/>
      <point x="47" y="86" type="curve" smooth="yes"/>
      <point x="47" y="155"/>
      <point x="96" y="195"/>
    </contour>
  </outline>
</glyph>
<glyph name="slash" format="2">
  <advance width="536"/>
  <unicode hex="002F"/>
  <outline>
    <contour>
      <point x="192" y="-160" type="line"/>
      <point x="19" y="-160" type="line"/>
      <point x="343" y="779" type="line"/>
      <point x="517" y="779" type="line"/>
    </contour>
  </outline>
</glyph>
<glyph name="zero" format="2">
  <advance width="657"/>
  <unicode hex="0030"/>
  <outline>
    <contour>
      <point x="327" y="159" type="curve" smooth="yes"/>
      <point x="437" y="159"/>
      <point x="442" y="290"/>
      <point x="442" y="354" type="curve" smooth="yes"/>
      <point x="442" y="415"/>
      <point x="440" y="546"/>
      <point x="331" y="546" type="curve" smooth="yes"/>
      <point x="224" y="546"/>
      <point x="215" y="418"/>
      <point x="215" y="354" type="curve" smooth="yes"/>
      <point x="215" y="292"/>
      <point x="217" y="159"/>
    </contour>
    <contour>
      <point x="330" y="717" type="curve" smooth="yes"/>
      <point x="543" y="717"/>
      <point x="621" y="551"/>
      <point x="621" y="354" type="curve" smooth="yes"/>
      <point x="621" y="155"/>
      <point x="542" y="-8"/>
      <point x="327" y="-8" type="curve" smooth="yes"/>
      <point x="112" y="-8"/>
      <point x="37" y="155"/>
      <point x="37" y="351" type="curve" smooth="yes"/>
      <point x="37" y="554"/>
      <point x="118" y="717"/>
    </contour>
  </outline>
</glyph>
<glyph name="one" format="2">
  <advance width="408"/>
  <unicode hex="0031"/>
  <outline>
    <contour>
      <point x="321" y="0" type="line"/>
      <point x="140" y="0" type="line"/>
      <point x="140" y="487" type="line"/>
      <point x="5" y="487" type="line"/>
      <point x="5" y="627" type="line"/>
      <point x="89" y="627"/>
      <point x="148" y="645"/>
      <point x="189" y="708" type="curve"/>
      <point x="321" y="708" type="line"/>
    </contour>
  </outline>
</glyph>
<glyph name="two" format="2">
  <advance width="557"/>
  <unicode hex="0032"/>
  <outline>
    <contour>
      <point x="208" y="304" type="line" smooth="yes"/>
      <point x="251" y="339"/>
      <point x="280" y="364"/>
      <point x="292" y="375" type="curve" smooth="yes"/>
      <point x="326" y="406"/>
      <point x="349" y="440"/>
      <point x="349" y="473" type="curve" smooth="yes"/>
      <point x="349" y="513"/>
      <point x="325" y="546"/>
      <point x="268" y="546" type="curve"/>
      <point x="207" y="545"/>
      <point x="182" y="513"/>
      <point x="178" y="474" type="curve"/>
      <point x="10" y="474" type="line"/>
      <point x="15" y="639"/>
      <point x="139" y="717"/>
      <point x="274" y="717" type="curve" smooth="yes"/>
      <point x="410" y="717"/>
      <point x="527" y="639"/>
      <point x="527" y="495" type="curve" smooth="yes"/>
      <point x="527" y="346"/>
      <point x="400" y="250"/>
      <point x="287" y="167" type="curve"/>
      <point x="520" y="167" type="line"/>
      <point x="520" y="0" type="line"/>
      <point x="15" y="0" type="line"/>
      <point x="15" y="148" type="line"/>
    </contour>
  </outline>
</glyph>
<glyph name="three" format="2">
  <advance width="622"/>
  <unicode hex="0033"/>
  <outline>
    <contour>
      <point x="32" y="486" type="line"/>
      <point x="48" y="646"/>
      <point x="169" y="717"/>
      <point x="311" y="717" type="curve" smooth="yes"/>
      <point x="433" y="717"/>
      <point x="559" y="664"/>
      <point x="559" y="519" type="curve" smooth="yes"/>
      <point x="559" y="463"/>
      <point x="527" y="410"/>
      <point x="487" y="385" type="curve"/>
      <point x="554" y="357"/>
      <point x="585" y="290"/>
      <point x="585" y="216" type="curve" smooth="yes"/>
      <point x="584" y="52"/>
      <point x="450" y="-7"/>
      <point x="309" y="-7" type="curve" smooth="yes"/>
      <point x="160" y="-7"/>
      <point x="29" y="70"/>
      <point x="13" y="240" type="curve"/>
      <point x="189" y="240" type="line"/>
      <point x="197" y="189"/>
      <point x="244" y="162"/>
      <point x="310" y="162" type="curve" smooth="yes"/>
      <point x="369" y="162"/>
      <point x="403" y="183"/>
      <point x="403" y="225" type="curve" smooth="yes"/>
      <point x="403" y="259"/>
      <point x="380" y="284"/>
      <point x="332" y="284" type="curve" smooth="yes"/>
      <point x="240" y="284" type="line"/>
      <point x="240" y="435" type="line"/>
      <point x="305" y="435" type="line" smooth="yes"/>
      <point x="358" y="435"/>
      <point x="378" y="464"/>
      <point x="378" y="493" type="curve" smooth="yes"/>
      <point x="378" y="526"/>
      <point x="354" y="550"/>
      <point x="302" y="550" type="curve" smooth="yes"/>
      <point x="245" y="550"/>
      <point x="210" y="521"/>
      <point x="206" y="486" type="curve"/>
    </contour>
  </outline>
</glyph>
<glyph name="four" format="2">
  <advance width="639"/>
  <unicode hex="0034"/>
  <outline>
    <contour>
      <point x="544" y="287" type="line"/>
      <point x="622" y="287" type="line"/>
      <point x="622" y="123" type="line"/>
      <point x="544" y="123" type="line"/>
      <point x="544" y="0" type="line"/>
      <point x="365" y="0" type="line"/>
      <point x="365" y="123" type="line"/>
      <point x="22" y="123" type="line"/>
      <point x="22" y="261" type="line"/>
      <point x="339" y="708" type="line"/>
      <point x="544" y="708" type="line"/>
    </contour>
    <contour>
      <point x="225" y="287" type="line"/>
      <point x="365" y="287" type="line"/>
      <point x="365" y="498" type="line"/>
    </contour>
  </outline>
</glyph>
<glyph name="five" format="2">
  <advance width="614"/>
  <unicode hex="0035"/>
  <outline>
    <contour>
      <point x="61" y="291" type="line"/>
      <point x="61" y="708" type="line"/>
      <point x="555" y="708" type="line"/>
      <point x="555" y="543" type="line"/>
      <point x="233" y="543" type="line"/>
      <point x="233" y="452" type="line"/>
      <point x="277" y="479"/>
      <point x="335" y="483"/>
      <point x="373" y="481" type="curve" smooth="yes"/>
      <point x="511" y="475"/>
      <point x="580" y="387"/>
      <point x="580" y="256" type="curve" smooth="yes"/>
      <point x="580" y="83"/>
      <point x="460" y="-7"/>
      <point x="304" y="-7" type="curve" smooth="yes"/>
      <point x="163" y="-7"/>
      <point x="61" y="67"/>
      <point x="42" y="233" type="curve"/>
      <point x="218" y="233" type="line"/>
      <point x="223" y="204"/>
      <point x="251" y="162"/>
      <point x="315" y="162" type="curve" smooth="yes"/>
      <point x="376" y="162"/>
      <point x="397" y="203"/>
      <point x="397" y="241" type="curve" smooth="yes"/>
      <point x="397" y="287"/>
      <point x="367" y="325"/>
      <point x="303" y="325" type="curve" smooth="yes"/>
      <point x="267" y="325"/>
      <point x="236" y="312"/>
      <point x="204" y="291" type="curve"/>
    </contour>
  </outline>
</glyph>
<glyph name="six" format="2">
  <advance width="624"/>
  <unicode hex="0036"/>
  <outline>
    <contour>
      <point x="423" y="498" type="line"/>
      <point x="412" y="530"/>
      <point x="381" y="553"/>
      <point x="333" y="553" type="curve" smooth="yes"/>
      <point x="241" y="553"/>
      <point x="199" y="467"/>
      <point x="199" y="392" type="curve"/>
      <point x="249" y="458"/>
      <point x="329" y="469"/>
      <point x="365" y="469" type="curve" smooth="yes"/>
      <point x="509" y="469"/>
      <point x="590" y="383"/>
      <point x="590" y="242" type="curve" smooth="yes"/>
      <point x="590" y="88"/>
      <point x="481" y="-8"/>
      <point x="325" y="-8" type="curve" smooth="yes"/>
      <point x="120" y="-8"/>
      <point x="38" y="159"/>
      <point x="38" y="346" type="curve" smooth="yes"/>
      <point x="38" y="542"/>
      <point x="133" y="717"/>
      <point x="341" y="717" type="curve" smooth="yes"/>
      <point x="472" y="717"/>
      <point x="575" y="649"/>
      <point x="588" y="498" type="curve"/>
    </contour>
    <contour>
      <point x="410" y="238" type="curve" smooth="yes"/>
      <point x="410" y="279"/>
      <point x="384" y="318"/>
      <point x="328" y="318" type="curve" smooth="yes"/>
      <point x="271" y="318"/>
      <point x="238" y="278"/>
      <point x="238" y="237" type="curve" smooth="yes"/>
      <point x="238" y="199"/>
      <point x="267" y="157"/>
      <point x="327" y="157" type="curve"/>
      <point x="386" y="158"/>
      <point x="410" y="198"/>
    </contour>
  </outline>
</glyph>
<glyph name="eight" format="2">
  <advance width="627"/>
  <unicode hex="0038"/>
  <outline>
    <contour>
      <point x="311" y="-8" type="curve" smooth="yes"/>
      <point x="176" y="-8"/>
      <point x="37" y="53"/>
      <point x="37" y="217" type="curve" smooth="yes"/>
      <point x="37" y="293"/>
      <point x="68" y="349"/>
      <point x="125" y="382" type="curve"/>
      <point x="88" y="413"/>
      <point x="62" y="458"/>
      <point x="62" y="522" type="curve" smooth="yes"/>
      <point x="62" y="666"/>
      <point x="191" y="717"/>
      <point x="314" y="717" type="curve" smooth="yes"/>
      <point x="439" y="717"/>
      <point x="565" y="664"/>
      <point x="565" y="514" type="curve" smooth="yes"/>
      <point x="565" y="459"/>
      <point x="534" y="409"/>
      <point x="499" y="382" type="curve"/>
      <point x="555" y="351"/>
      <point x="590" y="298"/>
      <point x="590" y="214" type="curve" smooth="yes"/>
      <point x="591" y="54"/>
      <point x="447" y="-8"/>
    </contour>
    <contour>
      <point x="310" y="562" type="curve" smooth="yes"/>
      <point x="259" y="562"/>
      <point x="237" y="533"/>
      <point x="237" y="500" type="curve" smooth="yes"/>
      <point x="237" y="465"/>
      <point x="261" y="432"/>
      <point x="314" y="432" type="curve" smooth="yes"/>
      <point x="369" y="432"/>
      <point x="389" y="465"/>
      <point x="389" y="496" type="curve" smooth="yes"/>
      <point x="389" y="532"/>
      <point x="362" y="562"/>
    </contour>
    <contour>
      <point x="409" y="228" type="curve" smooth="yes"/>
      <point x="409" y="272"/>
      <point x="374" y="302"/>
      <point x="313" y="302" type="curve" smooth="yes"/>
      <point x="250" y="302"/>
      <point x="216" y="271"/>
      <point x="216" y="228" type="curve" smooth="yes"/>
      <point x="216" y="183"/>
      <point x="254" y="154"/>
      <point x="312" y="154" type="curve" smooth="yes"/>
      <point x="370" y="154"/>
      <point x="409" y="183"/>
    </contour>
  </outline>
</glyph>
<glyph name="nine" format="2">
  <advance width="622"/>
  <unicode hex="0039"/>
  <outline>
    <contour>
      <point x="204" y="209" type="line"/>
      <point x="213" y="177"/>
      <point x="252" y="158"/>
      <point x="297" y="158" type="curve" smooth="yes"/>
      <point x="393" y="158"/>
      <point x="425" y="243"/>
      <point x="422" y="307" type="curve"/>
      <point x="374" y="251"/>
      <point x="302" y="241"/>
      <point x="257" y="241" type="curve" smooth="yes"/>
      <point x="128" y="241"/>
      <point x="34" y="325"/>
      <point x="34" y="468" type="curve" smooth="yes"/>
      <point x="34" y="636"/>
      <point x="166" y="717"/>
      <point x="307" y="717" type="curve" smooth="yes"/>
      <point x="514" y="717"/>
      <point x="586" y="541"/>
      <point x="586" y="355" type="curve" smooth="yes"/>
      <point x="586" y="161"/>
      <point x="507" y="-8"/>
      <point x="295" y="-8" type="curve" smooth="yes"/>
      <point x="161" y="-8"/>
      <point x="51" y="60"/>
      <point x="35" y="209" type="curve"/>
    </contour>
    <contour>
      <point x="212" y="471" type="curve" smooth="yes"/>
      <point x="212" y="430"/>
      <point x="241" y="388"/>
      <point x="302" y="388" type="curve" smooth="yes"/>
      <point x="372" y="388"/>
      <point x="392" y="441"/>
      <point x="391" y="473" type="curve" smooth="yes"/>
      <point x="390" y="524"/>
      <point x="352" y="553"/>
      <point x="302" y="553" type="curve" smooth="yes"/>
      <point x="241" y="553"/>
      <point x="212" y="511"/>
    </contour>
  </outline>
</glyph>
<glyph name="colon" format="2">
  <advance width="305"/>
  <unicode hex="003A"/>
  <outline>
    <contour>
      <point x="155" y="531" type="curve" smooth="yes"/>
      <point x="210" y="531"/>
      <point x="258" y="492"/>
      <point x="258" y="423" type="curve" smooth="yes"/>
      <point x="258" y="355"/>
      <point x="209" y="319"/>
      <point x="153" y="319" type="curve" smooth="yes"/>
      <point x="97" y="319"/>
      <point x="47" y="354"/>
      <point x="47" y="422" type="curve" smooth="yes"/>
      <point x="47" y="491"/>
      <point x="101" y="531"/>
    </contour>
    <contour>
      <point x="155" y="203" type="curve" smooth="yes"/>
      <point x="210" y="203"/>
      <point x="258" y="164"/>
      <point x="258" y="95" type="curve" smooth="yes"/>
      <point x="258" y="27"/>
      <point x="209" y="-9"/>
      <point x="153" y="-9" type="curve" smooth="yes"/>
      <point x="97" y="-9"/>
      <point x="47" y="26"/>
      <point x="47" y="94" type="curve" smooth="yes"/>
      <point x="47" y="163"/>
      <point x="101" y="203"/>
    </contour>
  </outline>
</glyph>
<glyph name="semicolon" format="2">
  <advance width="327"/>
  <unicode hex="003B"/>
  <outline>
    <contour>
      <point x="47" y="-94" type="line"/>
      <point x="79" y="-83"/>
      <point x="140" y="-33"/>
      <point x="152" y="-6" type="curve"/>
      <point x="108" y="-2"/>
      <point x="65" y="31"/>
      <point x="65" y="92" type="curve" smooth="yes"/>
      <point x="65" y="159"/>
      <point x="116" y="194"/>
      <point x="171" y="194" type="curve" smooth="yes"/>
      <point x="242" y="194"/>
      <point x="281" y="135"/>
      <point x="280" y="57" type="curve" smooth="yes"/>
      <point x="278" y="-59"/>
      <point x="190" y="-145"/>
      <point x="98" y="-175" type="curve"/>
    </contour>
    <contour>
      <point x="173" y="531" type="curve" smooth="yes"/>
      <point x="228" y="531"/>
      <point x="276" y="492"/>
      <point x="276" y="423" type="curve" smooth="yes"/>
      <point x="276" y="355"/>
      <point x="227" y="319"/>
      <point x="171" y="319" type="curve" smooth="yes"/>
      <point x="115" y="319"/>
      <point x="65" y="354"/>
      <point x="65" y="422" type="curve" smooth="yes"/>
      <point x="65" y="491"/>
      <point x="119" y="531"/>
    </contour>
  </outline>
</glyph>
<glyph name="less" format="2">
  <advance width="501"/>
  <unicode hex="003C"/>
  <outline>
    <contour>
      <point x="452" y="479" type="line"/>
      <point x="244" y="363" type="line"/>
      <point x="452" y="244" type="line"/>
      <point x="452" y="62" type="line"/>
      <point x="19" y="312" type="line"/>
      <point x="19" y="404" type="line"/>
      <point x="452" y="657" type="line"/>
    </contour>
  </outline>
</glyph>
<glyph name="equal" format="2">
  <advance width="577"/>
  <unicode hex="003D"/>
  <outline>
    <contour>
      <point x="49" y="397" type="line"/>
      <point x="49" y="553" type="line"/>
      <point x="528" y="553" type="line"/>
      <point x="528" y="397" type="line"/>
    </contour>
    <contour>
      <point x="49" y="136" type="line"/>
      <point x="49" y="294" type="line"/>
      <point x="528" y="294" type="line"/>
      <point x="528" y="136" type="line"/>
    </contour>
  </outline>
</glyph>
<glyph name="greater" format="2">
  <advance width="500"/>
  <unicode hex="003E"/>
  <outline>
    <contour>
      <point x="49" y="242" type="line"/>
      <point x="257" y="359" type="line"/>
      <point x="49" y="477" type="line"/>
      <point x="49" y="658" type="line"/>
      <point x="481" y="409" type="line"/>
      <point x="481" y="317" type="line"/>
      <point x="49" y="63" type="line"/>
    </contour>
  </outline>
</glyph>
<glyph name="question" format="2">
  <advance width="541"/>
  <unicode hex="003F"/>
  <outline>
    <contour>
      <point x="176" y="244" type="line"/>
      <point x="174" y="255"/>
      <point x="173" y="265"/>
      <point x="173" y="276" type="curve" smooth="yes"/>
      <point x="173" y="348"/>
      <point x="222" y="391"/>
      <point x="262" y="423" type="curve" smooth="yes"/>
      <point x="297" y="451"/>
      <point x="327" y="475"/>
      <point x="327" y="506" type="curve" smooth="yes"/>
      <point x="327" y="532"/>
      <point x="307" y="551"/>
      <point x="263" y="551" type="curve" smooth="yes"/>
      <point x="207" y="551"/>
      <point x="188" y="520"/>
      <point x="188" y="485" type="curve"/>
      <point x="17" y="485" type="line"/>
      <point x="17" y="510" type="line" smooth="yes"/>
      <point x="17" y="662"/>
      <point x="145" y="717"/>
      <point x="265" y="717" type="curve" smooth="yes"/>
      <point x="386" y="717"/>
      <point x="506" y="661"/>
      <point x="506" y="520" type="curve" smooth="yes"/>
      <point x="506" y="442"/>
      <point x="459" y="400"/>
      <point x="396" y="342" type="curve" smooth="yes"/>
      <point x="371" y="319"/>
      <point x="340" y="291"/>
      <point x="340" y="244" type="curve"/>
    </contour>
    <contour>
      <point x="260" y="201" type="curve" smooth="yes"/>
      <point x="314" y="201"/>
      <point x="365" y="170"/>
      <point x="365" y="98" type="curve" smooth="yes"/>
      <point x="365" y="24"/>
      <point x="314" y="-9"/>
      <point x="260" y="-9" type="curve" smooth="yes"/>
      <point x="207" y="-9"/>
      <point x="154" y="24"/>
      <point x="154" y="98" type="curve" smooth="yes"/>
      <point x="154" y="170"/>
      <point x="207" y="201"/>
    </contour>
  </outline>
</glyph>
<glyph name="at" format="2">
  <advance width="1001"/>
  <unicode hex="0040"/>
  <outline>
    <contour>
      <point x="50" y="261" type="curve" smooth="yes"/>
      <point x="50" y="557"/>
      <point x="249" y="726"/>
      <point x="536" y="724" type="curve" smooth="yes"/>
      <point x="783" y="723"/>
      <point x="955" y="584"/>
      <point x="952" y="310" type="curve" smooth="yes"/>
      <point x="950" y="170"/>
      <point x="883" y="43"/>
      <point x="755" y="43" type="curve" smooth="yes"/>
      <point x="689" y="43"/>
      <point x="629" y="76"/>
      <point x="615" y="139" type="curve"/>
      <point x="586" y="80"/>
      <point x="525" y="49"/>
      <point x="457" y="49" type="curve" smooth="yes"/>
      <point x="338" y="49"/>
      <point x="273" y="145"/>
      <point x="273" y="277" type="curve" smooth="yes"/>
      <point x="273" y="408"/>
      <point x="356" y="523"/>
      <point x="494" y="523" type="curve" smooth="yes"/>
      <point x="547" y="523"/>
      <point x="603" y="506"/>
      <point x="622" y="445" type="curve"/>
      <point x="641" y="495" type="line"/>
      <point x="739" y="484" type="line"/>
      <point x="718" y="381"/>
      <point x="702" y="295"/>
      <point x="702" y="246" type="curve" smooth="yes"/>
      <point x="702" y="213"/>
      <point x="709" y="184"/>
      <point x="743" y="184" type="curve" smooth="yes"/>
      <point x="809" y="184"/>
      <point x="810" y="294"/>
      <point x="810" y="312" type="curve" smooth="yes"/>
      <point x="810" y="473"/>
      <point x="729" y="579"/>
      <point x="522" y="579" type="curve" smooth="yes"/>
      <point x="314" y="579"/>
      <point x="200" y="443"/>
      <point x="200" y="269" type="curve" smooth="yes"/>
      <point x="200" y="113"/>
      <point x="291" y="-9"/>
      <point x="472" y="-9" type="curve" smooth="yes"/>
      <point x="527" y="-9"/>
      <point x="565" y="-5"/>
      <point x="605" y="6" type="curve"/>
      <point x="626" y="-135" type="line"/>
      <point x="570" y="-150"/>
      <point x="521" y="-156"/>
      <point x="465" y="-156" type="curve" smooth="yes"/>
      <point x="232" y="-154"/>
      <point x="50" y="-12"/>
    </contour>
    <contour>
      <point x="493" y="187" type="curve" smooth="yes"/>
      <point x="561" y="187"/>
      <point x="573" y="254"/>
      <point x="576" y="295" type="curve" smooth="yes"/>
      <point x="579" y="330"/>
      <point x="556" y="384"/>
      <point x="497" y="384" type="curve" smooth="yes"/>
      <point x="439" y="384"/>
      <point x="410" y="331"/>
      <point x="410" y="279" type="curve" smooth="yes"/>
      <point x="410" y="227"/>
      <point x="440" y="187"/>
    </contour>
  </outline>
</glyph>
<glyph name="A" format="2">
  <advance width="739"/>
  <unicode hex="0041"/>
  <outline>
    <contour>
      <point x="189" y="0" type="line"/>
      <point x="-5" y="0" type="line"/>
      <point x="279" y="708" type="line"/>
      <point x="463" y="708" type="line"/>
      <point x="744" y="0" type="line"/>
      <point x="549" y="0" type="line"/>
      <point x="514" y="100" type="line"/>
      <point x="225" y="100" type="line"/>
    </contour>
    <contour>
      <point x="457" y="263" type="line"/>
      <point x="371" y="506" type="line"/>
      <point x="282" y="263" type="line"/>
    </contour>
  </outline>
</glyph>
<glyph name="B" format="2">
  <advance width="691"/>
  <unicode hex="0042"/>
  <outline>
    <contour>
      <point x="66" y="0" type="line"/>
      <point x="66" y="708" type="line"/>
      <point x="418" y="708" type="line" smooth="yes"/>
      <point x="538" y="708"/>
      <point x="632" y="662"/>
      <point x="632" y="519" type="curve" smooth="yes"/>
      <point x="632" y="468"/>
      <point x="607" y="417"/>
      <point x="566" y="390" type="curve"/>
      <point x="622" y="363"/>
      <point x="662" y="310"/>
      <point x="662" y="225" type="curve" smooth="yes"/>
      <point x="662" y="148"/>
      <point x="630" y="94"/>
      <point x="589" y="59" type="curve" smooth="yes"/>
      <point x="529" y="10"/>
      <point x="447" y="0"/>
      <point x="360" y="0" type="curve" smooth="yes"/>
    </contour>
    <contour>
      <point x="247" y="167" type="line"/>
      <point x="391" y="167" type="line" smooth="yes"/>
      <point x="455" y="167"/>
      <point x="481" y="192"/>
      <point x="481" y="229" type="curve" smooth="yes"/>
      <point x="481" y="268"/>
      <point x="453" y="287"/>
      <point x="398" y="287" type="curve" smooth="yes"/>
      <point x="247" y="287" type="line"/>
    </contour>
    <contour>
      <point x="374" y="433" type="line" smooth="yes"/>
      <point x="430" y="433"/>
      <point x="452" y="460"/>
      <point x="452" y="494" type="curve" smooth="yes"/>
      <point x="452" y="531"/>
      <point x="423" y="541"/>
      <point x="376" y="541" type="curve" smooth="yes"/>
      <point x="247" y="541" type="line"/>
      <point x="247" y="433" type="line"/>
    </contour>
  </outline>
</glyph>
<glyph name="D" format="2">
  <advance width="737"/>
  <unicode hex="0044"/>
  <outline>
    <contour>
      <point x="67" y="0" type="line"/>
      <point x="67" y="708" type="line"/>
      <point x="344" y="708" type="line" smooth="yes"/>
      <point x="568" y="708"/>
      <point x="708" y="588"/>
      <point x="708" y="351" type="curve" smooth="yes"/>
      <point x="708" y="119"/>
      <point x="574" y="0"/>
      <point x="346" y="0" type="curve" smooth="yes"/>
    </contour>
    <contour>
      <point x="348" y="167" type="line" smooth="yes"/>
      <point x="481" y="167"/>
      <point x="525" y="243"/>
      <point x="525" y="353" type="curve" smooth="yes"/>
      <point x="525" y="459"/>
      <point x="485" y="540"/>
      <point x="341" y="540" type="curve" smooth="yes"/>
      <point x="248" y="540" type="line"/>
      <point x="248" y="167" type="line"/>
    </contour>
  </outline>
</glyph>
<glyph name="E" format="2">
  <advance width="629"/>
  <unicode hex="0045"/>
  <outline>
    <contour>
      <point x="601" y="708" type="line"/>
      <point x="601" y="540" type="line"/>
      <point x="248" y="540" type="line"/>
      <point x="248" y="432" type="line"/>
      <point x="539" y="432" type="line"/>
      <point x="539" y="272" type="line"/>
      <point x="248" y="272" type="line"/>
      <point x="248" y="167" type="line"/>
      <point x="601" y="167" type="line"/>
      <point x="601" y="0" type="line"/>
      <point x="67" y="0" type="line"/>
      <point x="67" y="708" type="line"/>
    </contour>
  </outline>
</glyph>
<glyph name="F" format="2">
  <advance width="607"/>
  <unicode hex="0046"/>
  <outline>
    <contour>
      <point x="590" y="708" type="line"/>
      <point x="590" y="540" type="line"/>
      <point x="248" y="540" type="line"/>
      <point x="248" y="411" type="line"/>
      <point x="530" y="411" type="line"/>
      <point x="530" y="245" type="line"/>
      <point x="248" y="245" type="line"/>
      <point x="248" y="0" type="line"/>
      <point x="67" y="0" type="line"/>
      <point x="67" y="708" type="line"/>
    </contour>
  </outline>
</glyph>
<glyph name="I" format="2">
  <advance width="315"/>
  <unicode hex="0049"/>
  <outline>
    <contour>
      <point x="248" y="0" type="line"/>
      <point x="67" y="0" type="line"/>
      <point x="67" y="708" type="line"/>
      <point x="248" y="708" type="line"/>
    </contour>
  </outline>
</glyph>
<glyph name="J" format="2">
  <advance width="602"/>
  <unicode hex="004A"/>
  <outline>
    <contour>
      <point x="539" y="255" type="line"/>
      <point x="540" y="80"/>
      <point x="455" y="-8"/>
      <point x="291" y="-8" type="curve" smooth="yes"/>
      <point x="122" y="-8"/>
      <point x="22" y="85"/>
      <point x="22" y="243" type="curve" smooth="yes"/>
      <point x="22" y="269" type="line"/>
      <point x="202" y="269" type="line"/>
      <point x="202" y="225"/>
      <point x="206" y="161"/>
      <point x="285" y="161" type="curve" smooth="yes"/>
      <point x="347" y="161"/>
      <point x="358" y="202"/>
      <point x="358" y="242" type="curve" smooth="yes"/>
      <point x="358" y="708" type="line"/>
      <point x="539" y="708" type="line"/>
    </contour>
  </outline>
</glyph>
<glyph name="K" format="2">
  <advance width="704"/>
  <unicode hex="004B"/>
  <outline>
    <contour>
      <point x="248" y="269" type="line"/>
      <point x="248" y="0" type="line"/>
      <point x="67" y="0" type="line"/>
      <point x="67" y="708" type="line"/>
      <point x="248" y="708" type="line"/>
      <point x="248" y="436" type="line"/>
      <point x="345" y="436" type="line"/>
      <point x="498" y="708" type="line"/>
      <point x="704" y="708" type="line"/>
      <point x="494" y="369" type="line"/>
      <point x="702" y="0" type="line"/>
      <point x="492" y="0" type="line"/>
      <point x="349" y="269" type="line"/>
    </contour>
  </outline>
</glyph>
<glyph name="L" format="2">
  <advance width="607"/>
  <unicode hex="004C"/>
  <outline>
    <contour>
      <point x="248" y="167" type="line"/>
      <point x="587" y="167" type="line"/>
      <point x="587" y="0" type="line"/>
      <point x="67" y="0" type="line"/>
      <point x="67" y="708" type="line"/>
      <point x="248" y="708" type="line"/>
    </contour>
  </outline>
</glyph>
<glyph name="M" format="2">
  <advance width="928"/>
  <unicode hex="004D"/>
  <outline>
    <contour>
      <point x="296" y="708" type="line"/>
      <point x="469" y="398" type="line"/>
      <point x="641" y="708" type="line"/>
      <point x="861" y="708" type="line"/>
      <point x="861" y="0" type="line"/>
      <point x="680" y="0" type="line"/>
      <point x="680" y="451" type="line"/>
      <point x="501" y="140" type="line"/>
      <point x="430" y="140" type="line"/>
      <point x="248" y="451" type="line"/>
      <point x="248" y="0" type="line"/>
      <point x="67" y="0" type="line"/>
      <point x="67" y="708" type="line"/>
    </contour>
  </outline>
</glyph>
<glyph name="N" format="2">
  <advance width="783"/>
  <unicode hex="004E"/>
  <outline>
    <contour>
      <point x="236" y="708" type="line"/>
      <point x="535" y="303" type="line"/>
      <point x="535" y="708" type="line"/>
      <point x="716" y="708" type="line"/>
      <point x="716" y="0" type="line"/>
      <point x="552" y="0" type="line"/>
      <point x="248" y="399" type="line"/>
      <point x="248" y="0" type="line"/>
      <point x="67" y="0" type="line"/>
      <point x="67" y="708" type="line"/>
    </contour>
  </outline>
</glyph>
<glyph name="Q" format="2">
  <advance width="782"/>
  <unicode hex="0051"/>
  <outline>
    <contour>
      <point x="392" y="717" type="curve" smooth="yes"/>
      <point x="608" y="717"/>
      <point x="753" y="579"/>
      <point x="753" y="358" type="curve" smooth="yes"/>
      <point x="753" y="251"/>
      <point x="719" y="174"/>
      <point x="660" y="113" type="curve"/>
      <point x="691" y="74"/>
      <point x="723" y="33"/>
      <point x="754" y="-6" type="curve"/>
      <point x="615" y="-112" type="line"/>
      <point x="516" y="15" type="line"/>
      <point x="477" y="0"/>
      <point x="430" y="-8"/>
      <point x="391" y="-8" type="curve" smooth="yes"/>
      <point x="169" y="-8"/>
      <point x="28" y="135"/>
      <point x="28" y="352" type="curve" smooth="yes"/>
      <point x="28" y="573"/>
      <point x="173" y="717"/>
    </contour>
    <contour>
      <point x="213" y="351" type="curve" smooth="yes"/>
      <point x="213" y="260"/>
      <point x="262" y="163"/>
      <point x="387" y="163" type="curve" smooth="yes"/>
      <point x="517" y="163"/>
      <point x="568" y="268"/>
      <point x="568" y="358" type="curve" smooth="yes"/>
      <point x="568" y="446"/>
      <point x="520" y="546"/>
      <point x="392" y="546" type="curve" smooth="yes"/>
      <point x="262" y="546"/>
      <point x="213" y="443"/>
    </contour>
  </outline>
</glyph>
<glyph name="V" format="2">
  <advance width="736"/>
  <unicode hex="0056"/>
  <outline>
    <contour>
      <point x="540" y="708" type="line"/>
      <point x="736" y="708" type="line"/>
      <point x="484" y="0" type="line"/>
      <point x="254" y="0" type="line"/>
      <point x="0" y="708" type="line"/>
      <point x="197" y="708" type="line"/>
      <point x="372" y="152" type="line"/>
    </contour>
  </outline>
</glyph>
<glyph name="W" format="2">
  <advance width="1018"/>
  <unicode hex="0057"/>
  <outline>
    <contour>
      <point x="161" y="0" type="line"/>
      <point x="0" y="708" type="line"/>
      <point x="201" y="708" type="line"/>
      <point x="300" y="212" type="line"/>
      <point x="405" y="708" type="line"/>
      <point x="631" y="708" type="line"/>
      <point x="734" y="212" type="line"/>
      <point x="828" y="708" type="line"/>
      <point x="1018" y="708" type="line"/>
      <point x="860" y="0" type="line"/>
      <point x="618" y="0" type="line"/>
      <point x="515" y="478" type="line"/>
      <point x="413" y="0" type="line"/>
    </contour>
  </outline>
</glyph>
<glyph name="X" format="2">
  <advance width="719"/>
  <unicode hex="0058"/>
  <outline>
    <contour>
      <point x="500" y="708" type="line"/>
      <point x="712" y="708" type="line"/>
      <point x="471" y="354" type="line"/>
      <point x="719" y="0" type="line"/>
      <point x="501" y="0" type="line"/>
      <point x="356" y="225" type="line"/>
      <point x="205" y="0" type="line"/>
      <point x="0" y="0" type="line"/>
      <point x="250" y="355" type="line"/>
      <point x="8" y="708" type="line"/>
      <point x="225" y="708" type="line"/>
      <point x="364" y="483" type="line"/>
    </contour>
  </outline>
</glyph>
<glyph name="Y" format="2">
  <advance width="727"/>
  <unicode hex="0059"/>
  <outline>
    <contour>
      <point x="522" y="708" type="line"/>
      <point x="727" y="708" type="line"/>
      <point x="453" y="264" type="line"/>
      <point x="453" y="0" type="line"/>
      <point x="272" y="0" type="line"/>
      <point x="272" y="263" type="line"/>
      <point x="0" y="708" type="line"/>
      <point x="209" y="708" type="line"/>
      <point x="363" y="427" type="line"/>
    </contour>
  </outline>
</glyph>
<glyph name="Z" format="2">
  <advance width="631"/>
  <unicode hex="005A"/>
  <outline>
    <contour>
      <point x="33" y="540" type="line"/>
      <point x="33" y="708" type="line"/>
      <point x="607" y="708" type="line"/>
      <point x="607" y="567" type="line"/>
      <point x="262" y="167" type="line"/>
      <point x="601" y="167" type="line"/>
      <point x="601" y="0" type="line"/>
      <point x="24" y="0" type="line"/>
      <point x="24" y="142" type="line"/>
      <point x="370" y="540" type="line"/>
    </contour>
  </outline>
</glyph>
<glyph name="bracketleft" format="2">
  <advance width="374"/>
  <unicode hex="005B"/>
  <outline>
    <contour>
      <point x="67" y="779" type="line"/>
      <point x="359" y="779" type="line"/>
      <point x="359" y="623" type="line"/>
      <point x="238" y="623" type="line"/>
      <point x="238" y="-4" type="line"/>
      <point x="359" y="-4" type="line"/>
      <point x="359" y="-160" type="line"/>
      <point x="67" y="-160" type="line"/>
    </contour>
  </outline>
</glyph>
<glyph name="backslash" format="2">
  <advance width="536"/>
  <unicode hex="005C"/>
  <outline>
    <contour>
      <point x="342" y="-160" type="line"/>
      <point x="19" y="779" type="line"/>
      <point x="191" y="779" type="line"/>
      <point x="517" y="-160" type="line"/>
    </contour>
  </outline>
</glyph>
<glyph name="bracketright" format="2">
  <advance width="375"/>
  <unicode hex="005D"/>
  <outline>
    <contour>
      <point x="308" y="-160" type="line"/>
      <point x="15" y="-160" type="line"/>
      <point x="15" y="-4" type="line"/>
      <point x="137" y="-4" type="line"/>
      <point x="137" y="623" type="line"/>
      <point x="15" y="623" type="line"/>
      <point x="15" y="779" type="line"/>
      <point x="308" y="779" type="line"/>
    </contour>
  </outline>
</glyph>
<glyph name="asciicircum" format="2">
  <advance width="584"/>
  <unicode hex="005E"/>
  <outline>
    <contour>
      <point x="376" y="429" type="line"/>
      <point x="292" y="567" type="line"/>
      <point x="205" y="429" type="line"/>
      <point x="39" y="429" type="line"/>
      <point x="230" y="709" type="line"/>
      <point x="347" y="709" type="line"/>
      <point x="545" y="429" type="line"/>
    </contour>
  </outline>
</glyph>
<glyph name="underscore" format="2">
  <advance width="432"/>
  <unicode hex="005F"/>
  <outline>
    <contour>
      <point x="-23" y="-161" type="line"/>
      <point x="-23" y="-7" type="line"/>
      <point x="455" y="-7" type="line"/>
      <point x="455" y="-161" type="line"/>
    </contour>
  </outline>
</glyph>
<glyph name="grave" format="2">
  <advance width="436"/>
  <unicode hex="0060"/>
  <outline>
    <contour>
      <point x="201" y="577" type="line"/>
      <point x="30" y="769" type="line"/>
      <point x="217" y="769" type="line"/>
      <point x="349" y="577" type="line"/>
    </contour>
  </outline>
</glyph>
<glyph name="b" format="2">
  <advance width="637"/>
  <unicode hex="0062"/>
  <outline>
    <contour>
      <point x="221" y="0" type="line"/>
      <point x="47" y="0" type="line"/>
      <point x="47" y="708" type="line"/>
      <point x="224" y="708" type="line"/>
      <point x="224" y="475" type="line"/>
      <point x="268" y="519"/>
      <point x="324" y="538"/>
      <point x="386" y="538" type="curve" smooth="yes"/>
      <point x="538" y="538"/>
      <point x="610" y="423"/>
      <point x="610" y="264" type="curve" smooth="yes"/>
      <point x="610" y="106"/>
      <point x="539" y="-8"/>
      <point x="381" y="-8" type="curve" smooth="yes"/>
      <point x="342" y="-8"/>
      <point x="276" y="-8"/>
      <point x="221" y="55" type="curve"/>
    </contour>
    <contour>
      <point x="333" y="376" type="curve" smooth="yes"/>
      <point x="260" y="376"/>
      <point x="224" y="326"/>
      <point x="224" y="264" type="curve" smooth="yes"/>
      <point x="224" y="205"/>
      <point x="257" y="150"/>
      <point x="332" y="150" type="curve" smooth="yes"/>
      <point x="415" y="150"/>
      <point x="436" y="217"/>
      <point x="436" y="270" type="curve" smooth="yes"/>
      <point x="436" y="322"/>
      <point x="409" y="376"/>
    </contour>
  </outline>
</glyph>
<glyph name="f" format="2">
  <advance width="396"/>
  <unicode hex="0066"/>
  <outline>
    <contour>
      <point x="386" y="527" type="line"/>
      <point x="386" y="369" type="line"/>
      <point x="264" y="369" type="line"/>
      <point x="264" y="0" type="line"/>
      <point x="87" y="0" type="line"/>
      <point x="87" y="369" type="line"/>
      <point x="12" y="369" type="line"/>
      <point x="12" y="527" type="line"/>
      <point x="87" y="527" type="line"/>
      <point x="87" y="569" type="line" smooth="yes"/>
      <point x="87" y="693"/>
      <point x="150" y="745"/>
      <point x="281" y="745" type="curve" smooth="yes"/>
      <point x="386" y="745" type="line"/>
      <point x="386" y="588" type="line"/>
      <point x="304" y="588" type="line" smooth="yes"/>
      <point x="276" y="588"/>
      <point x="264" y="575"/>
      <point x="264" y="551" type="curve" smooth="yes"/>
      <point x="264" y="527" type="line"/>
    </contour>
  </outline>
</glyph>
<glyph name="h" format="2">
  <advance width="614"/>
  <unicode hex="0068"/>
  <outline>
    <contour>
      <point x="224" y="479" type="line"/>
      <point x="273" y="531"/>
      <point x="344" y="538"/>
      <point x="380" y="538" type="curve" smooth="yes"/>
      <point x="524" y="538"/>
      <point x="570" y="423"/>
      <point x="570" y="291" type="curve" smooth="yes"/>
      <point x="570" y="0" type="line"/>
      <point x="393" y="0" type="line"/>
      <point x="393" y="276" type="line" smooth="yes"/>
      <point x="393" y="319"/>
      <point x="375" y="376"/>
      <point x="309" y="376" type="curve" smooth="yes"/>
      <point x="247" y="376"/>
      <point x="224" y="325"/>
      <point x="224" y="272" type="curve" smooth="yes"/>
      <point x="224" y="0" type="line"/>
      <point x="47" y="0" type="line"/>
      <point x="47" y="708" type="line"/>
      <point x="224" y="708" type="line"/>
    </contour>
  </outline>
</glyph>
<glyph name="j" format="2">
  <advance width="277"/>
  <unicode hex="006A"/>
  <outline>
    <contour>
      <point x="41" y="527" type="line"/>
      <point x="218" y="527" type="line"/>
      <point x="218" y="-35" type="line" smooth="yes"/>
      <point x="218" y="-159"/>
      <point x="171" y="-220"/>
      <point x="40" y="-220" type="curve" smooth="yes"/>
      <point x="-52" y="-220" type="line"/>
      <point x="-52" y="-61" type="line"/>
      <point x="-11" y="-61" type="line" smooth="yes"/>
      <point x="43" y="-61"/>
      <point x="41" y="-23"/>
      <point x="41" y="-7" type="curve" smooth="yes"/>
    </contour>
    <contour>
      <point x="134" y="777" type="curve" smooth="yes"/>
      <point x="190" y="777"/>
      <point x="237" y="737"/>
      <point x="237" y="669" type="curve" smooth="yes"/>
      <point x="237" y="600"/>
      <point x="188" y="567"/>
      <point x="131" y="567" type="curve" smooth="yes"/>
      <point x="75" y="567"/>
      <point x="24" y="601"/>
      <point x="24" y="668" type="curve" smooth="yes"/>
      <point x="24" y="737"/>
      <point x="79" y="777"/>
    </contour>
  </outline>
</glyph>
<glyph name="m" format="2">
  <advance width="874"/>
  <unicode hex="006D"/>
  <outline>
    <contour>
      <point x="219" y="471" type="line"/>
      <point x="265" y="533"/>
      <point x="328" y="537"/>
      <point x="357" y="537" type="curve" smooth="yes"/>
      <point x="413" y="537"/>
      <point x="466" y="522"/>
      <point x="499" y="466" type="curve"/>
      <point x="545" y="525"/>
      <point x="604" y="537"/>
      <point x="652" y="537" type="curve" smooth="yes"/>
      <point x="779" y="537"/>
      <point x="831" y="454"/>
      <point x="831" y="327" type="curve" smooth="yes"/>
      <point x="831" y="0" type="line"/>
      <point x="654" y="0" type="line"/>
      <point x="654" y="294" type="line" smooth="yes"/>
      <point x="654" y="325"/>
      <point x="649" y="376"/>
      <point x="597" y="376" type="curve" smooth="yes"/>
      <point x="542" y="376"/>
      <point x="529" y="330"/>
      <point x="529" y="284" type="curve" smooth="yes"/>
      <point x="529" y="0" type="line"/>
      <point x="352" y="0" type="line"/>
      <point x="352" y="295" type="line" smooth="yes"/>
      <point x="352" y="323"/>
      <point x="347" y="376"/>
      <point x="289" y="376" type="curve" smooth="yes"/>
      <point x="226" y="376"/>
      <point x="224" y="313"/>
      <point x="224" y="279" type="curve" smooth="yes"/>
      <point x="224" y="0" type="line"/>
      <point x="47" y="0" type="line"/>
      <point x="47" y="527" type="line"/>
      <point x="203" y="527" type="line"/>
    </contour>
  </outline>
</glyph>
<glyph name="n" format="2">
  <advance width="614"/>
  <unicode hex="006E"/>
  <outline>
    <contour>
      <point x="220" y="479" type="line"/>
      <point x="269" y="530"/>
      <point x="336" y="538"/>
      <point x="375" y="538" type="curve" smooth="yes"/>
      <point x="523" y="538"/>
      <point x="570" y="425"/>
      <point x="570" y="291" type="curve" smooth="yes"/>
      <point x="570" y="0" type="line"/>
      <point x="393" y="0" type="line"/>
      <point x="393" y="276" type="line" smooth="yes"/>
      <point x="393" y="319"/>
      <point x="378" y="376"/>
      <point x="315" y="376" type="curve" smooth="yes"/>
      <point x="252" y="376"/>
      <point x="224" y="329"/>
      <point x="224" y="272" type="curve" smooth="yes"/>
      <point x="224" y="0" type="line"/>
      <point x="47" y="0" type="line"/>
      <point x="47" y="527" type="line"/>
      <point x="210" y="527" type="line"/>
    </contour>
  </outline>
</glyph>
<glyph name="p" format="2">
  <advance width="637"/>
  <unicode hex="0070"/>
  <outline>
    <contour>
      <point x="332" y="376" type="curve" smooth="yes"/>
      <point x="259" y="376"/>
      <point x="224" y="320"/>
      <point x="224" y="264" type="curve" smooth="yes"/>
      <point x="224" y="209"/>
      <point x="257" y="153"/>
      <point x="335" y="153" type="curve" smooth="yes"/>
      <point x="415" y="153"/>
      <point x="436" y="213"/>
      <point x="436" y="260" type="curve" smooth="yes"/>
      <point x="436" y="314"/>
      <point x="409" y="376"/>
    </contour>
    <contour>
      <point x="220" y="469" type="line"/>
      <point x="268" y="521"/>
      <point x="316" y="538"/>
      <point x="380" y="538" type="curve" smooth="yes"/>
      <point x="531" y="538"/>
      <point x="610" y="418"/>
      <point x="610" y="266" type="curve" smooth="yes"/>
      <point x="610" y="109"/>
      <point x="525" y="-8"/>
      <point x="371" y="-8" type="curve" smooth="yes"/>
      <point x="308" y="-8"/>
      <point x="252" y="17"/>
      <point x="224" y="45" type="curve"/>
      <point x="224" y="-201" type="line"/>
      <point x="47" y="-201" type="line"/>
      <point x="47" y="527" type="line"/>
      <point x="211" y="527" type="line"/>
    </contour>
  </outline>
</glyph>
<glyph name="q" format="2">
  <advance width="639"/>
  <unicode hex="0071"/>
  <outline>
    <contour>
      <point x="309" y="376" type="curve" smooth="yes"/>
      <point x="236" y="376"/>
      <point x="203" y="319"/>
      <point x="203" y="266" type="curve" smooth="yes"/>
      <point x="203" y="213"/>
      <point x="235" y="153"/>
      <point x="311" y="153" type="curve" smooth="yes"/>
      <point x="382" y="153"/>
      <point x="415" y="204"/>
      <point x="415" y="262" type="curve" smooth="yes"/>
      <point x="415" y="323"/>
      <point x="379" y="376"/>
    </contour>
    <contour>
      <point x="429" y="527" type="line"/>
      <point x="592" y="527" type="line"/>
      <point x="592" y="-201" type="line"/>
      <point x="415" y="-201" type="line"/>
      <point x="415" y="42" type="line"/>
      <point x="372" y="2"/>
      <point x="315" y="-8"/>
      <point x="269" y="-8" type="curve" smooth="yes"/>
      <point x="109" y="-8"/>
      <point x="27" y="111"/>
      <point x="27" y="260" type="curve" smooth="yes"/>
      <point x="27" y="427"/>
      <point x="131" y="538"/>
      <point x="280" y="538" type="curve" smooth="yes"/>
      <point x="338" y="538"/>
      <point x="389" y="521"/>
      <point x="420" y="481" type="curve"/>
    </contour>
  </outline>
</glyph>
<glyph name="r" format="2">
  <advance width="406"/>
  <unicode hex="0072"/>
  <outline>
    <contour>
      <point x="214" y="477" type="line"/>
      <point x="254" y="535"/>
      <point x="310" y="538"/>
      <point x="350" y="538" type="curve" smooth="yes"/>
      <point x="373" y="538"/>
      <point x="394" y="537"/>
      <point x="399" y="536" type="curve"/>
      <point x="399" y="365" type="line"/>
      <point x="365" y="365" type="line" smooth="yes"/>
      <point x="290" y="365"/>
      <point x="224" y="345"/>
      <point x="224" y="240" type="curve" smooth="yes"/>
      <point x="224" y="0" type="line"/>
      <point x="47" y="0" type="line"/>
      <point x="47" y="527" type="line"/>
      <point x="202" y="527" type="line"/>
    </contour>
  </outline>
</glyph>
<glyph name="t" format="2">
  <advance width="364"/>
  <unicode hex="0074"/>
  <outline>
    <contour>
      <point x="257" y="369" type="line"/>
      <point x="257" y="207" type="line" smooth="yes"/>
      <point x="257" y="182"/>
      <point x="259" y="159"/>
      <point x="301" y="159" type="curve" smooth="yes"/>
      <point x="348" y="159" type="line"/>
      <point x="348" y="0" type="line"/>
      <point x="302" y="0" type="line" smooth="yes"/>
      <point x="162" y="0"/>
      <point x="80" y="35"/>
      <point x="80" y="180" type="curve" smooth="yes"/>
      <point x="80" y="369" type="line"/>
      <point x="7" y="369" type="line"/>
      <point x="7" y="527" type="line"/>
      <point x="80" y="527" type="line"/>
      <point x="80" y="658" type="line"/>
      <point x="257" y="658" type="line"/>
      <point x="257" y="527" type="line"/>
      <point x="354" y="527" type="line"/>
      <point x="354" y="369" type="line"/>
    </contour>
  </outline>
</glyph>
<glyph name="u" format="2">
  <advance width="591"/>
  <unicode hex="0075"/>
  <outline>
    <contour>
      <point x="300" y="153" type="curve" smooth="yes"/>
      <point x="366" y="153"/>
      <point x="369" y="207"/>
      <point x="369" y="248" type="curve" smooth="yes"/>
      <point x="369" y="527" type="line"/>
      <point x="545" y="527" type="line"/>
      <point x="545" y="234" type="line" smooth="yes"/>
      <point x="545" y="62"/>
      <point x="450" y="-8"/>
      <point x="299" y="-8" type="curve" smooth="yes"/>
      <point x="137" y="-8"/>
      <point x="45" y="72"/>
      <point x="45" y="234" type="curve" smooth="yes"/>
      <point x="45" y="527" type="line"/>
      <point x="222" y="527" type="line"/>
      <point x="222" y="248" type="line" smooth="yes"/>
      <point x="222" y="196"/>
      <point x="241" y="153"/>
    </contour>
  </outline>
</glyph>
<glyph name="v" format="2">
  <advance width="572"/>
  <unicode hex="0076"/>
  <outline>
    <contour>
      <point x="386" y="527" type="line"/>
      <point x="577" y="527" type="line"/>
      <point x="404" y="0" type="line"/>
      <point x="168" y="0" type="line"/>
      <point x="-5" y="527" type="line"/>
      <point x="187" y="527" type="line"/>
      <point x="286" y="136" type="line"/>
    </contour>
  </outline>
</glyph>
<glyph name="y" format="2">
  <advance width="629"/>
  <unicode hex="0079"/>
  <outline>
    <contour>
      <point x="407" y="42" type="curve"/>
      <point x="372" y="3"/>
      <point x="314" y="-8"/>
      <point x="265" y="-8" type="curve" smooth="yes"/>
      <point x="114" y="-8"/>
      <point x="54" y="99"/>
      <point x="54" y="239" type="curve" smooth="yes"/>
      <point x="54" y="527" type="line"/>
      <point x="230" y="527" type="line"/>
      <point x="230" y="271" type="line" smooth="yes"/>
      <point x="230" y="223"/>
      <point x="238" y="152"/>
      <point x="321" y="152" type="curve" smooth="yes"/>
      <point x="405" y="152"/>
      <point x="405" y="225"/>
      <point x="405" y="278" type="curve" smooth="yes"/>
      <point x="405" y="527" type="line"/>
      <point x="582" y="527" type="line"/>
      <point x="582" y="126" type="line" smooth="yes"/>
      <point x="582" y="-92"/>
      <point x="529" y="-248"/>
      <point x="281" y="-248" type="curve" smooth="yes"/>
      <point x="200" y="-248"/>
      <point x="120" y="-229"/>
      <point x="47" y="-182" type="curve"/>
      <point x="101" y="-39" type="line"/>
      <point x="137" y="-66"/>
      <point x="188" y="-83"/>
      <point x="256" y="-83" type="curve" smooth="yes"/>
      <point x="357" y="-83"/>
      <point x="408" y="-45"/>
    </contour>
  </outline>
</glyph>
<glyph name="z" format="2">
  <advance width="505"/>
  <unicode hex="007A"/>
  <outline>
    <contour>
      <point x="478" y="400" type="line"/>
      <point x="255" y="159" type="line"/>
      <point x="478" y="159" type="line"/>
      <point x="478" y="0" type="line"/>
      <point x="27" y="0" type="line"/>
      <point x="27" y="128" type="line"/>
      <point x="250" y="369" type="line"/>
      <point x="27" y="369" type="line"/>
      <point x="27" y="527" type="line"/>
      <point x="478" y="527" type="line"/>
    </contour>
  </outline>
</glyph>
<glyph name="braceleft" format="2">
  <advance width="413"/>
  <unicode hex="007B"/>
  <outline>
    <contour>
      <point x="17" y="388" type="line"/>
      <point x="50" y="388" type="line" smooth="yes"/>
      <point x="100" y="388"/>
      <point x="101" y="424"/>
      <point x="101" y="448" type="curve" smooth="yes"/>
      <point x="101" y="638" type="line" smooth="yes"/>
      <point x="101" y="742"/>
      <point x="166" y="779"/>
      <point x="254" y="779" type="curve" smooth="yes"/>
      <point x="374" y="779" type="line"/>
      <point x="374" y="623" type="line"/>
      <point x="307" y="623" type="line" smooth="yes"/>
      <point x="267" y="623"/>
      <point x="271" y="596"/>
      <point x="271" y="579" type="curve" smooth="yes"/>
      <point x="271" y="425" type="line" smooth="yes"/>
      <point x="271" y="374"/>
      <point x="258" y="336"/>
      <point x="231" y="310" type="curve"/>
      <point x="258" y="284"/>
      <point x="271" y="246"/>
      <point x="271" y="195" type="curve" smooth="yes"/>
      <point x="271" y="40" type="line" smooth="yes"/>
      <point x="271" y="24"/>
      <point x="267" y="-3"/>
      <point x="307" y="-3" type="curve" smooth="yes"/>
      <point x="374" y="-3" type="line"/>
      <point x="374" y="-159" type="line"/>
      <point x="254" y="-159" type="line" smooth="yes"/>
      <point x="166" y="-159"/>
      <point x="101" y="-122"/>
      <point x="101" y="-18" type="curve" smooth="yes"/>
      <point x="101" y="173" type="line" smooth="yes"/>
      <point x="101" y="197"/>
      <point x="100" y="232"/>
      <point x="50" y="232" type="curve" smooth="yes"/>
      <point x="17" y="232" type="line"/>
    </contour>
  </outline>
</glyph>
<glyph name="bar" format="2">
  <advance width="298"/>
  <unicode hex="007C"/>
  <outline>
    <contour>
      <point x="67" y="-163" type="line"/>
      <point x="67" y="794" type="line"/>
      <point x="231" y="794" type="line"/>
      <point x="231" y="-163" type="line"/>
    </contour>
  </outline>
</glyph>
<glyph name="braceright" format="2">
  <advance width="413"/>
  <unicode hex="007D"/>
  <outline>
    <contour>
      <point x="396" y="232" type="line"/>
      <point x="363" y="232" type="line" smooth="yes"/>
      <point x="315" y="232"/>
      <point x="312" y="196"/>
      <point x="312" y="173" type="curve" smooth="yes"/>
      <point x="312" y="-18" type="line" smooth="yes"/>
      <point x="312" y="-122"/>
      <point x="248" y="-159"/>
      <point x="161" y="-159" type="curve" smooth="yes"/>
      <point x="39" y="-159" type="line"/>
      <point x="39" y="-3" type="line"/>
      <point x="106" y="-3" type="line" smooth="yes"/>
      <point x="146" y="-3"/>
      <point x="142" y="24"/>
      <point x="142" y="41" type="curve" smooth="yes"/>
      <point x="142" y="195" type="line" smooth="yes"/>
      <point x="142" y="244"/>
      <point x="156" y="283"/>
      <point x="183" y="310" type="curve"/>
      <point x="182" y="310" type="line"/>
      <point x="153" y="337"/>
      <point x="142" y="374"/>
      <point x="142" y="425" type="curve" smooth="yes"/>
      <point x="142" y="580" type="line" smooth="yes"/>
      <point x="142" y="596"/>
      <point x="146" y="623"/>
      <point x="106" y="623" type="curve" smooth="yes"/>
      <point x="39" y="623" type="line"/>
      <point x="39" y="779" type="line"/>
      <point x="161" y="779" type="line" smooth="yes"/>
      <point x="248" y="779"/>
      <point x="312" y="742"/>
      <point x="312" y="638" type="curve" smooth="yes"/>
      <point x="312" y="448" type="line" smooth="yes"/>
      <point x="312" y="424"/>
      <point x="313" y="388"/>
      <point x="363" y="388" type="curve" smooth="yes"/>
      <point x="396" y="388" type="line"/>
    </contour>
  </outline>
</glyph>
<glyph name="asciitilde" format="2">
  <advance width="693"/>
  <unicode hex="007E"/>
  <outline>
    <contour>
      <point x="435" y="406" type="curve" smooth="yes"/>
      <point x="465" y="406"/>
      <point x="477" y="439"/>
      <point x="470" y="483" type="curve"/>
      <point x="623" y="483" type="line"/>
      <point x="626" y="463"/>
      <point x="626" y="452"/>
      <point x="626" y="452" type="curve"/>
      <point x="626" y="303"/>
      <point x="570" y="225"/>
      <point x="468" y="225" type="curve" smooth="yes"/>
      <point x="395" y="225"/>
      <point x="347" y="265"/>
      <point x="314" y="293" type="curve"/>
      <point x="299" y="305"/>
      <point x="282" y="320"/>
      <point x="263" y="320" type="curve" smooth="yes"/>
      <point x="236" y="320"/>
      <point x="223" y="292"/>
      <point x="223" y="261" type="curve" smooth="yes"/>
      <point x="223" y="252"/>
      <point x="222" y="241"/>
      <point x="225" y="232" type="curve"/>
      <point x="70" y="232" type="line"/>
      <point x="67" y="252"/>
      <point x="67" y="260"/>
      <point x="67" y="271" type="curve" smooth="yes"/>
      <point x="67" y="414"/>
      <point x="135" y="492"/>
      <point x="244" y="492" type="curve" smooth="yes"/>
      <point x="313" y="492"/>
      <point x="347" y="461"/>
      <point x="378" y="435" type="curve"/>
      <point x="393" y="424"/>
      <point x="413" y="406"/>
    </contour>
  </outline>
</glyph>
<glyph name="exclamdown" format="2">
  <advance width="325"/>
  <unicode hex="00A1"/>
  <outline>
    <contour>
      <point x="161" y="332" type="curve" smooth="yes"/>
      <point x="98" y="332"/>
      <point x="57" y="372"/>
      <point x="57" y="433" type="curve" smooth="yes"/>
      <point x="57" y="496"/>
      <point x="101" y="538"/>
      <point x="163" y="538" type="curve" smooth="yes"/>
      <point x="222" y="538"/>
      <point x="268" y="499"/>
      <point x="268" y="435" type="curve" smooth="yes"/>
      <point x="268" y="371"/>
      <point x="222" y="332"/>
    </contour>
    <contour>
      <point x="77" y="275" type="line"/>
      <point x="246" y="275" type="line"/>
      <point x="257" y="-179" type="line"/>
      <point x="65" y="-179" type="line"/>
    </contour>
  </outline>
</glyph>
<glyph name="cent" format="2">
  <advance width="608"/>
  <unicode hex="00A2"/>
  <outline>
    <contour>
      <point x="306" y="152" type="curve" smooth="yes"/>
      <point x="351" y="152"/>
      <point x="385" y="178"/>
      <point x="390" y="211" type="curve"/>
      <point x="569" y="211" type="line"/>
      <point x="561" y="96"/>
      <point x="490" y="20"/>
      <point x="389" y="1" type="curve"/>
      <point x="389" y="-140" type="line"/>
      <point x="227" y="-140" type="line"/>
      <point x="227" y="1" type="line"/>
      <point x="103" y="28"/>
      <point x="39" y="121"/>
      <point x="39" y="258" type="curve" smooth="yes"/>
      <point x="39" y="408"/>
      <point x="115" y="511"/>
      <point x="226" y="532" type="curve"/>
      <point x="226" y="684" type="line"/>
      <point x="388" y="684" type="line"/>
      <point x="388" y="533" type="line"/>
      <point x="485" y="518"/>
      <point x="556" y="442"/>
      <point x="561" y="321" type="curve"/>
      <point x="390" y="321" type="line"/>
      <point x="382" y="358"/>
      <point x="350" y="384"/>
      <point x="306" y="384" type="curve" smooth="yes"/>
      <point x="235" y="384"/>
      <point x="214" y="315"/>
      <point x="214" y="264" type="curve" smooth="yes"/>
      <point x="214" y="211"/>
      <point x="238" y="152"/>
    </contour>
  </outline>
</glyph>
<glyph name="sterling" format="2">
  <advance width="633"/>
  <unicode hex="00A3"/>
  <outline>
    <contour>
      <point x="298" y="418" type="line"/>
      <point x="504" y="418" type="line"/>
      <point x="504" y="260" type="line"/>
      <point x="298" y="260" type="line"/>
      <point x="298" y="167" type="line"/>
      <point x="594" y="167" type="line"/>
      <point x="594" y="0" type="line"/>
      <point x="40" y="0" type="line"/>
      <point x="40" y="167" type="line"/>
      <point x="121" y="167" type="line"/>
      <point x="121" y="260" type="line"/>
      <point x="39" y="260" type="line"/>
      <point x="39" y="418" type="line"/>
      <point x="121" y="418" type="line"/>
      <point x="121" y="498" type="line" smooth="yes"/>
      <point x="121" y="651"/>
      <point x="236" y="717"/>
      <point x="365" y="717" type="curve" smooth="yes"/>
      <point x="493" y="717"/>
      <point x="580" y="652"/>
      <point x="585" y="494" type="curve"/>
      <point x="422" y="494" type="line"/>
      <point x="422" y="526"/>
      <point x="416" y="567"/>
      <point x="364" y="567" type="curve" smooth="yes"/>
      <point x="313" y="567"/>
      <point x="298" y="528"/>
      <point x="298" y="503" type="curve" smooth="yes"/>
    </contour>
  </outline>
</glyph>
<glyph name="yen" format="2">
  <advance width="772"/>
  <unicode hex="00A5"/>
  <outline>
    <contour>
      <point x="544" y="708" type="line"/>
      <point x="753" y="708" type="line"/>
      <point x="542" y="375" type="line"/>
      <point x="632" y="375" type="line"/>
      <point x="632" y="241" type="line"/>
      <point x="477" y="241" type="line"/>
      <point x="477" y="208" type="line"/>
      <point x="632" y="208" type="line"/>
      <point x="632" y="77" type="line"/>
      <point x="477" y="77" type="line"/>
      <point x="477" y="0" type="line"/>
      <point x="297" y="0" type="line"/>
      <point x="297" y="77" type="line"/>
      <point x="142" y="77" type="line"/>
      <point x="142" y="208" type="line"/>
      <point x="297" y="208" type="line"/>
      <point x="297" y="241" type="line"/>
      <point x="142" y="241" type="line"/>
      <point x="142" y="375" type="line"/>
      <point x="231" y="375" type="line"/>
      <point x="229" y="375" type="line"/>
      <point x="19" y="708" type="line"/>
      <point x="228" y="708" type="line"/>
      <point x="388" y="425" type="line"/>
    </contour>
  </outline>
</glyph>
<glyph name="section" format="2">
  <advance width="581"/>
  <unicode hex="00A7"/>
  <outline>
    <contour>
      <point x="292" y="587" type="curve" smooth="yes"/>
      <point x="265" y="587"/>
      <point x="244" y="577"/>
      <point x="244" y="558" type="curve" smooth="yes"/>
      <point x="244" y="531"/>
      <point x="293" y="524"/>
      <point x="313" y="520" type="curve" smooth="yes"/>
      <point x="366" y="510"/>
      <point x="414" y="504"/>
      <point x="465" y="483" type="curve" smooth="yes"/>
      <point x="518" y="461"/>
      <point x="541" y="421"/>
      <point x="541" y="374" type="curve" smooth="yes"/>
      <point x="541" y="329"/>
      <point x="522" y="286"/>
      <point x="493" y="263" type="curve"/>
      <point x="528" y="235"/>
      <point x="537" y="194"/>
      <point x="537" y="162" type="curve" smooth="yes"/>
      <point x="537" y="106"/>
      <point x="510" y="66"/>
      <point x="473" y="39" type="curve" smooth="yes"/>
      <point x="423" y="3"/>
      <point x="356" y="-8"/>
      <point x="295" y="-8" type="curve" smooth="yes"/>
      <point x="175" y="-8"/>
      <point x="47" y="34"/>
      <point x="39" y="177" type="curve"/>
      <point x="224" y="177" type="line"/>
      <point x="231" y="146"/>
      <point x="260" y="125"/>
      <point x="299" y="125" type="curve" smooth="yes"/>
      <point x="332" y="125"/>
      <point x="350" y="137"/>
      <point x="350" y="156" type="curve" smooth="yes"/>
      <point x="350" y="171"/>
      <point x="340" y="181"/>
      <point x="320" y="184" type="curve" smooth="yes"/>
      <point x="257" y="195"/>
      <point x="164" y="211"/>
      <point x="115" y="244" type="curve" smooth="yes"/>
      <point x="70" y="274"/>
      <point x="52" y="311"/>
      <point x="52" y="354" type="curve" smooth="yes"/>
      <point x="52" y="399"/>
      <point x="75" y="440"/>
      <point x="114" y="457" type="curve"/>
      <point x="77" y="480"/>
      <point x="59" y="523"/>
      <point x="59" y="563" type="curve" smooth="yes"/>
      <point x="60" y="688"/>
      <point x="195" y="717"/>
      <point x="292" y="717" type="curve" smooth="yes"/>
      <point x="414" y="717"/>
      <point x="519" y="671"/>
      <point x="530" y="546" type="curve"/>
      <point x="346" y="546" type="line"/>
      <point x="341" y="575"/>
      <point x="319" y="587"/>
    </contour>
    <contour>
      <point x="261" y="335" type="curve" smooth="yes"/>
      <point x="282" y="328"/>
      <point x="328" y="317"/>
      <point x="355" y="312" type="curve"/>
      <point x="364" y="320"/>
      <point x="370" y="337"/>
      <point x="370" y="348" type="curve" smooth="yes"/>
      <point x="370" y="371"/>
      <point x="340" y="379"/>
      <point x="319" y="385" type="curve" smooth="yes"/>
      <point x="294" y="392"/>
      <point x="266" y="401"/>
      <point x="239" y="404" type="curve"/>
      <point x="228" y="397"/>
      <point x="224" y="384"/>
      <point x="224" y="373" type="curve" smooth="yes"/>
      <point x="224" y="357"/>
      <point x="232" y="345"/>
    </contour>
  </outline>
</glyph>
<glyph name="dieresis" format="2">
  <advance width="637"/>
  <unicode hex="00A8"/>
  <outline>
    <contour>
      <point x="191" y="733" type="curve" smooth="yes"/>
      <point x="240" y="733"/>
      <point x="285" y="699"/>
      <point x="285" y="638" type="curve" smooth="yes"/>
      <point x="285" y="579"/>
      <point x="242" y="547"/>
      <point x="191" y="547" type="curve" smooth="yes"/>
      <point x="142" y="547"/>
      <point x="97" y="579"/>
      <point x="97" y="638" type="curve" smooth="yes"/>
      <point x="97" y="698"/>
      <point x="143" y="733"/>
    </contour>
    <contour>
      <point x="446" y="733" type="curve" smooth="yes"/>
      <point x="495" y="733"/>
      <point x="540" y="699"/>
      <point x="540" y="638" type="curve" smooth="yes"/>
      <point x="540" y="579"/>
      <point x="497" y="547"/>
      <point x="446" y="547" type="curve" smooth="yes"/>
      <point x="397" y="547"/>
      <point x="352" y="579"/>
      <point x="352" y="638" type="curve" smooth="yes"/>
      <point x="352" y="698"/>
      <point x="398" y="733"/>
    </contour>
  </outline>
</glyph>
<glyph name="copyright" format="2">
  <advance width="915"/>
  <unicode hex="00A9"/>
  <outline>
    <contour>
      <point x="456" y="-85" type="curve" smooth="yes"/>
      <point x="204" y="-85"/>
      <point x="39" y="66"/>
      <point x="39" y="318" type="curve" smooth="yes"/>
      <point x="39" y="573"/>
      <point x="209" y="730"/>
      <point x="452" y="730" type="curve" smooth="yes"/>
      <point x="702" y="730"/>
      <point x="876" y="565"/>
      <point x="876" y="313" type="curve" smooth="yes"/>
      <point x="876" y="62"/>
      <point x="704" y="-85"/>
    </contour>
    <contour>
      <point x="462" y="48" type="curve" smooth="yes"/>
      <point x="648" y="48"/>
      <point x="743" y="164"/>
      <point x="743" y="319" type="curve" smooth="yes"/>
      <point x="743" y="472"/>
      <point x="650" y="595"/>
      <point x="465" y="595" type="curve" smooth="yes"/>
      <point x="280" y="595"/>
      <point x="177" y="473"/>
      <point x="177" y="317" type="curve" smooth="yes"/>
      <point x="177" y="166"/>
      <point x="274" y="48"/>
    </contour>
    <contour>
      <point x="462" y="241" type="curve" smooth="yes"/>
      <point x="498" y="241"/>
      <point x="521" y="258"/>
      <point x="524" y="283" type="curve"/>
      <point x="665" y="283" type="line"/>
      <point x="649" y="158"/>
      <point x="569" y="113"/>
      <point x="467" y="113" type="curve" smooth="yes"/>
      <point x="343" y="113"/>
      <point x="255" y="179"/>
      <point x="255" y="319" type="curve" smooth="yes"/>
      <point x="255" y="465"/>
      <point x="352" y="532"/>
      <point x="472" y="532" type="curve" smooth="yes"/>
      <point x="574" y="532"/>
      <point x="652" y="483"/>
      <point x="665" y="360" type="curve"/>
      <point x="523" y="360" type="line"/>
      <point x="522" y="391"/>
      <point x="496" y="404"/>
      <point x="465" y="404" type="curve" smooth="yes"/>
      <point x="404" y="404"/>
      <point x="397" y="357"/>
      <point x="397" y="320" type="curve" smooth="yes"/>
      <point x="397" y="288"/>
      <point x="402" y="241"/>
    </contour>
  </outline>
</glyph>
<glyph name="ordfeminine" format="2">
  <advance width="379"/>
  <unicode hex="00AA"/>
  <outline>
    <contour>
      <point x="235" y="495" type="line"/>
      <point x="212" y="460"/>
      <point x="178" y="448"/>
      <point x="140" y="448" type="curve" smooth="yes"/>
      <point x="72" y="448"/>
      <point x="30" y="487"/>
      <point x="30" y="549" type="curve" smooth="yes"/>
      <point x="30" y="590"/>
      <point x="48" y="616"/>
      <point x="75" y="630" type="curve" smooth="yes"/>
      <point x="106" y="646"/>
      <point x="144" y="648"/>
      <point x="180" y="648" type="curve" smooth="yes"/>
      <point x="232" y="648" type="line"/>
      <point x="231" y="675"/>
      <point x="213" y="689"/>
      <point x="188" y="689" type="curve" smooth="yes"/>
      <point x="173" y="689"/>
      <point x="146" y="684"/>
      <point x="143" y="665" type="curve"/>
      <point x="36" y="665" type="line"/>
      <point x="44" y="742"/>
      <point x="114" y="779"/>
      <point x="192" y="779" type="curve" smooth="yes"/>
      <point x="284" y="779"/>
      <point x="334" y="728"/>
      <point x="334" y="625" type="curve" smooth="yes"/>
      <point x="334" y="453" type="line"/>
      <point x="235" y="453" type="line"/>
    </contour>
    <contour>
      <point x="168" y="582" type="line" smooth="yes"/>
      <point x="148" y="582"/>
      <point x="136" y="573"/>
      <point x="136" y="557" type="curve" smooth="yes"/>
      <point x="136" y="540"/>
      <point x="151" y="530"/>
      <point x="171" y="530" type="curve" smooth="yes"/>
      <point x="200" y="530"/>
      <point x="231" y="551"/>
      <point x="233" y="582" type="curve"/>
    </contour>
  </outline>
</glyph>
<glyph name="guillemotleft" format="2">
  <advance width="622"/>
  <unicode hex="00AB"/>
  <outline>
    <contour>
      <point x="178" y="277" type="line"/>
      <point x="323" y="76" type="line"/>
      <point x="163" y="76" type="line"/>
      <point x="19" y="277" type="line"/>
      <point x="163" y="477" type="line"/>
      <point x="323" y="477" type="line"/>
    </contour>
    <contour>
      <point x="439" y="277" type="line"/>
      <point x="583" y="76" type="line"/>
      <point x="423" y="76" type="line"/>
      <point x="281" y="277" type="line"/>
      <point x="423" y="477" type="line"/>
      <point x="583" y="477" type="line"/>
    </contour>
  </outline>
</glyph>
<glyph name="uni00AD" format="2">
  <advance width="469"/>
  <unicode hex="00AD"/>
  <outline>
    <contour>
      <point x="415" y="218" type="line"/>
      <point x="54" y="218" type="line"/>
      <point x="54" y="372" type="line"/>
      <point x="415" y="372" type="line"/>
    </contour>
  </outline>
</glyph>
<glyph name="registered" format="2">
  <advance width="496"/>
  <unicode hex="00AE"/>
  <outline>
    <contour>
      <point x="249" y="736" type="curve" smooth="yes"/>
      <point x="374" y="736"/>
      <point x="464" y="659"/>
      <point x="464" y="531" type="curve" smooth="yes"/>
      <point x="464" y="402"/>
      <point x="372" y="329"/>
      <point x="247" y="329" type="curve" smooth="yes"/>
      <point x="125" y="329"/>
      <point x="32" y="399"/>
      <point x="32" y="530" type="curve" smooth="yes"/>
      <point x="32" y="660"/>
      <point x="125" y="736"/>
    </contour>
    <contour>
      <point x="250" y="665" type="curve" smooth="yes"/>
      <point x="168" y="665"/>
      <point x="107" y="619"/>
      <point x="107" y="531" type="curve" smooth="yes"/>
      <point x="107" y="444"/>
      <point x="168" y="400"/>
      <point x="248" y="400" type="curve" smooth="yes"/>
      <point x="328" y="400"/>
      <point x="388" y="443"/>
      <point x="388" y="533" type="curve" smooth="yes"/>
      <point x="388" y="619"/>
      <point x="333" y="665"/>
    </contour>
    <contour>
      <point x="305" y="508" type="curve"/>
      <point x="350" y="437" type="line"/>
      <point x="279" y="437" type="line"/>
      <point x="245" y="498" type="line"/>
      <point x="235" y="498" type="line"/>
      <point x="235" y="437" type="line"/>
      <point x="171" y="437" type="line"/>
      <point x="171" y="639" type="line"/>
      <point x="257" y="639" type="line" smooth="yes"/>
      <point x="304" y="639"/>
      <point x="341" y="617"/>
      <point x="341" y="571" type="curve" smooth="yes"/>
      <point x="341" y="543"/>
      <point x="329" y="519"/>
    </contour>
    <contour>
      <point x="235" y="586" type="line"/>
      <point x="235" y="549" type="line"/>
      <point x="259" y="549" type="line" smooth="yes"/>
      <point x="270" y="549"/>
      <point x="280" y="556"/>
      <point x="280" y="570" type="curve" smooth="yes"/>
      <point x="280" y="583"/>
      <point x="271" y="586"/>
      <point x="256" y="586" type="curve" smooth="yes"/>
    </contour>
  </outline>
</glyph>
<glyph name="macron" format="2">
  <advance width="596"/>
  <unicode hex="00AF"/>
  <outline>
    <contour>
      <point x="496" y="616" type="line"/>
      <point x="100" y="616" type="line"/>
      <point x="100" y="769" type="line"/>
      <point x="496" y="769" type="line"/>
    </contour>
  </outline>
</glyph>
<glyph name="degree" format="2">
  <advance width="432"/>
  <unicode hex="00B0"/>
  <outline>
    <contour>
      <point x="218" y="754" type="curve" smooth="yes"/>
      <point x="312" y="754"/>
      <point x="393" y="691"/>
      <point x="393" y="582" type="curve" smooth="yes"/>
      <point x="393" y="473"/>
      <point x="312" y="416"/>
      <point x="216" y="416" type="curve" smooth="yes"/>
      <point x="121" y="416"/>
      <point x="39" y="473"/>
      <point x="39" y="580" type="curve" smooth="yes"/>
      <point x="39" y="689"/>
      <point x="123" y="754"/>
    </contour>
    <contour>
      <point x="218" y="633" type="curve" smooth="yes"/>
      <point x="189" y="633"/>
      <point x="166" y="612"/>
      <point x="166" y="583" type="curve" smooth="yes"/>
      <point x="166" y="554"/>
      <point x="189" y="534"/>
      <point x="218" y="534" type="curve" smooth="yes"/>
      <point x="249" y="534"/>
      <point x="271" y="554"/>
      <point x="271" y="583" type="curve" smooth="yes"/>
      <point x="271" y="612"/>
      <point x="249" y="633"/>
    </contour>
  </outline>
</glyph>
<glyph name="plusminus" format="2">
  <advance width="593"/>
  <unicode hex="00B1"/>
  <outline>
    <contour>
      <point x="375" y="338" type="line"/>
      <point x="375" y="209" type="line"/>
      <point x="218" y="209" type="line"/>
      <point x="218" y="338" type="line"/>
      <point x="54" y="338" type="line"/>
      <point x="54" y="496" type="line"/>
      <point x="218" y="496" type="line"/>
      <point x="218" y="663" type="line"/>
      <point x="375" y="663" type="line"/>
      <point x="375" y="496" type="line"/>
      <point x="539" y="496" type="line"/>
      <point x="539" y="338" type="line"/>
    </contour>
    <contour>
      <point x="54" y="158" type="line"/>
      <point x="539" y="158" type="line"/>
      <point x="539" y="0" type="line"/>
      <point x="54" y="0" type="line"/>
    </contour>
  </outline>
</glyph>
<glyph name="twosuperior" format="2">
  <advance width="389"/>
  <unicode hex="00B2"/>
  <outline>
    <contour>
      <point x="226" y="603" type="curve" smooth="yes"/>
      <point x="226" y="622"/>
      <point x="212" y="632"/>
      <point x="191" y="632" type="curve" smooth="yes"/>
      <point x="166" y="632"/>
      <point x="157" y="617"/>
      <point x="157" y="594" type="curve"/>
      <point x="50" y="594" type="line"/>
      <point x="50" y="687"/>
      <point x="108" y="741"/>
      <point x="198" y="741" type="curve" smooth="yes"/>
      <point x="281" y="741"/>
      <point x="339" y="694"/>
      <point x="339" y="616" type="curve" smooth="yes"/>
      <point x="339" y="541"/>
      <point x="284" y="497"/>
      <point x="232" y="456" type="curve"/>
      <point x="336" y="456" type="line"/>
      <point x="336" y="349" type="line"/>
      <point x="53" y="349" type="line"/>
      <point x="53" y="437" type="line"/>
      <point x="169" y="531" type="line"/>
      <point x="188" y="548"/>
      <point x="226" y="573"/>
    </contour>
  </outline>
</glyph>
<glyph name="threesuperior" format="2">
  <advance width="419"/>
  <unicode hex="00B3"/>
  <outline>
    <contour>
      <point x="321" y="559" type="curve"/>
      <point x="357" y="542"/>
      <point x="368" y="506"/>
      <point x="368" y="469" type="curve" smooth="yes"/>
      <point x="367" y="384"/>
      <point x="288" y="345"/>
      <point x="213" y="345" type="curve" smooth="yes"/>
      <point x="120" y="345"/>
      <point x="53" y="395"/>
      <point x="50" y="486" type="curve"/>
      <point x="163" y="486" type="line"/>
      <point x="163" y="462"/>
      <point x="184" y="453"/>
      <point x="211" y="453" type="curve" smooth="yes"/>
      <point x="228" y="453"/>
      <point x="253" y="457"/>
      <point x="253" y="478" type="curve" smooth="yes"/>
      <point x="253" y="491"/>
      <point x="242" y="502"/>
      <point x="231" y="502" type="curve" smooth="yes"/>
      <point x="168" y="502" type="line"/>
      <point x="168" y="590" type="line"/>
      <point x="213" y="590" type="line" smooth="yes"/>
      <point x="225" y="590"/>
      <point x="240" y="597"/>
      <point x="240" y="612" type="curve" smooth="yes"/>
      <point x="240" y="628"/>
      <point x="224" y="634"/>
      <point x="207" y="634" type="curve" smooth="yes"/>
      <point x="185" y="634"/>
      <point x="172" y="624"/>
      <point x="172" y="607" type="curve"/>
      <point x="60" y="607" type="line"/>
      <point x="65" y="699"/>
      <point x="125" y="741"/>
      <point x="213" y="741" type="curve" smooth="yes"/>
      <point x="288" y="741"/>
      <point x="355" y="711"/>
      <point x="355" y="635" type="curve" smooth="yes"/>
      <point x="355" y="605"/>
      <point x="345" y="575"/>
    </contour>
  </outline>
</glyph>
<glyph name="acute" format="2">
  <advance width="436"/>
  <unicode hex="00B4"/>
  <outline>
    <contour>
      <point x="235" y="577" type="line"/>
      <point x="87" y="577" type="line"/>
      <point x="219" y="769" type="line"/>
      <point x="406" y="769" type="line"/>
    </contour>
  </outline>
</glyph>
<glyph name="paragraph" format="2">
  <advance width="794"/>
  <unicode hex="00B6"/>
  <outline>
    <contour>
      <point x="789" y="708" type="line"/>
      <point x="789" y="540" type="line"/>
      <point x="684" y="540" type="line"/>
      <point x="684" y="0" type="line"/>
      <point x="503" y="0" type="line"/>
      <point x="503" y="540" type="line"/>
      <point x="398" y="540" type="line"/>
      <point x="398" y="0" type="line"/>
      <point x="217" y="0" type="line"/>
      <point x="217" y="315" type="line"/>
      <point x="201" y="315" type="line" smooth="yes"/>
      <point x="110" y="315"/>
      <point x="5" y="375"/>
      <point x="5" y="510" type="curve" smooth="yes"/>
      <point x="5" y="644"/>
      <point x="108" y="708"/>
      <point x="199" y="708" type="curve" smooth="yes"/>
    </contour>
  </outline>
</glyph>
<glyph name="periodcentered" format="2">
  <advance width="308"/>
  <unicode hex="00B7"/>
  <outline>
    <contour>
      <point x="155" y="459" type="curve" smooth="yes"/>
      <point x="214" y="459"/>
      <point x="261" y="418"/>
      <point x="261" y="353" type="curve" smooth="yes"/>
      <point x="261" y="290"/>
      <point x="218" y="249"/>
      <point x="154" y="249" type="curve" smooth="yes"/>
      <point x="90" y="249"/>
      <point x="47" y="291"/>
      <point x="47" y="352" type="curve" smooth="yes"/>
      <point x="47" y="415"/>
      <point x="94" y="459"/>
    </contour>
  </outline>
</glyph>
<glyph name="cedilla" format="2">
  <advance width="622"/>
  <unicode hex="00B8"/>
  <outline>
    <contour>
      <point x="360" y="52" type="line"/>
      <point x="339" y="-28" type="line"/>
      <point x="391" y="-31"/>
      <point x="441" y="-55"/>
      <point x="441" y="-136" type="curve" smooth="yes"/>
      <point x="441" y="-234"/>
      <point x="356" y="-278"/>
      <point x="275" y="-278" type="curve" smooth="yes"/>
      <point x="236" y="-278"/>
      <point x="216" y="-274"/>
      <point x="197" y="-269" type="curve"/>
      <point x="197" y="-167" type="line"/>
      <point x="273" y="-183"/>
      <point x="310" y="-170"/>
      <point x="310" y="-138" type="curve" smooth="yes"/>
      <point x="310" y="-118"/>
      <point x="291" y="-107"/>
      <point x="261" y="-106" type="curve" smooth="yes"/>
      <point x="236" y="-105"/>
      <point x="208" y="-111"/>
      <point x="199" y="-115" type="curve"/>
      <point x="248" y="52" type="line"/>
    </contour>
  </outline>
</glyph>
<glyph name="ordmasculine" format="2">
  <advance width="381"/>
  <unicode hex="00BA"/>
  <outline>
    <contour>
      <point x="192" y="779" type="curve" smooth="yes"/>
      <point x="304" y="779"/>
      <point x="341" y="701"/>
      <point x="341" y="614" type="curve" smooth="yes"/>
      <point x="341" y="525"/>
      <point x="302" y="448"/>
      <point x="190" y="448" type="curve" smooth="yes"/>
      <point x="77" y="448"/>
      <point x="40" y="525"/>
      <point x="40" y="612" type="curve" smooth="yes"/>
      <point x="40" y="702"/>
      <point x="80" y="779"/>
    </contour>
    <contour>
      <point x="190" y="538" type="curve" smooth="yes"/>
      <point x="236" y="538"/>
      <point x="242" y="583"/>
      <point x="242" y="614" type="curve" smooth="yes"/>
      <point x="242" y="643"/>
      <point x="237" y="689"/>
      <point x="192" y="689" type="curve" smooth="yes"/>
      <point x="147" y="689"/>
      <point x="139" y="646"/>
      <point x="139" y="609" type="curve" smooth="yes"/>
      <point x="139" y="583"/>
      <point x="143" y="538"/>
    </contour>
  </outline>
</glyph>
<glyph name="guillemotright" format="2">
  <advance width="622"/>
  <unicode hex="00BB"/>
  <outline>
    <contour>
      <point x="445" y="276" type="line"/>
      <point x="301" y="477" type="line"/>
      <point x="459" y="477" type="line"/>
      <point x="603" y="276" type="line"/>
      <point x="459" y="76" type="line"/>
      <point x="301" y="76" type="line"/>
    </contour>
    <contour>
      <point x="185" y="276" type="line"/>
      <point x="39" y="477" type="line"/>
      <point x="197" y="477" type="line"/>
      <point x="340" y="276" type="line"/>
      <point x="197" y="76" type="line"/>
      <point x="39" y="76" type="line"/>
    </contour>
  </outline>
</glyph>
<glyph name="questiondown" format="2">
  <advance width="541"/>
  <unicode hex="00BF"/>
  <outline>
    <contour>
      <point x="280" y="328" type="curve" smooth="yes"/>
      <point x="217" y="328"/>
      <point x="176" y="367"/>
      <point x="176" y="431" type="curve" smooth="yes"/>
      <point x="176" y="494"/>
      <point x="216" y="538"/>
      <point x="280" y="538" type="curve" smooth="yes"/>
      <point x="344" y="538"/>
      <point x="387" y="495"/>
      <point x="387" y="431" type="curve" smooth="yes"/>
      <point x="387" y="366"/>
      <point x="344" y="328"/>
    </contour>
    <contour>
      <point x="366" y="281" type="line"/>
      <point x="367" y="270"/>
      <point x="368" y="262"/>
      <point x="368" y="252" type="curve" smooth="yes"/>
      <point x="368" y="186"/>
      <point x="328" y="147"/>
      <point x="277" y="107" type="curve" smooth="yes"/>
      <point x="256" y="90"/>
      <point x="214" y="65"/>
      <point x="214" y="28" type="curve" smooth="yes"/>
      <point x="214" y="-5"/>
      <point x="248" y="-22"/>
      <point x="280" y="-22" type="curve" smooth="yes"/>
      <point x="323" y="-22"/>
      <point x="353" y="-3"/>
      <point x="353" y="44" type="curve"/>
      <point x="524" y="44" type="line"/>
      <point x="524" y="19" type="line" smooth="yes"/>
      <point x="524" y="-129"/>
      <point x="404" y="-188"/>
      <point x="276" y="-188" type="curve" smooth="yes"/>
      <point x="148" y="-188"/>
      <point x="35" y="-129"/>
      <point x="35" y="9" type="curve" smooth="yes"/>
      <point x="35" y="118"/>
      <point x="119" y="150"/>
      <point x="181" y="226" type="curve" smooth="yes"/>
      <point x="194" y="241"/>
      <point x="200" y="260"/>
      <point x="201" y="281" type="curve"/>
    </contour>
  </outline>
</glyph>
<glyph name="Aacute" format="2">
  <advance width="739"/>
  <unicode hex="00C1"/>
  <outline>
    <contour>
      <point x="189" y="0" type="line"/>
      <point x="-5" y="0" type="line"/>
      <point x="279" y="708" type="line"/>
      <point x="463" y="708" type="line"/>
      <point x="744" y="0" type="line"/>
      <point x="549" y="0" type="line"/>
      <point x="514" y="100" type="line"/>
      <point x="225" y="100" type="line"/>
    </contour>
    <contour>
      <point x="457" y="263" type="line"/>
      <point x="371" y="506" type="line"/>
      <point x="282" y="263" type="line"/>
    </contour>
    <contour>
      <point x="418" y="758" type="line"/>
      <point x="270" y="758" type="line"/>
      <point x="402" y="950" type="line"/>
      <point x="589" y="950" type="line"/>
    </contour>
  </outline>
</glyph>
<glyph name="Atilde" format="2">
  <advance width="739"/>
  <unicode hex="00C3"/>
  <outline>
    <contour>
      <point x="189" y="0" type="line"/>
      <point x="-5" y="0" type="line"/>
      <point x="279" y="708" type="line"/>
      <point x="463" y="708" type="line"/>
      <point x="744" y="0" type="line"/>
      <point x="549" y="0" type="line"/>
      <point x="514" y="100" type="line"/>
      <point x="225" y="100" type="line"/>
    </contour>
    <contour>
      <point x="457" y="263" type="line"/>
      <point x="371" y="506" type="line"/>
      <point x="282" y="263" type="line"/>
    </contour>
    <contour>
      <point x="443" y="888" type="curve" smooth="yes"/>
      <point x="470" y="888"/>
      <point x="471" y="923"/>
      <point x="468" y="943" type="curve"/>
      <point x="582" y="943" type="line"/>
      <point x="583" y="934"/>
      <point x="584" y="926"/>
      <point x="584" y="911" type="curve" smooth="yes"/>
      <point x="584" y="835"/>
      <point x="558" y="758"/>
      <point x="470" y="758" type="curve" smooth="yes"/>
      <point x="387" y="758"/>
      <point x="347" y="826"/>
      <point x="312" y="826" type="curve" smooth="yes"/>
      <point x="285" y="826"/>
      <point x="280" y="783"/>
      <point x="286" y="763" type="curve"/>
      <point x="171" y="763" type="line"/>
      <point x="170" y="772"/>
      <point x="169" y="780"/>
      <point x="169" y="794" type="curve" smooth="yes"/>
      <point x="169" y="876"/>
      <point x="206" y="950"/>
      <point x="305" y="950" type="curve" smooth="yes"/>
      <point x="376" y="950"/>
      <point x="406" y="888"/>
    </contour>
  </outline>
</glyph>
<glyph name="Adieresis" format="2">
  <advance width="739"/>
  <unicode hex="00C4"/>
  <outline>
    <contour>
      <point x="189" y="0" type="line"/>
      <point x="-5" y="0" type="line"/>
      <point x="279" y="708" type="line"/>
      <point x="463" y="708" type="line"/>
      <point x="744" y="0" type="line"/>
      <point x="549" y="0" type="line"/>
      <point x="514" y="100" type="line"/>
      <point x="225" y="100" type="line"/>
    </contour>
    <contour>
      <point x="457" y="263" type="line"/>
      <point x="371" y="506" type="line"/>
      <point x="282" y="263" type="line"/>
    </contour>
    <contour>
      <point x="248" y="935" type="curve" smooth="yes"/>
      <point x="297" y="935"/>
      <point x="342" y="901"/>
      <point x="342" y="840" type="curve" smooth="yes"/>
      <point x="342" y="781"/>
      <point x="299" y="749"/>
      <point x="248" y="749" type="curve" smooth="yes"/>
      <point x="199" y="749"/>
      <point x="154" y="781"/>
      <point x="154" y="840" type="curve" smooth="yes"/>
      <point x="154" y="900"/>
      <point x="200" y="935"/>
    </contour>
    <contour>
      <point x="503" y="935" type="curve" smooth="yes"/>
      <point x="552" y="935"/>
      <point x="597" y="901"/>
      <point x="597" y="840" type="curve" smooth="yes"/>
      <point x="597" y="781"/>
      <point x="554" y="749"/>
      <point x="503" y="749" type="curve" smooth="yes"/>
      <point x="454" y="749"/>
      <point x="409" y="781"/>
      <point x="409" y="840" type="curve" smooth="yes"/>
      <point x="409" y="900"/>
      <point x="455" y="935"/>
    </contour>
  </outline>
</glyph>
<glyph name="Aring" format="2">
  <advance width="739"/>
  <unicode hex="00C5"/>
  <outline>
    <contour>
      <point x="189" y="0" type="line"/>
      <point x="-5" y="0" type="line"/>
      <point x="279" y="708" type="line"/>
      <point x="463" y="708" type="line"/>
      <point x="744" y="0" type="line"/>
      <point x="549" y="0" type="line"/>
      <point x="514" y="100" type="line"/>
      <point x="225" y="100" type="line"/>
    </contour>
    <contour>
      <point x="457" y="263" type="line"/>
      <point x="371" y="506" type="line"/>
      <point x="282" y="263" type="line"/>
    </contour>
    <contour>
      <point x="370" y="968" type="curve" smooth="yes"/>
      <point x="445" y="968"/>
      <point x="502" y="918"/>
      <point x="502" y="845" type="curve" smooth="yes"/>
      <point x="502" y="773"/>
      <point x="448" y="724"/>
      <point x="370" y="724" type="curve" smooth="yes"/>
      <point x="292" y="724"/>
      <point x="236" y="774"/>
      <point x="236" y="845" type="curve" smooth="yes"/>
      <point x="236" y="917"/>
      <point x="295" y="968"/>
    </contour>
    <contour>
      <point x="369" y="882" type="curve" smooth="yes"/>
      <point x="348" y="882"/>
      <point x="330" y="867"/>
      <point x="330" y="846" type="curve" smooth="yes"/>
      <point x="330" y="825"/>
      <point x="345" y="810"/>
      <point x="369" y="810" type="curve" smooth="yes"/>
      <point x="393" y="810"/>
      <point x="409" y="825"/>
      <point x="409" y="846" type="curve" smooth="yes"/>
      <point x="409" y="867"/>
      <point x="392" y="882"/>
    </contour>
  </outline>
</glyph>
<glyph name="AE" format="2">
  <advance width="942"/>
  <unicode hex="00C6"/>
  <outline>
    <contour>
      <point x="187" y="0" type="line"/>
      <point x="-7" y="0" type="line"/>
      <point x="290" y="708" type="line"/>
      <point x="914" y="708" type="line"/>
      <point x="914" y="540" type="line"/>
      <point x="596" y="540" type="line"/>
      <point x="596" y="432" type="line"/>
      <point x="852" y="432" type="line"/>
      <point x="852" y="272" type="line"/>
      <point x="596" y="272" type="line"/>
      <point x="596" y="167" type="line"/>
      <point x="914" y="167" type="line"/>
      <point x="914" y="0" type="line"/>
      <point x="415" y="0" type="line"/>
      <point x="415" y="100" type="line"/>
      <point x="229" y="100" type="line"/>
    </contour>
    <contour>
      <point x="415" y="540" type="line"/>
      <point x="396" y="540" type="line"/>
      <point x="288" y="263" type="line"/>
      <point x="415" y="263" type="line"/>
    </contour>
  </outline>
</glyph>
<glyph name="Ccedilla" format="2">
  <advance width="727"/>
  <unicode hex="00C7"/>
  <outline>
    <contour>
      <point x="215" y="358" type="curve" smooth="yes"/>
      <point x="215" y="265"/>
      <point x="259" y="163"/>
      <point x="386" y="163" type="curve" smooth="yes"/>
      <point x="461" y="163"/>
      <point x="509" y="199"/>
      <point x="524" y="263" type="curve"/>
      <point x="699" y="263" type="line"/>
      <point x="686" y="105"/>
      <point x="571" y="12"/>
      <point x="433" y="-4" type="curve"/>
      <point x="427" y="-28" type="line"/>
      <point x="478" y="-31"/>
      <point x="528" y="-55"/>
      <point x="528" y="-136" type="curve" smooth="yes"/>
      <point x="528" y="-234"/>
      <point x="443" y="-278"/>
      <point x="362" y="-278" type="curve" smooth="yes"/>
      <point x="323" y="-278"/>
      <point x="303" y="-274"/>
      <point x="284" y="-269" type="curve"/>
      <point x="284" y="-167" type="line"/>
      <point x="360" y="-183"/>
      <point x="397" y="-170"/>
      <point x="397" y="-140" type="curve" smooth="yes"/>
      <point x="397" y="-92"/>
      <point x="306" y="-107"/>
      <point x="286" y="-115" type="curve"/>
      <point x="318" y="-4" type="line"/>
      <point x="136" y="20"/>
      <point x="28" y="151"/>
      <point x="28" y="350" type="curve" smooth="yes"/>
      <point x="28" y="576"/>
      <point x="167" y="717"/>
      <point x="377" y="717" type="curve" smooth="yes"/>
      <point x="543" y="717"/>
      <point x="675" y="628"/>
      <point x="691" y="445" type="curve"/>
      <point x="520" y="445" type="line"/>
      <point x="504" y="509"/>
      <point x="461" y="546"/>
      <point x="383" y="546" type="curve" smooth="yes"/>
      <point x="257" y="546"/>
      <point x="215" y="449"/>
    </contour>
  </outline>
</glyph>
<glyph name="Eacute" format="2">
  <advance width="629"/>
  <unicode hex="00C9"/>
  <outline>
    <contour>
      <point x="601" y="708" type="line"/>
      <point x="601" y="540" type="line"/>
      <point x="248" y="540" type="line"/>
      <point x="248" y="432" type="line"/>
      <point x="539" y="432" type="line"/>
      <point x="539" y="272" type="line"/>
      <point x="248" y="272" type="line"/>
      <point x="248" y="167" type="line"/>
      <point x="601" y="167" type="line"/>
      <point x="601" y="0" type="line"/>
      <point x="67" y="0" type="line"/>
      <point x="67" y="708" type="line"/>
    </contour>
    <contour>
      <point x="353" y="758" type="line"/>
      <point x="205" y="758" type="line"/>
      <point x="337" y="950" type="line"/>
      <point x="524" y="950" type="line"/>
    </contour>
  </outline>
</glyph>
<glyph name="Ecircumflex" format="2">
  <advance width="629"/>
  <unicode hex="00CA"/>
  <outline>
    <contour>
      <point x="601" y="708" type="line"/>
      <point x="601" y="540" type="line"/>
      <point x="248" y="540" type="line"/>
      <point x="248" y="432" type="line"/>
      <point x="539" y="432" type="line"/>
      <point x="539" y="272" type="line"/>
      <point x="248" y="272" type="line"/>
      <point x="248" y="167" type="line"/>
      <point x="601" y="167" type="line"/>
      <point x="601" y="0" type="line"/>
      <point x="67" y="0" type="line"/>
      <point x="67" y="708" type="line"/>
    </contour>
    <contour>
      <point x="388" y="950" type="line"/>
      <point x="557" y="758" type="line"/>
      <point x="391" y="758" type="line"/>
      <point x="330" y="842" type="line"/>
      <point x="272" y="758" type="line"/>
      <point x="106" y="758" type="line"/>
      <point x="272" y="950" type="line"/>
    </contour>
  </outline>
</glyph>
<glyph name="Edieresis" format="2">
  <advance width="629"/>
  <unicode hex="00CB"/>
  <outline>
    <contour>
      <point x="601" y="708" type="line"/>
      <point x="601" y="540" type="line"/>
      <point x="248" y="540" type="line"/>
      <point x="248" y="432" type="line"/>
      <point x="539" y="432" type="line"/>
      <point x="539" y="272" type="line"/>
      <point x="248" y="272" type="line"/>
      <point x="248" y="167" type="line"/>
      <point x="601" y="167" type="line"/>
      <point x="601" y="0" type="line"/>
      <point x="67" y="0" type="line"/>
      <point x="67" y="708" type="line"/>
    </contour>
    <contour>
      <point x="206" y="944" type="curve" smooth="yes"/>
      <point x="255" y="944"/>
      <point x="301" y="910"/>
      <point x="301" y="848" type="curve" smooth="yes"/>
      <point x="301" y="788"/>
      <point x="257" y="757"/>
      <point x="206" y="757" type="curve" smooth="yes"/>
      <point x="155" y="757"/>
      <point x="111" y="788"/>
      <point x="111" y="848" type="curve" smooth="yes"/>
      <point x="111" y="909"/>
      <point x="156" y="944"/>
    </contour>
    <contour>
      <point x="465" y="944" type="curve" smooth="yes"/>
      <point x="514" y="944"/>
      <point x="558" y="910"/>
      <point x="558" y="849" type="curve" smooth="yes"/>
      <point x="558" y="788"/>
      <point x="516" y="757"/>
      <point x="465" y="757" type="curve" smooth="yes"/>
      <point x="415" y="757"/>
      <point x="368" y="788"/>
      <point x="368" y="848" type="curve" smooth="yes"/>
      <point x="368" y="909"/>
      <point x="415" y="944"/>
    </contour>
  </outline>
</glyph>
<glyph name="Igrave" format="2">
  <advance width="315"/>
  <unicode hex="00CC"/>
  <outline>
    <contour>
      <point x="248" y="0" type="line"/>
      <point x="67" y="0" type="line"/>
      <point x="67" y="708" type="line"/>
      <point x="248" y="708" type="line"/>
    </contour>
    <contour>
      <point x="132" y="758" type="line"/>
      <point x="-39" y="950" type="line"/>
      <point x="148" y="950" type="line"/>
      <point x="280" y="758" type="line"/>
    </contour>
  </outline>
</glyph>
<glyph name="Iacute" format="2">
  <advance width="315"/>
  <unicode hex="00CD"/>
  <outline>
    <contour>
      <point x="248" y="0" type="line"/>
      <point x="67" y="0" type="line"/>
      <point x="67" y="708" type="line"/>
      <point x="248" y="708" type="line"/>
    </contour>
    <contour>
      <point x="201" y="758" type="line"/>
      <point x="53" y="758" type="line"/>
      <point x="185" y="950" type="line"/>
      <point x="372" y="950" type="line"/>
    </contour>
  </outline>
</glyph>
<glyph name="Icircumflex" format="2">
  <advance width="315"/>
  <unicode hex="00CE"/>
  <outline>
    <contour>
      <point x="248" y="0" type="line"/>
      <point x="67" y="0" type="line"/>
      <point x="67" y="708" type="line"/>
      <point x="248" y="708" type="line"/>
    </contour>
    <contour>
      <point x="214" y="950" type="line"/>
      <point x="383" y="758" type="line"/>
      <point x="217" y="758" type="line"/>
      <point x="156" y="842" type="line"/>
      <point x="98" y="758" type="line"/>
      <point x="-68" y="758" type="line"/>
      <point x="98" y="950" type="line"/>
    </contour>
  </outline>
</glyph>
<glyph name="Idieresis" format="2">
  <advance width="315"/>
  <unicode hex="00CF"/>
  <outline>
    <contour>
      <point x="39" y="944" type="curve" smooth="yes"/>
      <point x="88" y="944"/>
      <point x="134" y="910"/>
      <point x="134" y="848" type="curve" smooth="yes"/>
      <point x="134" y="788"/>
      <point x="90" y="757"/>
      <point x="39" y="757" type="curve" smooth="yes"/>
      <point x="-12" y="757"/>
      <point x="-56" y="788"/>
      <point x="-56" y="848" type="curve" smooth="yes"/>
      <point x="-56" y="909"/>
      <point x="-11" y="944"/>
    </contour>
    <contour>
      <point x="278" y="944" type="curve" smooth="yes"/>
      <point x="327" y="944"/>
      <point x="371" y="910"/>
      <point x="371" y="849" type="curve" smooth="yes"/>
      <point x="371" y="788"/>
      <point x="329" y="757"/>
      <point x="278" y="757" type="curve" smooth="yes"/>
      <point x="228" y="757"/>
      <point x="181" y="788"/>
      <point x="181" y="848" type="curve" smooth="yes"/>
      <point x="181" y="909"/>
      <point x="228" y="944"/>
    </contour>
    <contour>
      <point x="248" y="0" type="line"/>
      <point x="67" y="0" type="line"/>
      <point x="67" y="708" type="line"/>
      <point x="248" y="708" type="line"/>
    </contour>
  </outline>
</glyph>
<glyph name="Eth" format="2">
  <advance width="737"/>
  <unicode hex="00D0"/>
  <outline>
    <contour>
      <point x="67" y="0" type="line"/>
      <point x="67" y="278" type="line"/>
      <point x="-15" y="278" type="line"/>
      <point x="-15" y="430" type="line"/>
      <point x="67" y="430" type="line"/>
      <point x="67" y="708" type="line"/>
      <point x="344" y="708" type="line" smooth="yes"/>
      <point x="571" y="708"/>
      <point x="708" y="586"/>
      <point x="708" y="349" type="curve" smooth="yes"/>
      <point x="708" y="120"/>
      <point x="579" y="0"/>
      <point x="346" y="0" type="curve" smooth="yes"/>
    </contour>
    <contour>
      <point x="375" y="278" type="line"/>
      <point x="248" y="278" type="line"/>
      <point x="248" y="167" type="line"/>
      <point x="348" y="167" type="line" smooth="yes"/>
      <point x="473" y="167"/>
      <point x="525" y="232"/>
      <point x="525" y="353" type="curve" smooth="yes"/>
      <point x="525" y="476"/>
      <point x="470" y="540"/>
      <point x="341" y="540" type="curve" smooth="yes"/>
      <point x="248" y="540" type="line"/>
      <point x="248" y="430" type="line"/>
      <point x="375" y="430" type="line"/>
    </contour>
  </outline>
</glyph>
<glyph name="Ntilde" format="2">
  <advance width="783"/>
  <unicode hex="00D1"/>
  <outline>
    <contour>
      <point x="236" y="708" type="line"/>
      <point x="535" y="303" type="line"/>
      <point x="535" y="708" type="line"/>
      <point x="716" y="708" type="line"/>
      <point x="716" y="0" type="line"/>
      <point x="552" y="0" type="line"/>
      <point x="248" y="399" type="line"/>
      <point x="248" y="0" type="line"/>
      <point x="67" y="0" type="line"/>
      <point x="67" y="708" type="line"/>
    </contour>
    <contour>
      <point x="465" y="888" type="curve" smooth="yes"/>
      <point x="492" y="888"/>
      <point x="493" y="923"/>
      <point x="490" y="943" type="curve"/>
      <point x="604" y="943" type="line"/>
      <point x="605" y="934"/>
      <point x="606" y="926"/>
      <point x="606" y="911" type="curve" smooth="yes"/>
      <point x="606" y="835"/>
      <point x="580" y="758"/>
      <point x="492" y="758" type="curve" smooth="yes"/>
      <point x="409" y="758"/>
      <point x="369" y="826"/>
      <point x="334" y="826" type="curve" smooth="yes"/>
      <point x="307" y="826"/>
      <point x="302" y="783"/>
      <point x="308" y="763" type="curve"/>
      <point x="193" y="763" type="line"/>
      <point x="192" y="772"/>
      <point x="191" y="780"/>
      <point x="191" y="794" type="curve" smooth="yes"/>
      <point x="191" y="876"/>
      <point x="228" y="950"/>
      <point x="327" y="950" type="curve" smooth="yes"/>
      <point x="398" y="950"/>
      <point x="428" y="888"/>
    </contour>
  </outline>
</glyph>
<glyph name="Otilde" format="2">
  <advance width="781"/>
  <unicode hex="00D5"/>
  <outline>
    <contour>
      <point x="392" y="717" type="curve" smooth="yes"/>
      <point x="605" y="717"/>
      <point x="753" y="577"/>
      <point x="753" y="358" type="curve" smooth="yes"/>
      <point x="753" y="141"/>
      <point x="607" y="-8"/>
      <point x="387" y="-8" type="curve" smooth="yes"/>
      <point x="170" y="-8"/>
      <point x="28" y="136"/>
      <point x="28" y="353" type="curve" smooth="yes"/>
      <point x="28" y="574"/>
      <point x="176" y="717"/>
    </contour>
    <contour>
      <point x="213" y="354" type="curve" smooth="yes"/>
      <point x="213" y="260"/>
      <point x="266" y="163"/>
      <point x="391" y="163" type="curve" smooth="yes"/>
      <point x="519" y="163"/>
      <point x="568" y="266"/>
      <point x="568" y="353" type="curve" smooth="yes"/>
      <point x="568" y="437"/>
      <point x="522" y="546"/>
      <point x="390" y="546" type="curve" smooth="yes"/>
      <point x="264" y="546"/>
      <point x="213" y="447"/>
    </contour>
    <contour>
      <point x="462" y="888" type="curve" smooth="yes"/>
      <point x="489" y="888"/>
      <point x="490" y="923"/>
      <point x="487" y="943" type="curve"/>
      <point x="601" y="943" type="line"/>
      <point x="602" y="934"/>
      <point x="603" y="926"/>
      <point x="603" y="911" type="curve" smooth="yes"/>
      <point x="603" y="835"/>
      <point x="577" y="758"/>
      <point x="489" y="758" type="curve" smooth="yes"/>
      <point x="406" y="758"/>
      <point x="366" y="826"/>
      <point x="331" y="826" type="curve" smooth="yes"/>
      <point x="304" y="826"/>
      <point x="299" y="783"/>
      <point x="305" y="763" type="curve"/>
      <point x="190" y="763" type="line"/>
      <point x="189" y="772"/>
      <point x="188" y="780"/>
      <point x="188" y="794" type="curve" smooth="yes"/>
      <point x="188" y="876"/>
      <point x="225" y="950"/>
      <point x="324" y="950" type="curve" smooth="yes"/>
      <point x="395" y="950"/>
      <point x="425" y="888"/>
    </contour>
  </outline>
</glyph>
<glyph name="Odieresis" format="2">
  <advance width="781"/>
  <unicode hex="00D6"/>
  <outline>
    <contour>
      <point x="392" y="717" type="curve" smooth="yes"/>
      <point x="605" y="717"/>
      <point x="753" y="577"/>
      <point x="753" y="358" type="curve" smooth="yes"/>
      <point x="753" y="141"/>
      <point x="607" y="-8"/>
      <point x="387" y="-8" type="curve" smooth="yes"/>
      <point x="170" y="-8"/>
      <point x="28" y="136"/>
      <point x="28" y="353" type="curve" smooth="yes"/>
      <point x="28" y="574"/>
      <point x="176" y="717"/>
    </contour>
    <contour>
      <point x="213" y="354" type="curve" smooth="yes"/>
      <point x="213" y="260"/>
      <point x="266" y="163"/>
      <point x="391" y="163" type="curve" smooth="yes"/>
      <point x="519" y="163"/>
      <point x="568" y="266"/>
      <point x="568" y="353" type="curve" smooth="yes"/>
      <point x="568" y="437"/>
      <point x="522" y="546"/>
      <point x="390" y="546" type="curve" smooth="yes"/>
      <point x="264" y="546"/>
      <point x="213" y="447"/>
    </contour>
    <contour>
      <point x="265" y="944" type="curve" smooth="yes"/>
      <point x="314" y="944"/>
      <point x="360" y="910"/>
      <point x="360" y="848" type="curve" smooth="yes"/>
      <point x="360" y="788"/>
      <point x="316" y="757"/>
      <point x="265" y="757" type="curve" smooth="yes"/>
      <point x="214" y="757"/>
      <point x="170" y="788"/>
      <point x="170" y="848" type="curve" smooth="yes"/>
      <point x="170" y="909"/>
      <point x="215" y="944"/>
    </contour>
    <contour>
      <point x="524" y="944" type="curve" smooth="yes"/>
      <point x="573" y="944"/>
      <point x="617" y="910"/>
      <point x="617" y="849" type="curve" smooth="yes"/>
      <point x="617" y="788"/>
      <point x="575" y="757"/>
      <point x="524" y="757" type="curve" smooth="yes"/>
      <point x="474" y="757"/>
      <point x="427" y="788"/>
      <point x="427" y="848" type="curve" smooth="yes"/>
      <point x="427" y="909"/>
      <point x="474" y="944"/>
    </contour>
  </outline>
</glyph>
<glyph name="multiply" format="2">
  <advance width="635"/>
  <unicode hex="00D7"/>
  <outline>
    <contour>
      <point x="318" y="257" type="line"/>
      <point x="160" y="96" type="line"/>
      <point x="50" y="206" type="line"/>
      <point x="208" y="361" type="line"/>
      <point x="50" y="515" type="line"/>
      <point x="161" y="622" type="line"/>
      <point x="318" y="466" type="line"/>
      <point x="471" y="622" type="line"/>
      <point x="584" y="516" type="line"/>
      <point x="425" y="361" type="line"/>
      <point x="585" y="207" type="line"/>
      <point x="474" y="96" type="line"/>
    </contour>
  </outline>
</glyph>
<glyph name="Oslash" format="2">
  <advance width="781"/>
  <unicode hex="00D8"/>
  <outline>
    <contour>
      <point x="315" y="-112" type="line"/>
      <point x="142" y="-112" type="line"/>
      <point x="195" y="40" type="line"/>
      <point x="90" y="100"/>
      <point x="28" y="210"/>
      <point x="28" y="352" type="curve" smooth="yes"/>
      <point x="28" y="572"/>
      <point x="176" y="717"/>
      <point x="387" y="717" type="curve" smooth="yes"/>
      <point x="404" y="717"/>
      <point x="416" y="716"/>
      <point x="428" y="715" type="curve"/>
      <point x="464" y="821" type="line"/>
      <point x="638" y="821" type="line"/>
      <point x="586" y="669" type="line"/>
      <point x="690" y="609"/>
      <point x="753" y="501"/>
      <point x="753" y="358" type="curve" smooth="yes"/>
      <point x="753" y="142"/>
      <point x="608" y="-8"/>
      <point x="391" y="-8" type="curve" smooth="yes"/>
      <point x="376" y="-8"/>
      <point x="364" y="-8"/>
      <point x="352" y="-7" type="curve"/>
    </contour>
    <contour>
      <point x="265" y="213" type="curve"/>
      <point x="379" y="545" type="line"/>
      <point x="274" y="540"/>
      <point x="213" y="461"/>
      <point x="213" y="354" type="curve" smooth="yes"/>
      <point x="213" y="297"/>
      <point x="230" y="249"/>
    </contour>
    <contour>
      <point x="516" y="496" type="curve"/>
      <point x="400" y="163" type="line"/>
      <point x="508" y="166"/>
      <point x="568" y="251"/>
      <point x="568" y="354" type="curve" smooth="yes"/>
      <point x="568" y="409"/>
      <point x="551" y="461"/>
    </contour>
  </outline>
</glyph>
<glyph name="Ugrave" format="2">
  <advance width="745"/>
  <unicode hex="00D9"/>
  <outline>
    <contour>
      <point x="374" y="-8" type="curve" smooth="yes"/>
      <point x="161" y="-8"/>
      <point x="62" y="106"/>
      <point x="62" y="326" type="curve" smooth="yes"/>
      <point x="62" y="708" type="line"/>
      <point x="243" y="708" type="line"/>
      <point x="243" y="315" type="line" smooth="yes"/>
      <point x="243" y="238"/>
      <point x="272" y="161"/>
      <point x="376" y="161" type="curve" smooth="yes"/>
      <point x="481" y="161"/>
      <point x="502" y="240"/>
      <point x="502" y="315" type="curve" smooth="yes"/>
      <point x="502" y="708" type="line"/>
      <point x="683" y="708" type="line"/>
      <point x="683" y="326" type="line" smooth="yes"/>
      <point x="683" y="107"/>
      <point x="587" y="-8"/>
    </contour>
    <contour>
      <point x="334" y="758" type="line"/>
      <point x="163" y="950" type="line"/>
      <point x="350" y="950" type="line"/>
      <point x="482" y="758" type="line"/>
    </contour>
  </outline>
</glyph>
<glyph name="Uacute" format="2">
  <advance width="745"/>
  <unicode hex="00DA"/>
  <outline>
    <contour>
      <point x="374" y="-8" type="curve" smooth="yes"/>
      <point x="161" y="-8"/>
      <point x="62" y="106"/>
      <point x="62" y="326" type="curve" smooth="yes"/>
      <point x="62" y="708" type="line"/>
      <point x="243" y="708" type="line"/>
      <point x="243" y="315" type="line" smooth="yes"/>
      <point x="243" y="238"/>
      <point x="272" y="161"/>
      <point x="376" y="161" type="curve" smooth="yes"/>
      <point x="481" y="161"/>
      <point x="502" y="240"/>
      <point x="502" y="315" type="curve" smooth="yes"/>
      <point x="502" y="708" type="line"/>
      <point x="683" y="708" type="line"/>
      <point x="683" y="326" type="line" smooth="yes"/>
      <point x="683" y="107"/>
      <point x="587" y="-8"/>
    </contour>
    <contour>
      <point x="401" y="758" type="line"/>
      <point x="253" y="758" type="line"/>
      <point x="385" y="950" type="line"/>
      <point x="572" y="950" type="line"/>
    </contour>
  </outline>
</glyph>
<glyph name="Udieresis" format="2">
  <advance width="747"/>
  <unicode hex="00DC"/>
  <outline>
    <contour>
      <point x="245" y="933" type="curve" smooth="yes"/>
      <point x="294" y="933"/>
      <point x="339" y="899"/>
      <point x="339" y="838" type="curve" smooth="yes"/>
      <point x="339" y="779"/>
      <point x="296" y="747"/>
      <point x="245" y="747" type="curve" smooth="yes"/>
      <point x="196" y="747"/>
      <point x="151" y="779"/>
      <point x="151" y="838" type="curve" smooth="yes"/>
      <point x="151" y="898"/>
      <point x="197" y="933"/>
    </contour>
    <contour>
      <point x="500" y="933" type="curve" smooth="yes"/>
      <point x="549" y="933"/>
      <point x="594" y="899"/>
      <point x="594" y="838" type="curve" smooth="yes"/>
      <point x="594" y="779"/>
      <point x="551" y="747"/>
      <point x="500" y="747" type="curve" smooth="yes"/>
      <point x="451" y="747"/>
      <point x="406" y="779"/>
      <point x="406" y="838" type="curve" smooth="yes"/>
      <point x="406" y="898"/>
      <point x="452" y="933"/>
    </contour>
    <contour>
      <point x="375" y="-8" type="curve" smooth="yes"/>
      <point x="162" y="-8"/>
      <point x="62" y="106"/>
      <point x="62" y="326" type="curve" smooth="yes"/>
      <point x="62" y="708" type="line"/>
      <point x="244" y="708" type="line"/>
      <point x="244" y="315" type="line" smooth="yes"/>
      <point x="244" y="238"/>
      <point x="273" y="161"/>
      <point x="377" y="161" type="curve" smooth="yes"/>
      <point x="482" y="161"/>
      <point x="503" y="240"/>
      <point x="503" y="315" type="curve" smooth="yes"/>
      <point x="503" y="708" type="line"/>
      <point x="685" y="708" type="line"/>
      <point x="685" y="326" type="line" smooth="yes"/>
      <point x="685" y="107"/>
      <point x="588" y="-8"/>
    </contour>
  </outline>
</glyph>
<glyph name="Yacute" format="2">
  <advance width="727"/>
  <unicode hex="00DD"/>
  <outline>
    <contour>
      <point x="522" y="708" type="line"/>
      <point x="727" y="708" type="line"/>
      <point x="453" y="264" type="line"/>
      <point x="453" y="0" type="line"/>
      <point x="272" y="0" type="line"/>
      <point x="272" y="263" type="line"/>
      <point x="0" y="708" type="line"/>
      <point x="209" y="708" type="line"/>
      <point x="363" y="427" type="line"/>
    </contour>
    <contour>
      <point x="412" y="758" type="line"/>
      <point x="264" y="758" type="line"/>
      <point x="396" y="950" type="line"/>
      <point x="583" y="950" type="line"/>
    </contour>
  </outline>
</glyph>
<glyph name="Thorn" format="2">
  <advance width="660"/>
  <unicode hex="00DE"/>
  <outline>
    <contour>
      <point x="248" y="0" type="line"/>
      <point x="67" y="0" type="line"/>
      <point x="67" y="708" type="line"/>
      <point x="248" y="708" type="line"/>
      <point x="248" y="608" type="line"/>
      <point x="354" y="608" type="line" smooth="yes"/>
      <point x="525" y="608"/>
      <point x="635" y="541"/>
      <point x="635" y="357" type="curve" smooth="yes"/>
      <point x="635" y="184"/>
      <point x="509" y="99"/>
      <point x="347" y="99" type="curve" smooth="yes"/>
      <point x="248" y="99" type="line"/>
    </contour>
    <contour>
      <point x="248" y="440" type="line"/>
      <point x="248" y="260" type="line"/>
      <point x="347" y="260" type="line" smooth="yes"/>
      <point x="407" y="260"/>
      <point x="457" y="286"/>
      <point x="457" y="351" type="curve" smooth="yes"/>
      <point x="457" y="423"/>
      <point x="408" y="440"/>
      <point x="346" y="440" type="curve" smooth="yes"/>
    </contour>
  </outline>
</glyph>
<glyph name="germandbls" format="2">
  <advance width="682"/>
  <unicode hex="00DF"/>
  <outline>
    <contour>
      <point x="457" y="400" type="curve" smooth="yes"/>
      <point x="457" y="382"/>
      <point x="469" y="373"/>
      <point x="490" y="362" type="curve" smooth="yes"/>
      <point x="577" y="319" type="line" smooth="yes"/>
      <point x="638" y="289"/>
      <point x="666" y="234"/>
      <point x="666" y="170" type="curve" smooth="yes"/>
      <point x="666" y="45"/>
      <point x="573" y="-8"/>
      <point x="465" y="-8" type="curve" smooth="yes"/>
      <point x="346" y="-8"/>
      <point x="247" y="56"/>
      <point x="244" y="180" type="curve"/>
      <point x="406" y="180" type="line"/>
      <point x="406" y="151"/>
      <point x="422" y="136"/>
      <point x="449" y="136" type="curve" smooth="yes"/>
      <point x="474" y="136"/>
      <point x="494" y="148"/>
      <point x="494" y="175" type="curve" smooth="yes"/>
      <point x="494" y="187"/>
      <point x="490" y="198"/>
      <point x="465" y="211" type="curve" smooth="yes"/>
      <point x="360" y="263" type="line" smooth="yes"/>
      <point x="313" y="287"/>
      <point x="285" y="314"/>
      <point x="285" y="365" type="curve" smooth="yes"/>
      <point x="285" y="419"/>
      <point x="316" y="447"/>
      <point x="340" y="479" type="curve" smooth="yes"/>
      <point x="355" y="498"/>
      <point x="372" y="514"/>
      <point x="372" y="542" type="curve" smooth="yes"/>
      <point x="372" y="565"/>
      <point x="353" y="597"/>
      <point x="295" y="597" type="curve" smooth="yes"/>
      <point x="251" y="597"/>
      <point x="224" y="575"/>
      <point x="224" y="535" type="curve" smooth="yes"/>
      <point x="224" y="0" type="line"/>
      <point x="47" y="0" type="line"/>
      <point x="47" y="556" type="line" smooth="yes"/>
      <point x="47" y="704"/>
      <point x="176" y="749"/>
      <point x="295" y="749" type="curve" smooth="yes"/>
      <point x="416" y="749"/>
      <point x="551" y="703"/>
      <point x="551" y="576" type="curve" smooth="yes"/>
      <point x="551" y="508"/>
      <point x="512" y="476"/>
      <point x="483" y="446" type="curve" smooth="yes"/>
      <point x="469" y="432"/>
      <point x="457" y="418"/>
    </contour>
  </outline>
</glyph>
<glyph name="atilde" format="2">
  <advance width="576"/>
  <unicode hex="00E3"/>
  <outline>
    <contour>
      <point x="265" y="213" type="line" smooth="yes"/>
      <point x="232" y="213"/>
      <point x="204" y="201"/>
      <point x="204" y="170" type="curve" smooth="yes"/>
      <point x="204" y="142"/>
      <point x="229" y="127"/>
      <point x="261" y="127" type="curve" smooth="yes"/>
      <point x="317" y="127"/>
      <point x="361" y="169"/>
      <point x="364" y="213" type="curve"/>
    </contour>
    <contour>
      <point x="367" y="69" type="line"/>
      <point x="315" y="-10"/>
      <point x="232" y="-8"/>
      <point x="213" y="-8" type="curve" smooth="yes"/>
      <point x="115" y="-8"/>
      <point x="29" y="44"/>
      <point x="29" y="153" type="curve" smooth="yes"/>
      <point x="29" y="223"/>
      <point x="65" y="270"/>
      <point x="114" y="295" type="curve" smooth="yes"/>
      <point x="175" y="326"/>
      <point x="253" y="322"/>
      <point x="338" y="322" type="curve" smooth="yes"/>
      <point x="362" y="322" type="line"/>
      <point x="361" y="359"/>
      <point x="334" y="389"/>
      <point x="287" y="389" type="curve" smooth="yes"/>
      <point x="252" y="389"/>
      <point x="219" y="373"/>
      <point x="215" y="350" type="curve"/>
      <point x="39" y="350" type="line"/>
      <point x="55" y="481"/>
      <point x="170" y="537"/>
      <point x="295" y="537" type="curve" smooth="yes"/>
      <point x="450" y="537"/>
      <point x="530" y="450"/>
      <point x="530" y="283" type="curve" smooth="yes"/>
      <point x="530" y="0" type="line"/>
      <point x="367" y="0" type="line"/>
    </contour>
    <contour>
      <point x="364" y="707" type="curve" smooth="yes"/>
      <point x="391" y="707"/>
      <point x="392" y="742"/>
      <point x="389" y="762" type="curve"/>
      <point x="503" y="762" type="line"/>
      <point x="504" y="753"/>
      <point x="505" y="745"/>
      <point x="505" y="730" type="curve" smooth="yes"/>
      <point x="505" y="654"/>
      <point x="479" y="577"/>
      <point x="391" y="577" type="curve" smooth="yes"/>
      <point x="308" y="577"/>
      <point x="268" y="645"/>
      <point x="233" y="645" type="curve" smooth="yes"/>
      <point x="206" y="645"/>
      <point x="201" y="602"/>
      <point x="207" y="582" type="curve"/>
      <point x="92" y="582" type="line"/>
      <point x="91" y="591"/>
      <point x="90" y="599"/>
      <point x="90" y="613" type="curve" smooth="yes"/>
      <point x="90" y="695"/>
      <point x="127" y="769"/>
      <point x="226" y="769" type="curve" smooth="yes"/>
      <point x="297" y="769"/>
      <point x="327" y="707"/>
    </contour>
  </outline>
</glyph>
<glyph name="adieresis" format="2">
  <advance width="576"/>
  <unicode hex="00E4"/>
  <outline>
    <contour>
      <point x="168" y="766" type="curve" smooth="yes"/>
      <point x="217" y="766"/>
      <point x="263" y="732"/>
      <point x="263" y="671" type="curve" smooth="yes"/>
      <point x="263" y="611"/>
      <point x="219" y="579"/>
      <point x="168" y="579" type="curve" smooth="yes"/>
      <point x="117" y="579"/>
      <point x="73" y="611"/>
      <point x="73" y="671" type="curve" smooth="yes"/>
      <point x="73" y="731"/>
      <point x="118" y="766"/>
    </contour>
    <contour>
      <point x="423" y="766" type="curve" smooth="yes"/>
      <point x="472" y="766"/>
      <point x="516" y="732"/>
      <point x="516" y="672" type="curve" smooth="yes"/>
      <point x="516" y="611"/>
      <point x="474" y="579"/>
      <point x="423" y="579" type="curve" smooth="yes"/>
      <point x="373" y="579"/>
      <point x="326" y="611"/>
      <point x="326" y="671" type="curve" smooth="yes"/>
      <point x="326" y="731"/>
      <point x="373" y="766"/>
    </contour>
    <contour>
      <point x="265" y="213" type="line" smooth="yes"/>
      <point x="232" y="213"/>
      <point x="204" y="201"/>
      <point x="204" y="170" type="curve" smooth="yes"/>
      <point x="204" y="142"/>
      <point x="229" y="127"/>
      <point x="261" y="127" type="curve" smooth="yes"/>
      <point x="317" y="127"/>
      <point x="361" y="169"/>
      <point x="364" y="213" type="curve"/>
    </contour>
    <contour>
      <point x="367" y="69" type="line"/>
      <point x="315" y="-10"/>
      <point x="232" y="-8"/>
      <point x="213" y="-8" type="curve" smooth="yes"/>
      <point x="115" y="-8"/>
      <point x="29" y="44"/>
      <point x="29" y="153" type="curve" smooth="yes"/>
      <point x="29" y="223"/>
      <point x="65" y="270"/>
      <point x="114" y="295" type="curve" smooth="yes"/>
      <point x="175" y="326"/>
      <point x="253" y="322"/>
      <point x="338" y="322" type="curve" smooth="yes"/>
      <point x="362" y="322" type="line"/>
      <point x="361" y="359"/>
      <point x="334" y="389"/>
      <point x="287" y="389" type="curve" smooth="yes"/>
      <point x="252" y="389"/>
      <point x="219" y="373"/>
      <point x="215" y="350" type="curve"/>
      <point x="39" y="350" type="line"/>
      <point x="55" y="481"/>
      <point x="170" y="537"/>
      <point x="295" y="537" type="curve" smooth="yes"/>
      <point x="450" y="537"/>
      <point x="530" y="450"/>
      <point x="530" y="283" type="curve" smooth="yes"/>
      <point x="530" y="0" type="line"/>
      <point x="367" y="0" type="line"/>
    </contour>
  </outline>
</glyph>
<glyph name="ae" format="2">
  <advance width="900"/>
  <unicode hex="00E6"/>
  <outline>
    <contour>
      <point x="239" y="-8" type="curve" smooth="yes"/>
      <point x="126" y="-8"/>
      <point x="29" y="46"/>
      <point x="29" y="157" type="curve" smooth="yes"/>
      <point x="29" y="301"/>
      <point x="163" y="322"/>
      <point x="276" y="322" type="curve" smooth="yes"/>
      <point x="362" y="322" type="line"/>
      <point x="359" y="365"/>
      <point x="328" y="389"/>
      <point x="289" y="389" type="curve" smooth="yes"/>
      <point x="262" y="389"/>
      <point x="221" y="378"/>
      <point x="215" y="350" type="curve"/>
      <point x="39" y="350" type="line"/>
      <point x="55" y="477"/>
      <point x="165" y="537"/>
      <point x="291" y="537" type="curve" smooth="yes"/>
      <point x="348" y="537"/>
      <point x="409" y="525"/>
      <point x="456" y="485" type="curve"/>
      <point x="500" y="517"/>
      <point x="555" y="538"/>
      <point x="624" y="538" type="curve" smooth="yes"/>
      <point x="776" y="538"/>
      <point x="873" y="437"/>
      <point x="873" y="280" type="curve" smooth="yes"/>
      <point x="873" y="257"/>
      <point x="871" y="234"/>
      <point x="866" y="213" type="curve"/>
      <point x="526" y="213" type="line"/>
      <point x="531" y="161"/>
      <point x="574" y="140"/>
      <point x="616" y="140" type="curve" smooth="yes"/>
      <point x="649" y="140"/>
      <point x="689" y="150"/>
      <point x="700" y="178" type="curve"/>
      <point x="873" y="178" type="line"/>
      <point x="844" y="53"/>
      <point x="744" y="-8"/>
      <point x="619" y="-8" type="curve" smooth="yes"/>
      <point x="532" y="-8"/>
      <point x="468" y="21"/>
      <point x="425" y="72" type="curve"/>
      <point x="382" y="17"/>
      <point x="316" y="-8"/>
    </contour>
    <contour>
      <point x="621" y="398" type="curve" smooth="yes"/>
      <point x="573" y="398"/>
      <point x="529" y="372"/>
      <point x="529" y="322" type="curve"/>
      <point x="707" y="322" type="line"/>
      <point x="707" y="374"/>
      <point x="667" y="398"/>
    </contour>
    <contour>
      <point x="265" y="213" type="line" smooth="yes"/>
      <point x="236" y="213"/>
      <point x="204" y="203"/>
      <point x="204" y="170" type="curve" smooth="yes"/>
      <point x="204" y="138"/>
      <point x="236" y="127"/>
      <point x="263" y="127" type="curve" smooth="yes"/>
      <point x="311" y="127"/>
      <point x="358" y="160"/>
      <point x="366" y="213" type="curve"/>
    </contour>
  </outline>
</glyph>
<glyph name="ccedilla" format="2">
  <advance width="565"/>
  <unicode hex="00E7"/>
  <outline>
    <contour>
      <point x="290" y="153" type="curve" smooth="yes"/>
      <point x="332" y="153"/>
      <point x="360" y="175"/>
      <point x="367" y="211" type="curve"/>
      <point x="543" y="211" type="line"/>
      <point x="538" y="84"/>
      <point x="453" y="12"/>
      <point x="341" y="-4" type="curve"/>
      <point x="335" y="-28" type="line"/>
      <point x="387" y="-31"/>
      <point x="437" y="-56"/>
      <point x="437" y="-137" type="curve" smooth="yes"/>
      <point x="437" y="-236"/>
      <point x="352" y="-281"/>
      <point x="270" y="-281" type="curve" smooth="yes"/>
      <point x="230" y="-281"/>
      <point x="210" y="-277"/>
      <point x="191" y="-272" type="curve"/>
      <point x="191" y="-169" type="line"/>
      <point x="267" y="-185"/>
      <point x="305" y="-172"/>
      <point x="305" y="-141" type="curve" smooth="yes"/>
      <point x="305" y="-93"/>
      <point x="213" y="-108"/>
      <point x="193" y="-116" type="curve"/>
      <point x="226" y="-2" type="line"/>
      <point x="99" y="21"/>
      <point x="24" y="115"/>
      <point x="24" y="262" type="curve" smooth="yes"/>
      <point x="24" y="437"/>
      <point x="131" y="538"/>
      <point x="290" y="538" type="curve" smooth="yes"/>
      <point x="432" y="538"/>
      <point x="532" y="458"/>
      <point x="537" y="317" type="curve"/>
      <point x="367" y="317" type="line"/>
      <point x="359" y="356"/>
      <point x="330" y="376"/>
      <point x="291" y="376" type="curve" smooth="yes"/>
      <point x="218" y="376"/>
      <point x="199" y="309"/>
      <point x="199" y="262" type="curve" smooth="yes"/>
      <point x="199" y="208"/>
      <point x="224" y="153"/>
    </contour>
  </outline>
</glyph>
<glyph name="ecircumflex" format="2">
  <advance width="570"/>
  <unicode hex="00EA"/>
  <outline>
    <contour>
      <point x="288" y="140" type="curve" smooth="yes"/>
      <point x="335" y="140"/>
      <point x="365" y="159"/>
      <point x="372" y="178" type="curve"/>
      <point x="545" y="178" type="line"/>
      <point x="516" y="47"/>
      <point x="410" y="-8"/>
      <point x="292" y="-8" type="curve" smooth="yes"/>
      <point x="130" y="-8"/>
      <point x="23" y="94"/>
      <point x="23" y="260" type="curve" smooth="yes"/>
      <point x="23" y="426"/>
      <point x="131" y="538"/>
      <point x="294" y="538" type="curve" smooth="yes"/>
      <point x="448" y="538"/>
      <point x="545" y="437"/>
      <point x="545" y="278" type="curve" smooth="yes"/>
      <point x="545" y="255"/>
      <point x="543" y="236"/>
      <point x="538" y="213" type="curve"/>
      <point x="198" y="213" type="line"/>
      <point x="202" y="174"/>
      <point x="230" y="140"/>
    </contour>
    <contour>
      <point x="291" y="398" type="curve" smooth="yes"/>
      <point x="228" y="398"/>
      <point x="201" y="358"/>
      <point x="201" y="328" type="curve"/>
      <point x="379" y="328" type="line"/>
      <point x="379" y="358"/>
      <point x="355" y="398"/>
    </contour>
    <contour>
      <point x="348" y="769" type="line"/>
      <point x="517" y="577" type="line"/>
      <point x="351" y="577" type="line"/>
      <point x="290" y="661" type="line"/>
      <point x="232" y="577" type="line"/>
      <point x="66" y="577" type="line"/>
      <point x="232" y="769" type="line"/>
    </contour>
  </outline>
</glyph>
<glyph name="igrave" format="2">
  <advance width="272"/>
  <unicode hex="00EC"/>
  <outline>
    <contour>
      <point x="224" y="0" type="line"/>
      <point x="47" y="0" type="line"/>
      <point x="47" y="527" type="line"/>
      <point x="224" y="527" type="line"/>
    </contour>
    <contour>
      <point x="107" y="577" type="line"/>
      <point x="-64" y="769" type="line"/>
      <point x="123" y="769" type="line"/>
      <point x="255" y="577" type="line"/>
    </contour>
  </outline>
</glyph>
<glyph name="iacute" format="2">
  <advance width="272"/>
  <unicode hex="00ED"/>
  <outline>
    <contour>
      <point x="224" y="0" type="line"/>
      <point x="47" y="0" type="line"/>
      <point x="47" y="527" type="line"/>
      <point x="224" y="527" type="line"/>
    </contour>
    <contour>
      <point x="174" y="577" type="line"/>
      <point x="26" y="577" type="line"/>
      <point x="158" y="769" type="line"/>
      <point x="345" y="769" type="line"/>
    </contour>
  </outline>
</glyph>
<glyph name="icircumflex" format="2">
  <advance width="377"/>
  <unicode hex="00EE"/>
  <outline>
    <contour>
      <point x="276" y="0" type="line"/>
      <point x="100" y="0" type="line"/>
      <point x="100" y="527" type="line"/>
      <point x="276" y="527" type="line"/>
    </contour>
    <contour>
      <point x="245" y="769" type="line"/>
      <point x="414" y="577" type="line"/>
      <point x="248" y="577" type="line"/>
      <point x="187" y="661" type="line"/>
      <point x="129" y="577" type="line"/>
      <point x="-37" y="577" type="line"/>
      <point x="129" y="769" type="line"/>
    </contour>
  </outline>
</glyph>
<glyph name="idieresis" format="2">
  <advance width="272"/>
  <unicode hex="00EF"/>
  <outline>
    <contour>
      <point x="224" y="0" type="line"/>
      <point x="47" y="0" type="line"/>
      <point x="47" y="527" type="line"/>
      <point x="224" y="527" type="line"/>
    </contour>
    <contour>
      <point x="17" y="763" type="curve" smooth="yes"/>
      <point x="66" y="763"/>
      <point x="112" y="729"/>
      <point x="112" y="667" type="curve" smooth="yes"/>
      <point x="112" y="607"/>
      <point x="68" y="576"/>
      <point x="17" y="576" type="curve" smooth="yes"/>
      <point x="-34" y="576"/>
      <point x="-78" y="607"/>
      <point x="-78" y="667" type="curve" smooth="yes"/>
      <point x="-78" y="728"/>
      <point x="-33" y="763"/>
    </contour>
    <contour>
      <point x="256" y="763" type="curve" smooth="yes"/>
      <point x="305" y="763"/>
      <point x="349" y="729"/>
      <point x="349" y="668" type="curve" smooth="yes"/>
      <point x="349" y="607"/>
      <point x="307" y="576"/>
      <point x="256" y="576" type="curve" smooth="yes"/>
      <point x="206" y="576"/>
      <point x="159" y="607"/>
      <point x="159" y="667" type="curve" smooth="yes"/>
      <point x="159" y="728"/>
      <point x="206" y="763"/>
    </contour>
  </outline>
</glyph>
<glyph name="eth" format="2">
  <advance width="621"/>
  <unicode hex="00F0"/>
  <outline>
    <contour>
      <point x="305" y="149" type="curve" smooth="yes"/>
      <point x="365" y="149"/>
      <point x="407" y="190"/>
      <point x="407" y="247" type="curve" smooth="yes"/>
      <point x="407" y="309"/>
      <point x="357" y="343"/>
      <point x="302" y="343" type="curve" smooth="yes"/>
      <point x="244" y="343"/>
      <point x="203" y="305"/>
      <point x="203" y="248" type="curve" smooth="yes"/>
      <point x="203" y="188"/>
      <point x="246" y="149"/>
    </contour>
    <contour>
      <point x="250" y="520" type="line"/>
      <point x="195" y="620" type="line"/>
      <point x="254" y="653" type="line"/>
      <point x="227" y="669"/>
      <point x="182" y="677"/>
      <point x="146" y="682" type="curve"/>
      <point x="173" y="811" type="line"/>
      <point x="249" y="800"/>
      <point x="321" y="779"/>
      <point x="389" y="740" type="curve"/>
      <point x="494" y="798" type="line"/>
      <point x="554" y="695" type="line"/>
      <point x="490" y="659" type="line"/>
      <point x="567" y="561"/>
      <point x="594" y="477"/>
      <point x="594" y="330" type="curve" smooth="yes"/>
      <point x="594" y="147"/>
      <point x="499" y="-8"/>
      <point x="299" y="-8" type="curve" smooth="yes"/>
      <point x="136" y="-8"/>
      <point x="27" y="95"/>
      <point x="27" y="253" type="curve" smooth="yes"/>
      <point x="27" y="400"/>
      <point x="122" y="508"/>
      <point x="264" y="508" type="curve" smooth="yes"/>
      <point x="331" y="508"/>
      <point x="395" y="483"/>
      <point x="434" y="426" type="curve"/>
      <point x="434" y="472"/>
      <point x="395" y="548"/>
      <point x="359" y="578" type="curve"/>
    </contour>
  </outline>
</glyph>
<glyph name="ntilde" format="2">
  <advance width="614"/>
  <unicode hex="00F1"/>
  <outline>
    <contour>
      <point x="220" y="479" type="line"/>
      <point x="269" y="530"/>
      <point x="336" y="538"/>
      <point x="375" y="538" type="curve" smooth="yes"/>
      <point x="523" y="538"/>
      <point x="570" y="425"/>
      <point x="570" y="291" type="curve" smooth="yes"/>
      <point x="570" y="0" type="line"/>
      <point x="393" y="0" type="line"/>
      <point x="393" y="276" type="line" smooth="yes"/>
      <point x="393" y="319"/>
      <point x="378" y="376"/>
      <point x="311" y="376" type="curve" smooth="yes"/>
      <point x="282" y="376"/>
      <point x="255" y="361"/>
      <point x="241" y="338" type="curve" smooth="yes"/>
      <point x="229" y="319"/>
      <point x="224" y="293"/>
      <point x="224" y="272" type="curve" smooth="yes"/>
      <point x="224" y="0" type="line"/>
      <point x="47" y="0" type="line"/>
      <point x="47" y="528" type="line"/>
      <point x="210" y="528" type="line"/>
    </contour>
    <contour>
      <point x="389" y="707" type="curve" smooth="yes"/>
      <point x="416" y="707"/>
      <point x="417" y="742"/>
      <point x="414" y="762" type="curve"/>
      <point x="528" y="762" type="line"/>
      <point x="529" y="753"/>
      <point x="530" y="745"/>
      <point x="530" y="730" type="curve" smooth="yes"/>
      <point x="530" y="654"/>
      <point x="504" y="577"/>
      <point x="416" y="577" type="curve" smooth="yes"/>
      <point x="333" y="577"/>
      <point x="293" y="645"/>
      <point x="258" y="645" type="curve" smooth="yes"/>
      <point x="231" y="645"/>
      <point x="226" y="602"/>
      <point x="232" y="582" type="curve"/>
      <point x="117" y="582" type="line"/>
      <point x="116" y="591"/>
      <point x="115" y="599"/>
      <point x="115" y="613" type="curve" smooth="yes"/>
      <point x="115" y="695"/>
      <point x="152" y="769"/>
      <point x="251" y="769" type="curve" smooth="yes"/>
      <point x="322" y="769"/>
      <point x="352" y="707"/>
    </contour>
  </outline>
</glyph>
<glyph name="otilde" format="2">
  <advance width="601"/>
  <unicode hex="00F5"/>
  <outline>
    <contour>
      <point x="301" y="373" type="curve" smooth="yes"/>
      <point x="224" y="373"/>
      <point x="200" y="310"/>
      <point x="200" y="261" type="curve" smooth="yes"/>
      <point x="200" y="210"/>
      <point x="225" y="156"/>
      <point x="301" y="156" type="curve" smooth="yes"/>
      <point x="377" y="156"/>
      <point x="401" y="212"/>
      <point x="401" y="261" type="curve" smooth="yes"/>
      <point x="401" y="308"/>
      <point x="378" y="373"/>
    </contour>
    <contour>
      <point x="304" y="-8" type="curve" smooth="yes"/>
      <point x="148" y="-8"/>
      <point x="27" y="87"/>
      <point x="27" y="262" type="curve" smooth="yes"/>
      <point x="27" y="439"/>
      <point x="151" y="538"/>
      <point x="301" y="538" type="curve" smooth="yes"/>
      <point x="454" y="538"/>
      <point x="574" y="436"/>
      <point x="574" y="259" type="curve" smooth="yes"/>
      <point x="574" y="86"/>
      <point x="459" y="-8"/>
    </contour>
    <contour>
      <point x="370" y="707" type="curve" smooth="yes"/>
      <point x="397" y="707"/>
      <point x="398" y="742"/>
      <point x="395" y="762" type="curve"/>
      <point x="509" y="762" type="line"/>
      <point x="510" y="753"/>
      <point x="511" y="745"/>
      <point x="511" y="730" type="curve" smooth="yes"/>
      <point x="511" y="654"/>
      <point x="485" y="577"/>
      <point x="397" y="577" type="curve" smooth="yes"/>
      <point x="314" y="577"/>
      <point x="274" y="645"/>
      <point x="239" y="645" type="curve" smooth="yes"/>
      <point x="212" y="645"/>
      <point x="207" y="602"/>
      <point x="213" y="582" type="curve"/>
      <point x="98" y="582" type="line"/>
      <point x="97" y="591"/>
      <point x="96" y="599"/>
      <point x="96" y="613" type="curve" smooth="yes"/>
      <point x="96" y="695"/>
      <point x="133" y="769"/>
      <point x="232" y="769" type="curve" smooth="yes"/>
      <point x="303" y="769"/>
      <point x="333" y="707"/>
    </contour>
  </outline>
</glyph>
<glyph name="odieresis" format="2">
  <advance width="601"/>
  <unicode hex="00F6"/>
  <outline>
    <contour>
      <point x="301" y="373" type="curve" smooth="yes"/>
      <point x="224" y="373"/>
      <point x="200" y="310"/>
      <point x="200" y="261" type="curve" smooth="yes"/>
      <point x="200" y="210"/>
      <point x="225" y="156"/>
      <point x="301" y="156" type="curve" smooth="yes"/>
      <point x="377" y="156"/>
      <point x="401" y="212"/>
      <point x="401" y="261" type="curve" smooth="yes"/>
      <point x="401" y="308"/>
      <point x="378" y="373"/>
    </contour>
    <contour>
      <point x="304" y="-8" type="curve" smooth="yes"/>
      <point x="148" y="-8"/>
      <point x="27" y="87"/>
      <point x="27" y="262" type="curve" smooth="yes"/>
      <point x="27" y="439"/>
      <point x="151" y="538"/>
      <point x="301" y="538" type="curve" smooth="yes"/>
      <point x="454" y="538"/>
      <point x="574" y="436"/>
      <point x="574" y="259" type="curve" smooth="yes"/>
      <point x="574" y="86"/>
      <point x="459" y="-8"/>
    </contour>
    <contour>
      <point x="175" y="763" type="curve" smooth="yes"/>
      <point x="224" y="763"/>
      <point x="270" y="729"/>
      <point x="270" y="667" type="curve" smooth="yes"/>
      <point x="270" y="607"/>
      <point x="226" y="576"/>
      <point x="175" y="576" type="curve" smooth="yes"/>
      <point x="124" y="576"/>
      <point x="80" y="607"/>
      <point x="80" y="667" type="curve" smooth="yes"/>
      <point x="80" y="728"/>
      <point x="125" y="763"/>
    </contour>
    <contour>
      <point x="434" y="763" type="curve" smooth="yes"/>
      <point x="483" y="763"/>
      <point x="527" y="729"/>
      <point x="527" y="668" type="curve" smooth="yes"/>
      <point x="527" y="607"/>
      <point x="485" y="576"/>
      <point x="434" y="576" type="curve" smooth="yes"/>
      <point x="384" y="576"/>
      <point x="337" y="607"/>
      <point x="337" y="667" type="curve" smooth="yes"/>
      <point x="337" y="728"/>
      <point x="384" y="763"/>
    </contour>
  </outline>
</glyph>
<glyph name="divide" format="2">
  <advance width="568"/>
  <unicode hex="00F7"/>
  <outline>
    <contour>
      <point x="39" y="284" type="line"/>
      <point x="39" y="438" type="line"/>
      <point x="529" y="438" type="line"/>
      <point x="529" y="284" type="line"/>
    </contour>
    <contour>
      <point x="284" y="677" type="curve" smooth="yes"/>
      <point x="339" y="677"/>
      <point x="387" y="638"/>
      <point x="387" y="569" type="curve" smooth="yes"/>
      <point x="387" y="501"/>
      <point x="338" y="465"/>
      <point x="282" y="465" type="curve" smooth="yes"/>
      <point x="226" y="465"/>
      <point x="176" y="500"/>
      <point x="176" y="568" type="curve" smooth="yes"/>
      <point x="176" y="637"/>
      <point x="230" y="677"/>
    </contour>
    <contour>
      <point x="284" y="256" type="curve" smooth="yes"/>
      <point x="339" y="256"/>
      <point x="387" y="217"/>
      <point x="387" y="148" type="curve" smooth="yes"/>
      <point x="387" y="80"/>
      <point x="338" y="44"/>
      <point x="282" y="44" type="curve" smooth="yes"/>
      <point x="226" y="44"/>
      <point x="176" y="79"/>
      <point x="176" y="147" type="curve" smooth="yes"/>
      <point x="176" y="216"/>
      <point x="230" y="256"/>
    </contour>
  </outline>
</glyph>
<glyph name="oslash" format="2">
  <advance width="601"/>
  <unicode hex="00F8"/>
  <outline>
    <contour>
      <point x="301" y="-8" type="curve" smooth="yes"/>
      <point x="290" y="-8"/>
      <point x="281" y="-8"/>
      <point x="270" y="-7" type="curve"/>
      <point x="227" y="-110" type="line"/>
      <point x="54" y="-110" type="line"/>
      <point x="124" y="47" type="line"/>
      <point x="61" y="95"/>
      <point x="27" y="170"/>
      <point x="27" y="262" type="curve" smooth="yes"/>
      <point x="27" y="429"/>
      <point x="140" y="538"/>
      <point x="297" y="538" type="curve" smooth="yes"/>
      <point x="312" y="538"/>
      <point x="319" y="537"/>
      <point x="330" y="537" type="curve"/>
      <point x="372" y="640" type="line"/>
      <point x="546" y="640" type="line"/>
      <point x="476" y="482" type="line"/>
      <point x="537" y="434"/>
      <point x="574" y="358"/>
      <point x="574" y="260" type="curve" smooth="yes"/>
      <point x="574" y="97"/>
      <point x="470" y="-8"/>
    </contour>
    <contour>
      <point x="212" y="205" type="curve"/>
      <point x="279" y="371" type="line"/>
      <point x="228" y="360"/>
      <point x="200" y="318"/>
      <point x="200" y="263" type="curve" smooth="yes"/>
      <point x="200" y="242"/>
      <point x="204" y="222"/>
    </contour>
    <contour>
      <point x="389" y="318" type="curve"/>
      <point x="325" y="158" type="line"/>
      <point x="376" y="169"/>
      <point x="401" y="209"/>
      <point x="401" y="263" type="curve" smooth="yes"/>
      <point x="401" y="284"/>
      <point x="397" y="302"/>
    </contour>
  </outline>
</glyph>
<glyph name="udieresis" format="2">
  <advance width="591"/>
  <unicode hex="00FC"/>
  <outline>
    <contour>
      <point x="166" y="766" type="curve" smooth="yes"/>
      <point x="215" y="766"/>
      <point x="261" y="732"/>
      <point x="261" y="671" type="curve" smooth="yes"/>
      <point x="261" y="611"/>
      <point x="217" y="579"/>
      <point x="166" y="579" type="curve" smooth="yes"/>
      <point x="115" y="579"/>
      <point x="71" y="611"/>
      <point x="71" y="671" type="curve" smooth="yes"/>
      <point x="71" y="731"/>
      <point x="116" y="766"/>
    </contour>
    <contour>
      <point x="425" y="766" type="curve" smooth="yes"/>
      <point x="474" y="766"/>
      <point x="518" y="732"/>
      <point x="518" y="672" type="curve" smooth="yes"/>
      <point x="518" y="611"/>
      <point x="476" y="579"/>
      <point x="425" y="579" type="curve" smooth="yes"/>
      <point x="375" y="579"/>
      <point x="328" y="611"/>
      <point x="328" y="671" type="curve" smooth="yes"/>
      <point x="328" y="731"/>
      <point x="375" y="766"/>
    </contour>
    <contour>
      <point x="300" y="153" type="curve" smooth="yes"/>
      <point x="366" y="153"/>
      <point x="369" y="207"/>
      <point x="369" y="248" type="curve" smooth="yes"/>
      <point x="369" y="527" type="line"/>
      <point x="545" y="527" type="line"/>
      <point x="545" y="234" type="line" smooth="yes"/>
      <point x="545" y="62"/>
      <point x="450" y="-8"/>
      <point x="299" y="-8" type="curve" smooth="yes"/>
      <point x="137" y="-8"/>
      <point x="45" y="72"/>
      <point x="45" y="234" type="curve" smooth="yes"/>
      <point x="45" y="527" type="line"/>
      <point x="222" y="527" type="line"/>
      <point x="222" y="248" type="line" smooth="yes"/>
      <point x="222" y="196"/>
      <point x="241" y="153"/>
    </contour>
  </outline>
</glyph>
<glyph name="thorn" format="2">
  <advance width="637"/>
  <unicode hex="00FE"/>
  <outline>
    <contour>
      <point x="47" y="708" type="line"/>
      <point x="224" y="708" type="line"/>
      <point x="224" y="473" type="line"/>
      <point x="263" y="521"/>
      <point x="322" y="538"/>
      <point x="379" y="538" type="curve" smooth="yes"/>
      <point x="536" y="538"/>
      <point x="610" y="411"/>
      <point x="610" y="268" type="curve" smooth="yes"/>
      <point x="610" y="124"/>
      <point x="535" y="-8"/>
      <point x="377" y="-8" type="curve" smooth="yes"/>
      <point x="325" y="-8"/>
      <point x="263" y="6"/>
      <point x="224" y="45" type="curve"/>
      <point x="224" y="-201" type="line"/>
      <point x="47" y="-201" type="line"/>
    </contour>
    <contour>
      <point x="330" y="376" type="curve" smooth="yes"/>
      <point x="266" y="376"/>
      <point x="224" y="331"/>
      <point x="224" y="265" type="curve" smooth="yes"/>
      <point x="224" y="200"/>
      <point x="266" y="153"/>
      <point x="335" y="153" type="curve" smooth="yes"/>
      <point x="406" y="153"/>
      <point x="436" y="202"/>
      <point x="436" y="261" type="curve" smooth="yes"/>
      <point x="436" y="331"/>
      <point x="394" y="376"/>
    </contour>
  </outline>
</glyph>
<glyph name="ydieresis" format="2">
  <advance width="629"/>
  <unicode hex="00FF"/>
  <outline>
    <contour>
      <point x="407" y="42" type="curve"/>
      <point x="372" y="3"/>
      <point x="314" y="-8"/>
      <point x="265" y="-8" type="curve" smooth="yes"/>
      <point x="114" y="-8"/>
      <point x="54" y="99"/>
      <point x="54" y="239" type="curve" smooth="yes"/>
      <point x="54" y="527" type="line"/>
      <point x="230" y="527" type="line"/>
      <point x="230" y="271" type="line" smooth="yes"/>
      <point x="230" y="223"/>
      <point x="238" y="152"/>
      <point x="321" y="152" type="curve" smooth="yes"/>
      <point x="405" y="152"/>
      <point x="405" y="225"/>
      <point x="405" y="278" type="curve" smooth="yes"/>
      <point x="405" y="527" type="line"/>
      <point x="582" y="527" type="line"/>
      <point x="582" y="126" type="line" smooth="yes"/>
      <point x="582" y="-92"/>
      <point x="529" y="-248"/>
      <point x="281" y="-248" type="curve" smooth="yes"/>
      <point x="200" y="-248"/>
      <point x="120" y="-229"/>
      <point x="47" y="-182" type="curve"/>
      <point x="101" y="-39" type="line"/>
      <point x="137" y="-66"/>
      <point x="186" y="-83"/>
      <point x="251" y="-83" type="curve" smooth="yes"/>
      <point x="349" y="-83"/>
      <point x="408" y="-45"/>
    </contour>
    <contour>
      <point x="191" y="763" type="curve" smooth="yes"/>
      <point x="240" y="763"/>
      <point x="286" y="729"/>
      <point x="286" y="667" type="curve" smooth="yes"/>
      <point x="286" y="607"/>
      <point x="242" y="576"/>
      <point x="191" y="576" type="curve" smooth="yes"/>
      <point x="140" y="576"/>
      <point x="96" y="607"/>
      <point x="96" y="667" type="curve" smooth="yes"/>
      <point x="96" y="728"/>
      <point x="141" y="763"/>
    </contour>
    <contour>
      <point x="450" y="763" type="curve" smooth="yes"/>
      <point x="499" y="763"/>
      <point x="543" y="729"/>
      <point x="543" y="668" type="curve" smooth="yes"/>
      <point x="543" y="607"/>
      <point x="501" y="576"/>
      <point x="450" y="576" type="curve" smooth="yes"/>
      <point x="400" y="576"/>
      <point x="353" y="607"/>
      <point x="353" y="667" type="curve" smooth="yes"/>
      <point x="353" y="728"/>
      <point x="400" y="763"/>
    </contour>
  </outline>
</glyph>
<glyph name="Abreve" format="2">
  <advance width="739"/>
  <unicode hex="0102"/>
  <outline>
    <contour>
      <point x="189" y="0" type="line"/>
      <point x="-5" y="0" type="line"/>
      <point x="279" y="708" type="line"/>
      <point x="463" y="708" type="line"/>
      <point x="744" y="0" type="line"/>
      <point x="549" y="0" type="line"/>
      <point x="514" y="100" type="line"/>
      <point x="225" y="100" type="line"/>
    </contour>
    <contour>
      <point x="457" y="263" type="line"/>
      <point x="371" y="506" type="line"/>
      <point x="282" y="263" type="line"/>
    </contour>
    <contour>
      <point x="368" y="758" type="curve" smooth="yes"/>
      <point x="243" y="758"/>
      <point x="166" y="819"/>
      <point x="166" y="950" type="curve"/>
      <point x="308" y="950" type="line"/>
      <point x="308" y="938" type="line" smooth="yes"/>
      <point x="308" y="902"/>
      <point x="333" y="879"/>
      <point x="369" y="879" type="curve" smooth="yes"/>
      <point x="406" y="879"/>
      <point x="430" y="901"/>
      <point x="430" y="938" type="curve" smooth="yes"/>
      <point x="430" y="950" type="line"/>
      <point x="572" y="950" type="line"/>
      <point x="572" y="821"/>
      <point x="495" y="758"/>
    </contour>
  </outline>
</glyph>
<glyph name="Aogonek" format="2">
  <advance width="739"/>
  <unicode hex="0104"/>
  <outline>
    <contour>
      <point x="457" y="263" type="line"/>
      <point x="371" y="506" type="line"/>
      <point x="282" y="263" type="line"/>
    </contour>
    <contour>
      <point x="511" y="-95" type="curve" smooth="yes"/>
      <point x="511" y="-56"/>
      <point x="532" y="-17"/>
      <point x="561" y="0" type="curve"/>
      <point x="549" y="0" type="line"/>
      <point x="514" y="100" type="line"/>
      <point x="225" y="100" type="line"/>
      <point x="189" y="0" type="line"/>
      <point x="-5" y="0" type="line"/>
      <point x="279" y="708" type="line"/>
      <point x="463" y="708" type="line"/>
      <point x="744" y="0" type="line"/>
      <point x="674" y="0" type="line"/>
      <point x="649" y="-8"/>
      <point x="626" y="-22"/>
      <point x="624" y="-51" type="curve" smooth="yes"/>
      <point x="623" y="-78"/>
      <point x="642" y="-92"/>
      <point x="668" y="-92" type="curve" smooth="yes"/>
      <point x="682" y="-92"/>
      <point x="694" y="-88"/>
      <point x="706" y="-83" type="curve"/>
      <point x="722" y="-179" type="line"/>
      <point x="697" y="-194"/>
      <point x="665" y="-197"/>
      <point x="643" y="-197" type="curve" smooth="yes"/>
      <point x="563" y="-197"/>
      <point x="511" y="-157"/>
    </contour>
  </outline>
</glyph>
<glyph name="aogonek" format="2">
  <advance width="576"/>
  <unicode hex="0105"/>
  <outline>
    <contour>
      <point x="265" y="213" type="line" smooth="yes"/>
      <point x="232" y="213"/>
      <point x="204" y="201"/>
      <point x="204" y="170" type="curve" smooth="yes"/>
      <point x="204" y="142"/>
      <point x="229" y="127"/>
      <point x="261" y="127" type="curve" smooth="yes"/>
      <point x="317" y="127"/>
      <point x="361" y="169"/>
      <point x="364" y="213" type="curve"/>
    </contour>
    <contour>
      <point x="337" y="-95" type="curve" smooth="yes"/>
      <point x="337" y="-56"/>
      <point x="358" y="-17"/>
      <point x="387" y="0" type="curve"/>
      <point x="367" y="0" type="line"/>
      <point x="367" y="69" type="line"/>
      <point x="315" y="-10"/>
      <point x="232" y="-8"/>
      <point x="213" y="-8" type="curve" smooth="yes"/>
      <point x="115" y="-8"/>
      <point x="29" y="44"/>
      <point x="29" y="153" type="curve" smooth="yes"/>
      <point x="29" y="298"/>
      <point x="159" y="322"/>
      <point x="275" y="322" type="curve" smooth="yes"/>
      <point x="362" y="322" type="line"/>
      <point x="361" y="359"/>
      <point x="334" y="389"/>
      <point x="287" y="389" type="curve" smooth="yes"/>
      <point x="252" y="389"/>
      <point x="219" y="373"/>
      <point x="215" y="350" type="curve"/>
      <point x="39" y="350" type="line"/>
      <point x="55" y="481"/>
      <point x="170" y="537"/>
      <point x="295" y="537" type="curve" smooth="yes"/>
      <point x="450" y="537"/>
      <point x="530" y="450"/>
      <point x="530" y="283" type="curve" smooth="yes"/>
      <point x="530" y="0" type="line"/>
      <point x="500" y="0" type="line"/>
      <point x="475" y="-8"/>
      <point x="452" y="-22"/>
      <point x="450" y="-51" type="curve" smooth="yes"/>
      <point x="449" y="-78"/>
      <point x="468" y="-92"/>
      <point x="494" y="-92" type="curve" smooth="yes"/>
      <point x="508" y="-92"/>
      <point x="520" y="-88"/>
      <point x="532" y="-83" type="curve"/>
      <point x="548" y="-179" type="line"/>
      <point x="523" y="-194"/>
      <point x="491" y="-197"/>
      <point x="469" y="-197" type="curve" smooth="yes"/>
      <point x="389" y="-197"/>
      <point x="337" y="-157"/>
    </contour>
  </outline>
</glyph>
<glyph name="Cdotaccent" format="2">
  <advance width="721"/>
  <unicode hex="010A"/>
  <outline>
    <contour>
      <point x="215" y="358" type="curve" smooth="yes"/>
      <point x="215" y="265"/>
      <point x="259" y="163"/>
      <point x="386" y="163" type="curve" smooth="yes"/>
      <point x="461" y="163"/>
      <point x="509" y="199"/>
      <point x="524" y="263" type="curve"/>
      <point x="699" y="263" type="line"/>
      <point x="686" y="83"/>
      <point x="540" y="-8"/>
      <point x="380" y="-8" type="curve" smooth="yes"/>
      <point x="160" y="-8"/>
      <point x="28" y="130"/>
      <point x="28" y="350" type="curve" smooth="yes"/>
      <point x="28" y="576"/>
      <point x="167" y="717"/>
      <point x="377" y="717" type="curve" smooth="yes"/>
      <point x="543" y="717"/>
      <point x="675" y="628"/>
      <point x="691" y="445" type="curve"/>
      <point x="520" y="445" type="line"/>
      <point x="504" y="509"/>
      <point x="461" y="546"/>
      <point x="383" y="546" type="curve" smooth="yes"/>
      <point x="257" y="546"/>
      <point x="215" y="449"/>
    </contour>
    <contour>
      <point x="381" y="954" type="curve" smooth="yes"/>
      <point x="440" y="954"/>
      <point x="487" y="913"/>
      <point x="487" y="848" type="curve" smooth="yes"/>
      <point x="487" y="785"/>
      <point x="444" y="744"/>
      <point x="380" y="744" type="curve" smooth="yes"/>
      <point x="316" y="744"/>
      <point x="273" y="786"/>
      <point x="273" y="847" type="curve" smooth="yes"/>
      <point x="273" y="910"/>
      <point x="320" y="954"/>
    </contour>
  </outline>
</glyph>
<glyph name="cdotaccent" format="2">
  <advance width="568"/>
  <unicode hex="010B"/>
  <outline>
    <contour>
      <point x="293" y="153" type="curve" smooth="yes"/>
      <point x="335" y="153"/>
      <point x="363" y="175"/>
      <point x="370" y="211" type="curve"/>
      <point x="546" y="211" type="line"/>
      <point x="541" y="67"/>
      <point x="429" y="-8"/>
      <point x="290" y="-8" type="curve" smooth="yes"/>
      <point x="130" y="-8"/>
      <point x="27" y="91"/>
      <point x="27" y="262" type="curve" smooth="yes"/>
      <point x="27" y="437"/>
      <point x="134" y="538"/>
      <point x="293" y="538" type="curve" smooth="yes"/>
      <point x="435" y="538"/>
      <point x="535" y="458"/>
      <point x="540" y="317" type="curve"/>
      <point x="370" y="317" type="line"/>
      <point x="362" y="356"/>
      <point x="333" y="376"/>
      <point x="294" y="376" type="curve" smooth="yes"/>
      <point x="221" y="376"/>
      <point x="202" y="309"/>
      <point x="202" y="262" type="curve" smooth="yes"/>
      <point x="202" y="208"/>
      <point x="227" y="153"/>
    </contour>
    <contour>
      <point x="301" y="783" type="curve" smooth="yes"/>
      <point x="360" y="783"/>
      <point x="407" y="742"/>
      <point x="407" y="677" type="curve" smooth="yes"/>
      <point x="407" y="614"/>
      <point x="364" y="573"/>
      <point x="300" y="573" type="curve" smooth="yes"/>
      <point x="236" y="573"/>
      <point x="193" y="615"/>
      <point x="193" y="676" type="curve" smooth="yes"/>
      <point x="193" y="739"/>
      <point x="240" y="783"/>
    </contour>
  </outline>
</glyph>
<glyph name="Dcaron" format="2">
  <advance width="737"/>
  <unicode hex="010E"/>
  <outline>
    <contour>
      <point x="67" y="0" type="line"/>
      <point x="67" y="708" type="line"/>
      <point x="344" y="708" type="line" smooth="yes"/>
      <point x="568" y="708"/>
      <point x="708" y="588"/>
      <point x="708" y="351" type="curve" smooth="yes"/>
      <point x="708" y="119"/>
      <point x="574" y="0"/>
      <point x="346" y="0" type="curve" smooth="yes"/>
    </contour>
    <contour>
      <point x="348" y="167" type="line" smooth="yes"/>
      <point x="481" y="167"/>
      <point x="525" y="243"/>
      <point x="525" y="353" type="curve" smooth="yes"/>
      <point x="525" y="459"/>
      <point x="485" y="540"/>
      <point x="341" y="540" type="curve" smooth="yes"/>
      <point x="248" y="540" type="line"/>
      <point x="248" y="167" type="line"/>
    </contour>
    <contour>
      <point x="291" y="758" type="line"/>
      <point x="123" y="950" type="line"/>
      <point x="289" y="950" type="line"/>
      <point x="350" y="866" type="line"/>
      <point x="408" y="950" type="line"/>
      <point x="574" y="950" type="line"/>
      <point x="408" y="758" type="line"/>
    </contour>
  </outline>
</glyph>
<glyph name="dcaron" format="2">
  <advance width="805"/>
  <unicode hex="010F"/>
  <outline>
    <contour>
      <point x="419" y="0" type="line"/>
      <point x="419" y="46" type="line"/>
      <point x="381" y="10"/>
      <point x="329" y="-8"/>
      <point x="268" y="-8" type="curve" smooth="yes"/>
      <point x="106" y="-8"/>
      <point x="27" y="117"/>
      <point x="27" y="265" type="curve" smooth="yes"/>
      <point x="27" y="426"/>
      <point x="119" y="536"/>
      <point x="283" y="537" type="curve" smooth="yes"/>
      <point x="336" y="537"/>
      <point x="386" y="521"/>
      <point x="415" y="490" type="curve"/>
      <point x="415" y="708" type="line"/>
      <point x="592" y="708" type="line"/>
      <point x="592" y="0" type="line"/>
    </contour>
    <contour>
      <point x="308" y="376" type="curve" smooth="yes"/>
      <point x="228" y="376"/>
      <point x="203" y="313"/>
      <point x="203" y="261" type="curve" smooth="yes"/>
      <point x="203" y="207"/>
      <point x="231" y="153"/>
      <point x="307" y="153" type="curve" smooth="yes"/>
      <point x="386" y="153"/>
      <point x="415" y="210"/>
      <point x="415" y="264" type="curve" smooth="yes"/>
      <point x="415" y="319"/>
      <point x="385" y="376"/>
    </contour>
    <contour>
      <point x="604" y="463" type="line"/>
      <point x="633" y="474"/>
      <point x="691" y="517"/>
      <point x="701" y="540" type="curve"/>
      <point x="660" y="544"/>
      <point x="621" y="573"/>
      <point x="621" y="627" type="curve" smooth="yes"/>
      <point x="621" y="686"/>
      <point x="667" y="716"/>
      <point x="718" y="716" type="curve" smooth="yes"/>
      <point x="785" y="716"/>
      <point x="820" y="663"/>
      <point x="820" y="598" type="curve" smooth="yes"/>
      <point x="820" y="495"/>
      <point x="736" y="416"/>
      <point x="652" y="392" type="curve"/>
    </contour>
  </outline>
</glyph>
<glyph name="dcroat" format="2">
  <advance width="639"/>
  <unicode hex="0111"/>
  <outline>
    <contour>
      <point x="308" y="376" type="curve" smooth="yes"/>
      <point x="228" y="376"/>
      <point x="203" y="313"/>
      <point x="203" y="261" type="curve" smooth="yes"/>
      <point x="203" y="207"/>
      <point x="231" y="153"/>
      <point x="307" y="153" type="curve" smooth="yes"/>
      <point x="386" y="153"/>
      <point x="415" y="210"/>
      <point x="415" y="264" type="curve" smooth="yes"/>
      <point x="415" y="319"/>
      <point x="385" y="376"/>
    </contour>
    <contour>
      <point x="663" y="552" type="line"/>
      <point x="592" y="552" type="line"/>
      <point x="592" y="0" type="line"/>
      <point x="419" y="0" type="line"/>
      <point x="419" y="46" type="line"/>
      <point x="381" y="10"/>
      <point x="329" y="-8"/>
      <point x="268" y="-8" type="curve" smooth="yes"/>
      <point x="106" y="-8"/>
      <point x="27" y="117"/>
      <point x="27" y="265" type="curve" smooth="yes"/>
      <point x="27" y="426"/>
      <point x="119" y="537"/>
      <point x="283" y="537" type="curve" smooth="yes"/>
      <point x="336" y="537"/>
      <point x="386" y="521"/>
      <point x="415" y="490" type="curve"/>
      <point x="415" y="552" type="line"/>
      <point x="313" y="552" type="line"/>
      <point x="313" y="659" type="line"/>
      <point x="415" y="659" type="line"/>
      <point x="415" y="708" type="line"/>
      <point x="592" y="708" type="line"/>
      <point x="592" y="659" type="line"/>
      <point x="663" y="659" type="line"/>
    </contour>
  </outline>
</glyph>
<glyph name="emacron" format="2">
  <advance width="576"/>
  <unicode hex="0113"/>
  <outline>
    <contour>
      <point x="292" y="140" type="curve" smooth="yes"/>
      <point x="339" y="139"/>
      <point x="369" y="159"/>
      <point x="376" y="178" type="curve"/>
      <point x="549" y="178" type="line"/>
      <point x="520" y="47"/>
      <point x="414" y="-8"/>
      <point x="296" y="-8" type="curve" smooth="yes"/>
      <point x="134" y="-8"/>
      <point x="27" y="94"/>
      <point x="27" y="260" type="curve" smooth="yes"/>
      <point x="27" y="426"/>
      <point x="135" y="538"/>
      <point x="298" y="538" type="curve" smooth="yes"/>
      <point x="452" y="538"/>
      <point x="549" y="437"/>
      <point x="549" y="278" type="curve" smooth="yes"/>
      <point x="549" y="255"/>
      <point x="547" y="236"/>
      <point x="542" y="213" type="curve"/>
      <point x="202" y="213" type="line"/>
      <point x="206" y="174"/>
      <point x="234" y="141"/>
    </contour>
    <contour>
      <point x="295" y="398" type="curve" smooth="yes"/>
      <point x="232" y="398"/>
      <point x="205" y="358"/>
      <point x="205" y="328" type="curve"/>
      <point x="383" y="328" type="line"/>
      <point x="383" y="358"/>
      <point x="359" y="398"/>
    </contour>
    <contour>
      <point x="491" y="616" type="line"/>
      <point x="95" y="616" type="line"/>
      <point x="95" y="769" type="line"/>
      <point x="491" y="769" type="line"/>
    </contour>
  </outline>
</glyph>
<glyph name="Ebreve" format="2">
  <advance width="629"/>
  <unicode hex="0114"/>
  <outline>
    <contour>
      <point x="601" y="708" type="line"/>
      <point x="601" y="540" type="line"/>
      <point x="248" y="540" type="line"/>
      <point x="248" y="432" type="line"/>
      <point x="539" y="432" type="line"/>
      <point x="539" y="272" type="line"/>
      <point x="248" y="272" type="line"/>
      <point x="248" y="167" type="line"/>
      <point x="601" y="167" type="line"/>
      <point x="601" y="0" type="line"/>
      <point x="67" y="0" type="line"/>
      <point x="67" y="708" type="line"/>
    </contour>
    <contour>
      <point x="338" y="758" type="curve" smooth="yes"/>
      <point x="213" y="758"/>
      <point x="136" y="819"/>
      <point x="136" y="950" type="curve"/>
      <point x="278" y="950" type="line"/>
      <point x="278" y="938" type="line" smooth="yes"/>
      <point x="278" y="902"/>
      <point x="303" y="879"/>
      <point x="339" y="879" type="curve" smooth="yes"/>
      <point x="376" y="879"/>
      <point x="400" y="901"/>
      <point x="400" y="938" type="curve" smooth="yes"/>
      <point x="400" y="950" type="line"/>
      <point x="542" y="950" type="line"/>
      <point x="542" y="821"/>
      <point x="465" y="758"/>
    </contour>
  </outline>
</glyph>
<glyph name="ebreve" format="2">
  <advance width="576"/>
  <unicode hex="0115"/>
  <outline>
    <contour>
      <point x="292" y="140" type="curve" smooth="yes"/>
      <point x="339" y="140"/>
      <point x="369" y="159"/>
      <point x="376" y="178" type="curve"/>
      <point x="549" y="178" type="line"/>
      <point x="520" y="47"/>
      <point x="414" y="-8"/>
      <point x="296" y="-8" type="curve" smooth="yes"/>
      <point x="134" y="-8"/>
      <point x="27" y="94"/>
      <point x="27" y="260" type="curve" smooth="yes"/>
      <point x="27" y="426"/>
      <point x="135" y="538"/>
      <point x="298" y="538" type="curve" smooth="yes"/>
      <point x="452" y="538"/>
      <point x="549" y="437"/>
      <point x="549" y="278" type="curve" smooth="yes"/>
      <point x="549" y="255"/>
      <point x="547" y="236"/>
      <point x="542" y="213" type="curve"/>
      <point x="202" y="213" type="line"/>
      <point x="206" y="174"/>
      <point x="234" y="140"/>
    </contour>
    <contour>
      <point x="295" y="398" type="curve" smooth="yes"/>
      <point x="232" y="398"/>
      <point x="205" y="358"/>
      <point x="205" y="328" type="curve"/>
      <point x="383" y="328" type="line"/>
      <point x="383" y="358"/>
      <point x="359" y="398"/>
    </contour>
    <contour>
      <point x="297" y="577" type="curve" smooth="yes"/>
      <point x="172" y="577"/>
      <point x="95" y="638"/>
      <point x="95" y="769" type="curve"/>
      <point x="237" y="769" type="line"/>
      <point x="237" y="757" type="line" smooth="yes"/>
      <point x="237" y="721"/>
      <point x="262" y="698"/>
      <point x="298" y="698" type="curve" smooth="yes"/>
      <point x="335" y="698"/>
      <point x="359" y="720"/>
      <point x="359" y="757" type="curve" smooth="yes"/>
      <point x="359" y="769" type="line"/>
      <point x="501" y="769" type="line"/>
      <point x="501" y="640"/>
      <point x="424" y="577"/>
    </contour>
  </outline>
</glyph>
<glyph name="Edotaccent" format="2">
  <advance width="629"/>
  <unicode hex="0116"/>
  <outline>
    <contour>
      <point x="601" y="708" type="line"/>
      <point x="601" y="540" type="line"/>
      <point x="248" y="540" type="line"/>
      <point x="248" y="432" type="line"/>
      <point x="539" y="432" type="line"/>
      <point x="539" y="272" type="line"/>
      <point x="248" y="272" type="line"/>
      <point x="248" y="167" type="line"/>
      <point x="601" y="167" type="line"/>
      <point x="601" y="0" type="line"/>
      <point x="67" y="0" type="line"/>
      <point x="67" y="708" type="line"/>
    </contour>
    <contour>
      <point x="340" y="954" type="curve" smooth="yes"/>
      <point x="399" y="954"/>
      <point x="446" y="913"/>
      <point x="446" y="848" type="curve" smooth="yes"/>
      <point x="446" y="785"/>
      <point x="403" y="744"/>
      <point x="339" y="744" type="curve" smooth="yes"/>
      <point x="275" y="744"/>
      <point x="232" y="786"/>
      <point x="232" y="847" type="curve" smooth="yes"/>
      <point x="232" y="910"/>
      <point x="279" y="954"/>
    </contour>
  </outline>
</glyph>
<glyph name="edotaccent" format="2">
  <advance width="576"/>
  <unicode hex="0117"/>
  <outline>
    <contour>
      <point x="292" y="140" type="curve" smooth="yes"/>
      <point x="339" y="140"/>
      <point x="369" y="159"/>
      <point x="376" y="178" type="curve"/>
      <point x="549" y="178" type="line"/>
      <point x="520" y="47"/>
      <point x="414" y="-8"/>
      <point x="296" y="-8" type="curve" smooth="yes"/>
      <point x="134" y="-8"/>
      <point x="27" y="94"/>
      <point x="27" y="260" type="curve" smooth="yes"/>
      <point x="27" y="426"/>
      <point x="135" y="538"/>
      <point x="298" y="538" type="curve" smooth="yes"/>
      <point x="452" y="538"/>
      <point x="549" y="437"/>
      <point x="549" y="278" type="curve" smooth="yes"/>
      <point x="549" y="255"/>
      <point x="547" y="236"/>
      <point x="542" y="213" type="curve"/>
      <point x="202" y="213" type="line"/>
      <point x="206" y="174"/>
      <point x="234" y="140"/>
    </contour>
    <contour>
      <point x="295" y="398" type="curve" smooth="yes"/>
      <point x="232" y="398"/>
      <point x="205" y="358"/>
      <point x="205" y="328" type="curve"/>
      <point x="383" y="328" type="line"/>
      <point x="383" y="358"/>
      <point x="359" y="398"/>
    </contour>
    <contour>
      <point x="299" y="783" type="curve" smooth="yes"/>
      <point x="358" y="783"/>
      <point x="405" y="742"/>
      <point x="405" y="677" type="curve" smooth="yes"/>
      <point x="405" y="614"/>
      <point x="362" y="573"/>
      <point x="298" y="573" type="curve" smooth="yes"/>
      <point x="234" y="573"/>
      <point x="191" y="615"/>
      <point x="191" y="676" type="curve" smooth="yes"/>
      <point x="191" y="739"/>
      <point x="238" y="783"/>
    </contour>
  </outline>
</glyph>
<glyph name="Eogonek" format="2">
  <advance width="629"/>
  <unicode hex="0118"/>
  <outline>
    <contour>
      <point x="240" y="-95" type="curve" smooth="yes"/>
      <point x="240" y="-56"/>
      <point x="261" y="-17"/>
      <point x="290" y="0" type="curve"/>
      <point x="67" y="0" type="line"/>
      <point x="67" y="708" type="line"/>
      <point x="601" y="708" type="line"/>
      <point x="601" y="540" type="line"/>
      <point x="248" y="540" type="line"/>
      <point x="248" y="432" type="line"/>
      <point x="539" y="432" type="line"/>
      <point x="539" y="272" type="line"/>
      <point x="248" y="272" type="line"/>
      <point x="248" y="167" type="line"/>
      <point x="601" y="167" type="line"/>
      <point x="601" y="0" type="line"/>
      <point x="403" y="0" type="line"/>
      <point x="378" y="-8"/>
      <point x="355" y="-22"/>
      <point x="353" y="-51" type="curve" smooth="yes"/>
      <point x="352" y="-78"/>
      <point x="371" y="-92"/>
      <point x="397" y="-92" type="curve" smooth="yes"/>
      <point x="411" y="-92"/>
      <point x="423" y="-88"/>
      <point x="435" y="-83" type="curve"/>
      <point x="451" y="-179" type="line"/>
      <point x="426" y="-194"/>
      <point x="394" y="-197"/>
      <point x="372" y="-197" type="curve" smooth="yes"/>
      <point x="292" y="-197"/>
      <point x="240" y="-157"/>
    </contour>
  </outline>
</glyph>
<glyph name="eogonek" format="2">
  <advance width="576"/>
  <unicode hex="0119"/>
  <outline>
    <contour>
      <point x="295" y="398" type="curve" smooth="yes"/>
      <point x="232" y="398"/>
      <point x="205" y="358"/>
      <point x="205" y="328" type="curve"/>
      <point x="383" y="328" type="line"/>
      <point x="383" y="358"/>
      <point x="359" y="398"/>
    </contour>
    <contour>
      <point x="198" y="-93" type="curve" smooth="yes"/>
      <point x="198" y="-56"/>
      <point x="216" y="-24"/>
      <point x="242" y="-4" type="curve"/>
      <point x="102" y="17"/>
      <point x="27" y="126"/>
      <point x="27" y="262" type="curve" smooth="yes"/>
      <point x="27" y="426"/>
      <point x="135" y="538"/>
      <point x="298" y="538" type="curve" smooth="yes"/>
      <point x="452" y="538"/>
      <point x="549" y="437"/>
      <point x="549" y="278" type="curve" smooth="yes"/>
      <point x="549" y="255"/>
      <point x="547" y="236"/>
      <point x="542" y="213" type="curve"/>
      <point x="202" y="213" type="line"/>
      <point x="206" y="174"/>
      <point x="234" y="140"/>
      <point x="292" y="140" type="curve" smooth="yes"/>
      <point x="339" y="140"/>
      <point x="369" y="159"/>
      <point x="376" y="178" type="curve"/>
      <point x="549" y="178" type="line"/>
      <point x="527" y="80"/>
      <point x="463" y="24"/>
      <point x="381" y="2" type="curve"/>
      <point x="371" y="0"/>
      <point x="361" y="-2"/>
      <point x="351" y="-4" type="curve"/>
      <point x="330" y="-11"/>
      <point x="313" y="-28"/>
      <point x="311" y="-51" type="curve"/>
      <point x="310" y="-78"/>
      <point x="329" y="-92"/>
      <point x="355" y="-92" type="curve" smooth="yes"/>
      <point x="369" y="-92"/>
      <point x="381" y="-88"/>
      <point x="393" y="-83" type="curve"/>
      <point x="409" y="-179" type="line"/>
      <point x="384" y="-194"/>
      <point x="352" y="-197"/>
      <point x="330" y="-197" type="curve" smooth="yes"/>
      <point x="250" y="-197"/>
      <point x="198" y="-157"/>
    </contour>
  </outline>
</glyph>
<glyph name="Ecaron" format="2">
  <advance width="629"/>
  <unicode hex="011A"/>
  <outline>
    <contour>
      <point x="601" y="708" type="line"/>
      <point x="601" y="540" type="line"/>
      <point x="248" y="540" type="line"/>
      <point x="248" y="432" type="line"/>
      <point x="539" y="432" type="line"/>
      <point x="539" y="272" type="line"/>
      <point x="248" y="272" type="line"/>
      <point x="248" y="167" type="line"/>
      <point x="601" y="167" type="line"/>
      <point x="601" y="0" type="line"/>
      <point x="67" y="0" type="line"/>
      <point x="67" y="708" type="line"/>
    </contour>
    <contour>
      <point x="282" y="758" type="line"/>
      <point x="114" y="950" type="line"/>
      <point x="280" y="950" type="line"/>
      <point x="341" y="866" type="line"/>
      <point x="399" y="950" type="line"/>
      <point x="565" y="950" type="line"/>
      <point x="399" y="758" type="line"/>
    </contour>
  </outline>
</glyph>
<glyph name="ecaron" format="2">
  <advance width="576"/>
  <unicode hex="011B"/>
  <outline>
    <contour>
      <point x="292" y="140" type="curve" smooth="yes"/>
      <point x="339" y="140"/>
      <point x="369" y="159"/>
      <point x="376" y="178" type="curve"/>
      <point x="549" y="178" type="line"/>
      <point x="520" y="47"/>
      <point x="414" y="-8"/>
      <point x="296" y="-8" type="curve" smooth="yes"/>
      <point x="134" y="-8"/>
      <point x="27" y="94"/>
      <point x="27" y="260" type="curve" smooth="yes"/>
      <point x="27" y="426"/>
      <point x="135" y="538"/>
      <point x="298" y="538" type="curve" smooth="yes"/>
      <point x="452" y="538"/>
      <point x="549" y="437"/>
      <point x="549" y="278" type="curve" smooth="yes"/>
      <point x="549" y="255"/>
      <point x="547" y="236"/>
      <point x="542" y="213" type="curve"/>
      <point x="202" y="213" type="line"/>
      <point x="206" y="174"/>
      <point x="235" y="140"/>
    </contour>
    <contour>
      <point x="295" y="398" type="curve" smooth="yes"/>
      <point x="232" y="398"/>
      <point x="205" y="358"/>
      <point x="205" y="328" type="curve"/>
      <point x="383" y="328" type="line"/>
      <point x="383" y="358"/>
      <point x="359" y="398"/>
    </contour>
    <contour>
      <point x="240" y="577" type="line"/>
      <point x="72" y="769" type="line"/>
      <point x="238" y="769" type="line"/>
      <point x="299" y="685" type="line"/>
      <point x="357" y="769" type="line"/>
      <point x="523" y="769" type="line"/>
      <point x="357" y="577" type="line"/>
    </contour>
  </outline>
</glyph>
<glyph name="Gbreve" format="2">
  <advance width="740"/>
  <unicode hex="011E"/>
  <outline>
    <contour>
      <point x="215" y="351" type="curve" smooth="yes"/>
      <point x="215" y="256"/>
      <point x="259" y="163"/>
      <point x="387" y="163" type="curve" smooth="yes"/>
      <point x="451" y="163"/>
      <point x="511" y="186"/>
      <point x="522" y="242" type="curve"/>
      <point x="355" y="242" type="line"/>
      <point x="355" y="394" type="line"/>
      <point x="712" y="394" type="line"/>
      <point x="712" y="368" type="line" smooth="yes"/>
      <point x="712" y="271"/>
      <point x="699" y="181"/>
      <point x="648" y="111" type="curve" smooth="yes"/>
      <point x="586" y="27"/>
      <point x="483" y="-8"/>
      <point x="377" y="-8" type="curve" smooth="yes"/>
      <point x="164" y="-8"/>
      <point x="28" y="133"/>
      <point x="28" y="357" type="curve" smooth="yes"/>
      <point x="28" y="581"/>
      <point x="165" y="717"/>
      <point x="377" y="717" type="curve" smooth="yes"/>
      <point x="541" y="717"/>
      <point x="675" y="636"/>
      <point x="699" y="458" type="curve"/>
      <point x="520" y="458" type="line"/>
      <point x="507" y="521"/>
      <point x="459" y="546"/>
      <point x="392" y="546" type="curve" smooth="yes"/>
      <point x="258" y="546"/>
      <point x="215" y="445"/>
    </contour>
    <contour>
      <point x="378" y="758" type="curve" smooth="yes"/>
      <point x="253" y="758"/>
      <point x="176" y="819"/>
      <point x="176" y="950" type="curve"/>
      <point x="318" y="950" type="line"/>
      <point x="318" y="938" type="line" smooth="yes"/>
      <point x="318" y="902"/>
      <point x="343" y="879"/>
      <point x="379" y="879" type="curve" smooth="yes"/>
      <point x="416" y="879"/>
      <point x="440" y="901"/>
      <point x="440" y="938" type="curve" smooth="yes"/>
      <point x="440" y="950" type="line"/>
      <point x="582" y="950" type="line"/>
      <point x="582" y="821"/>
      <point x="505" y="758"/>
    </contour>
  </outline>
</glyph>
<glyph name="gbreve" format="2">
  <advance width="639"/>
  <unicode hex="011F"/>
  <outline>
    <contour>
      <point x="592" y="109" type="line" smooth="yes"/>
      <point x="592" y="13"/>
      <point x="589" y="-79"/>
      <point x="538" y="-150" type="curve" smooth="yes"/>
      <point x="484" y="-226"/>
      <point x="397" y="-249"/>
      <point x="317" y="-249" type="curve" smooth="yes"/>
      <point x="185" y="-249"/>
      <point x="74" y="-187"/>
      <point x="47" y="-39" type="curve"/>
      <point x="227" y="-39" type="line"/>
      <point x="236" y="-67"/>
      <point x="267" y="-86"/>
      <point x="314" y="-86" type="curve" smooth="yes"/>
      <point x="406" y="-86"/>
      <point x="412" y="-16"/>
      <point x="412" y="56" type="curve"/>
      <point x="373" y="1"/>
      <point x="307" y="-7"/>
      <point x="264" y="-7" type="curve" smooth="yes"/>
      <point x="93" y="-7"/>
      <point x="27" y="121"/>
      <point x="27" y="256" type="curve" smooth="yes"/>
      <point x="27" y="410"/>
      <point x="114" y="537"/>
      <point x="276" y="537" type="curve" smooth="yes"/>
      <point x="343" y="537"/>
      <point x="383" y="515"/>
      <point x="416" y="482" type="curve"/>
      <point x="432" y="527" type="line"/>
      <point x="592" y="527" type="line"/>
    </contour>
    <contour>
      <point x="311" y="378" type="curve" smooth="yes"/>
      <point x="227" y="378"/>
      <point x="203" y="309"/>
      <point x="203" y="260" type="curve" smooth="yes"/>
      <point x="203" y="207"/>
      <point x="230" y="152"/>
      <point x="308" y="152" type="curve" smooth="yes"/>
      <point x="384" y="152"/>
      <point x="415" y="204"/>
      <point x="415" y="265" type="curve" smooth="yes"/>
      <point x="415" y="326"/>
      <point x="384" y="378"/>
    </contour>
    <contour>
      <point x="332" y="577" type="curve" smooth="yes"/>
      <point x="207" y="577"/>
      <point x="130" y="638"/>
      <point x="130" y="769" type="curve"/>
      <point x="272" y="769" type="line"/>
      <point x="272" y="757" type="line" smooth="yes"/>
      <point x="272" y="721"/>
      <point x="297" y="698"/>
      <point x="333" y="698" type="curve" smooth="yes"/>
      <point x="370" y="698"/>
      <point x="394" y="720"/>
      <point x="394" y="757" type="curve" smooth="yes"/>
      <point x="394" y="769" type="line"/>
      <point x="536" y="769" type="line"/>
      <point x="536" y="640"/>
      <point x="459" y="577"/>
    </contour>
  </outline>
</glyph>
<glyph name="Gdotaccent" format="2">
  <advance width="740"/>
  <unicode hex="0120"/>
  <outline>
    <contour>
      <point x="215" y="351" type="curve" smooth="yes"/>
      <point x="215" y="256"/>
      <point x="259" y="163"/>
      <point x="387" y="163" type="curve" smooth="yes"/>
      <point x="451" y="163"/>
      <point x="511" y="186"/>
      <point x="522" y="242" type="curve"/>
      <point x="355" y="242" type="line"/>
      <point x="355" y="394" type="line"/>
      <point x="712" y="394" type="line"/>
      <point x="712" y="368" type="line" smooth="yes"/>
      <point x="712" y="271"/>
      <point x="699" y="181"/>
      <point x="648" y="111" type="curve" smooth="yes"/>
      <point x="586" y="27"/>
      <point x="483" y="-8"/>
      <point x="377" y="-8" type="curve" smooth="yes"/>
      <point x="164" y="-8"/>
      <point x="28" y="133"/>
      <point x="28" y="357" type="curve" smooth="yes"/>
      <point x="28" y="581"/>
      <point x="165" y="717"/>
      <point x="377" y="717" type="curve" smooth="yes"/>
      <point x="541" y="717"/>
      <point x="675" y="636"/>
      <point x="699" y="458" type="curve"/>
      <point x="520" y="458" type="line"/>
      <point x="507" y="521"/>
      <point x="459" y="546"/>
      <point x="392" y="546" type="curve" smooth="yes"/>
      <point x="258" y="546"/>
      <point x="215" y="445"/>
    </contour>
    <contour>
      <point x="378" y="954" type="curve" smooth="yes"/>
      <point x="437" y="954"/>
      <point x="484" y="913"/>
      <point x="484" y="848" type="curve" smooth="yes"/>
      <point x="484" y="785"/>
      <point x="441" y="744"/>
      <point x="377" y="744" type="curve" smooth="yes"/>
      <point x="313" y="744"/>
      <point x="270" y="786"/>
      <point x="270" y="847" type="curve" smooth="yes"/>
      <point x="270" y="910"/>
      <point x="317" y="954"/>
    </contour>
  </outline>
</glyph>
<glyph name="uni0122" format="2">
  <advance width="740"/>
  <unicode hex="0122"/>
  <outline>
    <contour>
      <point x="215" y="351" type="curve" smooth="yes"/>
      <point x="215" y="256"/>
      <point x="259" y="163"/>
      <point x="387" y="163" type="curve" smooth="yes"/>
      <point x="451" y="163"/>
      <point x="511" y="186"/>
      <point x="522" y="242" type="curve"/>
      <point x="355" y="242" type="line"/>
      <point x="355" y="394" type="line"/>
      <point x="712" y="394" type="line"/>
      <point x="712" y="368" type="line" smooth="yes"/>
      <point x="712" y="271"/>
      <point x="699" y="181"/>
      <point x="648" y="111" type="curve" smooth="yes"/>
      <point x="586" y="27"/>
      <point x="483" y="-8"/>
      <point x="377" y="-8" type="curve" smooth="yes"/>
      <point x="164" y="-8"/>
      <point x="28" y="133"/>
      <point x="28" y="357" type="curve" smooth="yes"/>
      <point x="28" y="581"/>
      <point x="165" y="717"/>
      <point x="377" y="717" type="curve" smooth="yes"/>
      <point x="541" y="717"/>
      <point x="675" y="636"/>
      <point x="699" y="458" type="curve"/>
      <point x="520" y="458" type="line"/>
      <point x="507" y="521"/>
      <point x="459" y="546"/>
      <point x="392" y="546" type="curve" smooth="yes"/>
      <point x="258" y="546"/>
      <point x="215" y="445"/>
    </contour>
    <contour>
      <point x="294" y="-240" type="line"/>
      <point x="318" y="-231"/>
      <point x="367" y="-196"/>
      <point x="375" y="-175" type="curve"/>
      <point x="340" y="-174"/>
      <point x="306" y="-150"/>
      <point x="306" y="-106" type="curve" smooth="yes"/>
      <point x="305" y="-58"/>
      <point x="343" y="-32"/>
      <point x="387" y="-32" type="curve" smooth="yes"/>
      <point x="443" y="-33"/>
      <point x="473" y="-75"/>
      <point x="473" y="-134" type="curve" smooth="yes"/>
      <point x="473" y="-216"/>
      <point x="404" y="-272"/>
      <point x="333" y="-297" type="curve"/>
    </contour>
  </outline>
</glyph>
